<svg width="44" height="44" viewBox="0 0 44 44" fill="none" xmlns="http://www.w3.org/2000/svg">
<g clip-path="url(#clip0_136_355)">
<path fill-rule="evenodd" clip-rule="evenodd" d="M4.88889 44H39.1111C41.8112 44 44 41.8112 44 39.1111V4.88889C44 2.18883 41.8112 0 39.1111 0H4.88889C2.18883 0 0 2.18883 0 4.88889V39.1111C0 41.8112 2.18883 44 4.88889 44Z" fill="#007EBB"/>
<path fill-rule="evenodd" clip-rule="evenodd" d="M37.8889 37.8889H31.3596V26.7679C31.3596 23.7189 30.201 22.015 27.7877 22.015C25.1623 22.015 23.7906 23.7882 23.7906 26.7679V37.8889H17.4982V16.7037H23.7906V19.5573C23.7906 19.5573 25.6826 16.0564 30.1782 16.0564C34.6718 16.0564 37.8889 18.8005 37.8889 24.4757V37.8889ZM9.99127 13.9296C7.84793 13.9296 6.11111 12.1792 6.11111 10.0204C6.11111 7.86152 7.84793 6.11108 9.99127 6.11108C12.1346 6.11108 13.8704 7.86152 13.8704 10.0204C13.8704 12.1792 12.1346 13.9296 9.99127 13.9296ZM6.74212 37.8889H13.3035V16.7037H6.74212V37.8889Z" fill="white"/>
</g>
<defs>
<clipPath id="clip0_136_355">
<rect width="44" height="44" fill="white"/>
</clipPath>
</defs>
</svg>
