<svg width="44" height="44" viewBox="0 0 44 44" fill="none" xmlns="http://www.w3.org/2000/svg">
<g clip-path="url(#clip0_136_385)">
<path d="M22 44C34.1503 44 44 34.1503 44 22C44 9.84974 34.1503 0 22 0C9.84974 0 0 9.84974 0 22C0 34.1503 9.84974 44 22 44Z" fill="url(#paint0_linear_136_385)"/>
<path d="M14.892 23.6081L17.5021 30.8326C17.5021 30.8326 17.8284 31.5085 18.1779 31.5085C18.5273 31.5085 23.7246 26.1016 23.7246 26.1016L29.5042 14.9385L14.9851 21.7433L14.892 23.6081Z" fill="#C8DAEA"/>
<path d="M18.3528 25.4609L17.8517 30.786C17.8517 30.786 17.642 32.4177 19.2733 30.786C20.9046 29.1544 22.466 27.8962 22.466 27.8962" fill="#A9C6D8"/>
<path d="M14.9391 23.866L9.57001 22.1167C9.57001 22.1167 8.92834 21.8563 9.13496 21.266C9.17749 21.1443 9.26329 21.0407 9.51996 20.8627C10.7096 20.0334 31.5394 12.5467 31.5394 12.5467C31.5394 12.5467 32.1275 12.3485 32.4744 12.4803C32.5602 12.5069 32.6374 12.5557 32.6981 12.6219C32.7589 12.6881 32.8009 12.7693 32.82 12.857C32.8575 13.0121 32.8731 13.1716 32.8665 13.331C32.8649 13.4688 32.8482 13.5966 32.8356 13.797C32.7087 15.8439 28.9122 31.1207 28.9122 31.1207C28.9122 31.1207 28.6851 32.0146 27.8713 32.0453C27.6713 32.0517 27.472 32.0178 27.2854 31.9457C27.0988 31.8735 26.9286 31.7644 26.785 31.6251C25.188 30.2513 19.6682 26.5418 18.4485 25.7259C18.421 25.7072 18.3978 25.6828 18.3805 25.6543C18.3633 25.6258 18.3523 25.594 18.3484 25.5609C18.3313 25.475 18.4248 25.3684 18.4248 25.3684C18.4248 25.3684 28.0363 16.8251 28.292 15.9282C28.3118 15.8588 28.237 15.8245 28.1365 15.8549C27.4982 16.0898 16.4318 23.0782 15.2104 23.8495C15.1225 23.8761 15.0296 23.8818 14.9391 23.866Z" fill="white"/>
</g>
<defs>
<linearGradient id="paint0_linear_136_385" x1="22" y1="44" x2="22" y2="0" gradientUnits="userSpaceOnUse">
<stop stop-color="#1D93D2"/>
<stop offset="1" stop-color="#38B0E3"/>
</linearGradient>
<clipPath id="clip0_136_385">
<rect width="44" height="44" fill="white"/>
</clipPath>
</defs>
</svg>
