<svg width="51" height="51" viewBox="0 0 51 51" fill="none" xmlns="http://www.w3.org/2000/svg">
<g clip-path="url(#clip0_136_379)">
<g filter="url(#filter0_f_136_379)">
<path d="M15.8726 40.2214L16.5231 40.606C19.2554 42.2245 22.3882 43.0806 25.583 43.082H25.5897C35.4007 43.082 43.3853 35.1145 43.3894 25.3216C43.3912 20.5761 41.5414 16.1135 38.1807 12.7566C36.5324 11.1011 34.5715 9.78837 32.4114 8.89436C30.2513 8.00035 27.9351 7.54285 25.5966 7.54834C15.778 7.54834 7.7931 15.5151 7.78961 25.3073C7.78477 28.6511 8.7282 31.928 10.5108 34.7592L10.9343 35.4308L9.1358 41.9842L15.8726 40.2214ZM3.99377 47.0612L7.03225 35.9886C5.15834 32.7482 4.17249 29.0721 4.17366 25.3059C4.1786 13.5239 13.7851 3.93872 25.59 3.93872C31.3185 3.94163 36.6954 6.16666 40.7392 10.2057C44.7831 14.2446 47.008 19.6133 47.006 25.323C47.0007 37.1042 37.3928 46.6911 25.5897 46.6911H25.5803C21.9964 46.6896 18.4748 45.7922 15.3466 44.0898L3.99377 47.0612Z" fill="#B3B3B3"/>
</g>
<path d="M3.77402 46.8417L6.81249 35.7691C4.93536 32.5209 3.94936 28.8362 3.9539 25.0864C3.95885 13.3044 13.5653 3.71924 25.3702 3.71924C31.0987 3.72214 36.4757 5.94718 40.5195 9.98617C44.5633 14.0252 46.7882 19.3938 46.7862 25.1036C46.781 36.8847 37.1731 46.4716 25.3699 46.4716H25.3606C21.7767 46.4701 18.255 45.5728 15.1269 43.8704L3.77402 46.8417Z" fill="white"/>
<path d="M25.3766 7.32866C15.5579 7.32866 7.57303 15.2954 7.56954 25.0877C7.5647 28.4315 8.50813 31.7083 10.2907 34.5395L10.7143 35.2114L8.91573 41.7648L15.6528 40.0017L16.3034 40.3863C19.0356 42.0048 22.1684 42.8606 25.3632 42.8624H25.3699C35.181 42.8624 43.1659 34.8948 43.1696 25.1019C43.1771 22.7678 42.7205 20.4554 41.8264 18.2986C40.9324 16.1419 39.6185 14.1835 37.961 12.537C36.3126 10.8814 34.3516 9.56864 32.1915 8.67463C30.0314 7.78062 27.715 7.32314 25.3766 7.32866Z" fill="url(#paint0_linear_136_379)"/>
<path fill-rule="evenodd" clip-rule="evenodd" d="M20.0174 16.1534C19.6163 15.2642 19.1943 15.2462 18.8133 15.2308L17.7875 15.2183C17.4307 15.2183 16.8509 15.3519 16.3607 15.8864C15.8705 16.421 14.4877 17.7129 14.4877 20.3406C14.4877 22.9683 16.4052 25.5073 16.6724 25.8641C16.9396 26.2208 20.3743 31.785 25.8135 33.9258C30.3335 35.7049 31.2533 35.351 32.2347 35.2621C33.2162 35.1733 35.4007 33.9702 35.8463 32.7231C36.292 31.4759 36.2923 30.4074 36.1587 30.184C36.0251 29.9606 35.6682 29.8278 35.1326 29.5606C34.5971 29.2933 31.9667 28.0014 31.4762 27.823C30.9858 27.6446 30.6292 27.556 30.2721 28.0906C29.9149 28.6251 28.8907 29.8275 28.5783 30.184C28.266 30.5405 27.9543 30.5852 27.4187 30.3182C26.8831 30.0512 25.16 29.4871 23.1155 27.6676C21.5249 26.2519 20.4511 24.5036 20.1385 23.9694C19.8259 23.4351 20.1053 23.1458 20.3737 22.8796C20.6138 22.6403 20.9087 22.2559 21.1767 21.9442C21.4448 21.6325 21.533 21.4097 21.7111 21.0538C21.8893 20.6979 21.8005 20.3853 21.6666 20.1183C21.5327 19.8514 20.493 17.2097 20.0174 16.1534Z" fill="white"/>
</g>
<defs>
<filter id="filter0_f_136_379" x="-3.06823" y="-3.12328" width="57.1362" height="57.2466" filterUnits="userSpaceOnUse" color-interpolation-filters="sRGB">
<feFlood flood-opacity="0" result="BackgroundImageFix"/>
<feBlend mode="normal" in="SourceGraphic" in2="BackgroundImageFix" result="shape"/>
<feGaussianBlur stdDeviation="3.531" result="effect1_foregroundBlur_136_379"/>
</filter>
<linearGradient id="paint0_linear_136_379" x1="25.0072" y1="9.46102" x2="25.187" y2="39.8268" gradientUnits="userSpaceOnUse">
<stop stop-color="#57D163"/>
<stop offset="1" stop-color="#23B33A"/>
</linearGradient>
<clipPath id="clip0_136_379">
<rect width="51" height="51" fill="white"/>
</clipPath>
</defs>
</svg>
