<svg width="57" height="40" viewBox="0 0 57 40" fill="none" xmlns="http://www.w3.org/2000/svg">
<g clip-path="url(#clip0_293_452)">
<path d="M55.9037 6.26296C55.2458 3.79645 53.3139 1.85814 50.8557 1.19788C46.4048 3.58571e-07 28.5487 0 28.5487 0C28.5487 0 10.6929 3.58571e-07 6.24181 1.19788C3.78364 1.85814 1.85187 3.79645 1.19384 6.26296C3.57361e-07 10.7291 0 20.0528 0 20.0528C0 20.0528 3.57361e-07 29.3765 1.19384 33.8427C1.85187 36.3091 3.78364 38.2474 6.24181 38.9076C10.6929 40.1055 28.5487 40.1055 28.5487 40.1055C28.5487 40.1055 46.4048 40.1055 50.8557 38.9076C53.3139 38.2474 55.2458 36.3091 55.9037 33.8427C57.0976 29.3765 57.0976 20.0528 57.0976 20.0528C57.0976 20.0528 57.0928 10.7291 55.9037 6.26296Z" fill="#FF0000"/>
<path d="M22.834 28.6458L37.6677 20.0532L22.834 11.4604V28.6458Z" fill="white"/>
</g>
<defs>
<clipPath id="clip0_293_452">
<rect width="57" height="40" fill="white"/>
</clipPath>
</defs>
</svg>
