<svg width="21" height="21" viewBox="0 0 21 21" fill="none" xmlns="http://www.w3.org/2000/svg">
<path d="M10.5 18.375C8.3125 18.375 6.45312 17.6094 4.92188 16.0781C3.39062 14.5469 2.625 12.6875 2.625 10.5C2.625 8.3125 3.39062 6.45312 4.92188 4.92188C6.45312 3.39062 8.3125 2.625 10.5 2.625C10.7042 2.625 10.9047 2.63229 11.1016 2.64688C11.2984 2.66146 11.4917 2.68333 11.6813 2.7125C11.0833 3.13542 10.6057 3.68594 10.2484 4.36406C9.89115 5.04219 9.7125 5.775 9.7125 6.5625C9.7125 7.875 10.1719 8.99062 11.0906 9.90937C12.0094 10.8281 13.125 11.2875 14.4375 11.2875C15.2396 11.2875 15.976 11.1089 16.6469 10.7516C17.3177 10.3943 17.8646 9.91667 18.2875 9.31875C18.3167 9.50833 18.3385 9.70156 18.3531 9.89844C18.3677 10.0953 18.375 10.2958 18.375 10.5C18.375 12.6875 17.6094 14.5469 16.0781 16.0781C14.5469 17.6094 12.6875 18.375 10.5 18.375ZM10.5 16.625C11.7833 16.625 12.9354 16.2714 13.9562 15.5641C14.9771 14.8568 15.7208 13.9344 16.1875 12.7969C15.8958 12.8698 15.6042 12.9281 15.3125 12.9719C15.0208 13.0156 14.7292 13.0375 14.4375 13.0375C12.6438 13.0375 11.1161 12.4068 9.85469 11.1453C8.59323 9.88385 7.9625 8.35625 7.9625 6.5625C7.9625 6.27083 7.98438 5.97917 8.02813 5.6875C8.07188 5.39583 8.13021 5.10417 8.20312 4.8125C7.06562 5.27917 6.14323 6.02292 5.43594 7.04375C4.72865 8.06458 4.375 9.21667 4.375 10.5C4.375 12.1917 4.97292 13.6354 6.16875 14.8312C7.36458 16.0271 8.80833 16.625 10.5 16.625Z" fill="#888893"/>
</svg>
