<svg width="26" height="26" viewBox="0 0 26 26" fill="none" xmlns="http://www.w3.org/2000/svg">
<path d="M17.3333 22.75V5.41667C17.3333 4.84203 17.105 4.29093 16.6987 3.8846C16.2924 3.47827 15.7413 3.25 15.1666 3.25H10.8333C10.2587 3.25 9.70756 3.47827 9.30123 3.8846C8.8949 4.29093 8.66663 4.84203 8.66663 5.41667V22.75M4.33329 7.58333H21.6666C22.8632 7.58333 23.8333 8.55338 23.8333 9.75V20.5833C23.8333 21.78 22.8632 22.75 21.6666 22.75H4.33329C3.13668 22.75 2.16663 21.78 2.16663 20.5833V9.75C2.16663 8.55338 3.13668 7.58333 4.33329 7.58333Z" stroke="black" stroke-width="1.7" stroke-linecap="round" stroke-linejoin="round"/>
</svg>
