<svg width="24" height="24" viewBox="0 0 24 24" fill="none" xmlns="http://www.w3.org/2000/svg">
<path d="M18.4474 18.2539L18.0152 17.522L18.4474 18.2539ZM18.9389 17.3928H18.0889H18.9389ZM10.9656 21.4035L10.5096 22.1209L10.9656 21.4035ZM13.0554 21.4378L13.4876 22.1697L13.0554 21.4378ZM1.90407 8.1368L1.46893 7.40663H1.46893L1.90407 8.1368ZM1.90407 8.99583L1.46893 9.72601H1.46893L1.90407 8.99583ZM12.5119 14.7073L12.947 15.4375L12.5119 14.7073ZM11.4881 14.7073L11.9232 13.9771L11.4881 14.7073ZM22.0959 8.1368L22.531 7.40663L22.0959 8.1368ZM22.0959 8.99583L21.6607 8.26566L22.0959 8.99583ZM6.01756 18.2583L6.47354 17.5409L6.01756 18.2583ZM12.5119 2.42533L12.0768 3.15551L12.5119 2.42533ZM11.4881 2.42533L11.9232 3.15551L11.4881 2.42533ZM23.05 8.54967C23.05 8.08023 22.6694 7.69967 22.2 7.69967C21.7305 7.69967 21.35 8.08023 21.35 8.54967H23.05ZM21.35 13.9497C21.35 14.4191 21.7305 14.7997 22.2 14.7997C22.6694 14.7997 23.05 14.4191 23.05 13.9497H21.35ZM12.0768 3.15551L21.6607 8.86698L22.531 7.40663L12.947 1.69516L12.0768 3.15551ZM21.6607 8.26566L12.0768 13.9771L12.947 15.4375L22.531 9.72601L21.6607 8.26566ZM2.33921 8.86698L11.9232 3.15551L11.0529 1.69516L1.46893 7.40663L2.33921 8.86698ZM11.9232 13.9771L5.98915 10.4408L5.11887 11.9011L11.0529 15.4375L11.9232 13.9771ZM5.98915 10.4408L2.33921 8.26566L1.46893 9.72601L5.11887 11.9011L5.98915 10.4408ZM4.70401 11.171V17.4144H6.40401V11.171H4.70401ZM5.56157 18.9756L10.5096 22.1209L11.4216 20.6862L6.47354 17.5409L5.56157 18.9756ZM13.4876 22.1697L18.8796 18.9858L18.0152 17.522L12.6232 20.7059L13.4876 22.1697ZM19.7889 17.3928L19.7889 11.171H18.0889L18.0889 17.3928H19.7889ZM18.8796 18.9858C19.4431 18.653 19.7889 18.0473 19.7889 17.3928H18.0889C18.0889 17.4459 18.0609 17.495 18.0152 17.522L18.8796 18.9858ZM10.5096 22.1209C11.4141 22.6958 12.5647 22.7147 13.4876 22.1697L12.6232 20.7059C12.2508 20.9258 11.7865 20.9182 11.4216 20.6862L10.5096 22.1209ZM1.46893 7.40663C0.590399 7.93018 0.590404 9.20246 1.46893 9.72601L2.33921 8.26566C2.56697 8.40139 2.56698 8.73124 2.33921 8.86698L1.46893 7.40663ZM12.0768 13.9771C12.0295 14.0053 11.9705 14.0053 11.9232 13.9771L11.0529 15.4375C11.6364 15.7852 12.3635 15.7852 12.947 15.4375L12.0768 13.9771ZM21.6607 8.86698C21.433 8.73124 21.433 8.40139 21.6607 8.26566L22.531 9.72601C23.4096 9.20246 23.4096 7.93018 22.531 7.40663L21.6607 8.86698ZM4.70401 17.4144C4.70401 18.0472 5.02749 18.6361 5.56157 18.9756L6.47354 17.5409C6.43024 17.5134 6.40401 17.4657 6.40401 17.4144H4.70401ZM12.947 1.69516C12.3635 1.34743 11.6364 1.34743 11.0529 1.69516L11.9232 3.15551C11.9705 3.12731 12.0295 3.12731 12.0768 3.15551L12.947 1.69516ZM21.35 8.54967V13.9497H23.05V8.54967H21.35Z" fill="black"/>
</svg>
