<svg width="27" height="27" viewBox="0 0 27 27" fill="none" xmlns="http://www.w3.org/2000/svg">
<path d="M11.0989 18.3762C11.4309 18.7082 11.969 18.7082 12.301 18.3762C12.6329 18.0443 12.6329 17.5061 12.301 17.1742L11.0989 18.3762ZM9.44995 15.5252L8.84891 14.9242C8.51696 15.2561 8.51696 15.7943 8.84891 16.1262L9.44995 15.5252ZM12.301 13.8762C12.6329 13.5443 12.6329 13.0061 12.301 12.6742C11.969 12.3422 11.4309 12.3422 11.0989 12.6742L12.301 13.8762ZM15.901 12.6742C15.569 12.3422 15.0309 12.3422 14.6989 12.6742C14.367 13.0061 14.367 13.5443 14.6989 13.8762L15.901 12.6742ZM17.55 15.5252L18.151 16.1262C18.4829 15.7943 18.4829 15.2561 18.151 14.9242L17.55 15.5252ZM14.6989 17.1742C14.367 17.5061 14.367 18.0443 14.6989 18.3762C15.0309 18.7082 15.569 18.7082 15.901 18.3762L14.6989 17.1742ZM4.24281 5.57498H10.4142V3.87498H4.24281V5.57498ZM11.1071 6.29998V8.99998H12.8071V6.29998H11.1071ZM11.1071 8.99998V9.22498H12.8071V8.99998H11.1071ZM10.4142 5.57498C10.7805 5.57498 11.1071 5.88296 11.1071 6.29998H12.8071C12.8071 4.97729 11.7522 3.87498 10.4142 3.87498V5.57498ZM4.24281 3.87498C2.90483 3.87498 1.84995 4.97729 1.84995 6.29998H3.54995C3.54995 5.88296 3.87659 5.57498 4.24281 5.57498V3.87498ZM2.69995 9.84998H11.9571V8.14998H2.69995V9.84998ZM11.9571 9.84998H22.7571V8.14998H11.9571V9.84998ZM23.4499 10.575V20.7H25.1499V10.575H23.4499ZM22.7571 21.425H4.24281V23.125H22.7571V21.425ZM3.54995 20.7V8.99998H1.84995V20.7H3.54995ZM4.24281 21.425C3.87659 21.425 3.54995 21.117 3.54995 20.7H1.84995C1.84995 22.0227 2.90483 23.125 4.24281 23.125V21.425ZM23.4499 20.7C23.4499 21.117 23.1233 21.425 22.7571 21.425V23.125C24.0951 23.125 25.1499 22.0227 25.1499 20.7H23.4499ZM22.7571 9.84998C23.1233 9.84998 23.4499 10.158 23.4499 10.575H25.1499C25.1499 9.25229 24.0951 8.14998 22.7571 8.14998V9.84998ZM12.301 17.1742L10.051 14.9242L8.84891 16.1262L11.0989 18.3762L12.301 17.1742ZM10.051 16.1262L12.301 13.8762L11.0989 12.6742L8.84891 14.9242L10.051 16.1262ZM14.6989 13.8762L16.9489 16.1262L18.151 14.9242L15.901 12.6742L14.6989 13.8762ZM16.9489 14.9242L14.6989 17.1742L15.901 18.3762L18.151 16.1262L16.9489 14.9242ZM3.54995 8.99998V6.29998H1.84995V8.99998H3.54995Z" fill="black"/>
</svg>
