<svg width="24" height="24" viewBox="0 0 24 24" fill="none" xmlns="http://www.w3.org/2000/svg">
<path d="M11.7042 7.58272C11.3506 7.15844 10.7201 7.10112 10.2958 7.45468C9.8715 7.80824 9.81418 8.43881 10.1677 8.86308L11.7042 7.58272ZM14.2505 12.2004L15.0188 12.8406C15.3278 12.4697 15.3278 11.9311 15.0188 11.5602L14.2505 12.2004ZM10.1677 15.5377C9.81418 15.962 9.8715 16.5926 10.2958 16.9461C10.7201 17.2997 11.3506 17.2424 11.7042 16.8181L10.1677 15.5377ZM10.1677 8.86308L13.4823 12.8406L15.0188 11.5602L11.7042 7.58272L10.1677 8.86308ZM13.4823 11.5602L10.1677 15.5377L11.7042 16.8181L15.0188 12.8406L13.4823 11.5602ZM12 20C7.58172 20 4 16.4183 4 12H2C2 17.5228 6.47715 22 12 22V20ZM4 12C4 7.58172 7.58172 4 12 4V2C6.47715 2 2 6.47715 2 12H4ZM12 4C16.4183 4 20 7.58172 20 12H22C22 6.47715 17.5228 2 12 2V4ZM20 12C20 16.4183 16.4183 20 12 20V22C17.5228 22 22 17.5228 22 12H20Z" fill="white"/>
</svg>
