<svg width="23" height="23" viewBox="0 0 23 23" fill="none" xmlns="http://www.w3.org/2000/svg">
<g clip-path="url(#clip0_85_542)">
<path d="M17.1925 17.1924C15.5544 18.4411 13.5596 19.1329 11.5 19.1666C4.79171 19.1666 0.958374 11.4999 0.958374 11.4999C2.15044 9.2784 3.8038 7.3375 5.80754 5.80742M9.48754 4.06325C10.1472 3.90884 10.8226 3.83166 11.5 3.83325C18.2084 3.83325 22.0417 11.4999 22.0417 11.4999C21.46 12.5882 20.7662 13.6128 19.9717 14.557M13.5317 13.5316C13.2685 13.814 12.9511 14.0406 12.5984 14.1977C12.2458 14.3549 11.8651 14.4394 11.479 14.4462C11.093 14.453 10.7096 14.382 10.3516 14.2374C9.99359 14.0928 9.6684 13.8776 9.39539 13.6046C9.12239 13.3316 8.90717 13.0064 8.76257 12.6484C8.61797 12.2904 8.54696 11.9069 8.55377 11.5209C8.56058 11.1349 8.64508 10.7542 8.80221 10.4015C8.95935 10.0489 9.18591 9.73146 9.46837 9.46825M0.958374 0.958252L22.0417 22.0416" stroke="white" stroke-width="2.2" stroke-linecap="round" stroke-linejoin="round"/>
</g>
<defs>
<clipPath id="clip0_85_542">
<rect width="23" height="23" fill="white"/>
</clipPath>
</defs>
</svg>
