<svg width="15" height="15" viewBox="0 0 15 15" fill="none" xmlns="http://www.w3.org/2000/svg">
<path fill-rule="evenodd" clip-rule="evenodd" d="M2.14286 6.42849C2.14286 4.06158 4.06164 2.14283 6.42858 2.14283C8.79552 2.14283 10.7143 4.06158 10.7143 6.42849C10.7143 8.7954 8.79552 10.7142 6.42858 10.7142C4.06164 10.7142 2.14286 8.7954 2.14286 6.42849ZM6.42858 0C2.87817 0 0 2.87813 0 6.42849C0 9.97885 2.87817 12.857 6.42858 12.857C7.81692 12.857 9.10247 12.4168 10.1533 11.6686L13.171 14.6862C13.5894 15.1046 14.2678 15.1046 14.6862 14.6862C15.1046 14.2678 15.1046 13.5894 14.6862 13.171L11.6686 10.1534C12.417 9.10254 12.8572 7.81692 12.8572 6.42849C12.8572 2.87813 9.97899 0 6.42858 0Z" fill="#888893"/>
</svg>
