<svg width="1110" height="480" viewBox="0 0 1110 480" fill="none" xmlns="http://www.w3.org/2000/svg">
<path fill-rule="evenodd" clip-rule="evenodd" d="M792.218 476.264C792.218 476.264 790.644 433.176 779.338 388.181C774.484 368.875 767.846 349.221 758.779 332.454C749.457 315.208 738.099 295.084 726.86 275.519C701.808 231.913 677.348 191.081 677.348 191.081C677.026 190.545 676.329 190.37 675.794 190.694C675.258 191.014 675.084 191.711 675.405 192.251C675.405 192.251 699.856 233.065 724.894 276.652C736.126 296.2 747.473 316.305 756.788 333.534C765.765 350.143 772.333 369.614 777.137 388.735C788.384 433.49 789.956 476.347 789.956 476.347C789.977 476.973 790.506 477.464 791.13 477.44C791.754 477.417 792.244 476.891 792.218 476.264Z" fill="#E5E5E5"/>
<path fill-rule="evenodd" clip-rule="evenodd" d="M682.807 201.778C682.412 203.758 678.386 201.942 677.37 201.405C671.33 198.219 667.875 192.969 663.875 187.589C652.44 172.201 655.806 144.065 655.806 125.409C655.806 125.297 655.68 127.01 656.099 128.201C656.791 130.167 657.504 132.158 658.301 134.084C661.003 140.614 664.456 146.575 667.835 152.752C672.679 161.601 680.385 169.866 682.798 179.945C684.493 187.019 684.183 194.883 682.807 201.778Z" fill="#E5E5E5"/>
<path fill-rule="evenodd" clip-rule="evenodd" d="M702.894 237.862C702.894 237.862 697.91 222.936 697.759 219.928C697.381 212.318 698.781 205.14 700.987 197.88C701.491 196.219 704.859 188.792 704.508 187.735C704.431 187.504 704.151 188.091 704.068 188.322C703.653 189.465 703.376 190.798 703.188 191.997C702.722 194.953 703.264 197.94 703.92 200.817C705.984 209.861 708.035 220.159 707.002 229.482C706.846 230.89 704.36 237.862 702.894 237.862Z" fill="#E5E5E5"/>
<path fill-rule="evenodd" clip-rule="evenodd" d="M721.525 195.232C721.525 195.232 716.297 177.842 716.104 175.652C714.707 159.9 722.254 145.588 731.059 132.907C733.493 129.399 736.554 126.37 739.567 123.349C740.998 121.917 742.577 120.685 744.115 119.382C744.353 119.18 744.751 118.495 744.847 118.793C745.025 119.325 744.387 120.137 744.26 120.413C742.053 125.327 740.712 130.375 739.861 135.7C737.825 148.459 741.488 163.236 735.901 175.239C734.863 177.47 732.055 180.124 731.352 182.444C729.747 187.768 726.233 190.671 721.525 195.232Z" fill="#E5E5E5"/>
<path fill-rule="evenodd" clip-rule="evenodd" d="M708.341 273.952C708.341 273.952 699.504 274.05 696.17 274.515C678.846 276.935 668.084 289.713 668.084 289.713L666.773 290.276C666.773 290.276 680.346 296.666 698.231 287.462C707.902 282.485 708.341 273.931 708.341 273.952Z" fill="#E5E5E5"/>
<path fill-rule="evenodd" clip-rule="evenodd" d="M678.88 431.785C678.88 431.785 670.225 429.992 666.847 429.835C649.282 429.016 635.364 442.158 635.364 442.158L633.934 442.556C633.934 442.556 645.481 453.225 665.401 445.951C676.173 442.017 678.885 431.758 678.88 431.785Z" fill="#E5E5E5"/>
<path fill-rule="evenodd" clip-rule="evenodd" d="M646.034 358.672C646.034 358.672 638.97 353.348 635.982 351.76C620.448 343.505 602.264 349.434 602.264 349.434L600.801 349.183C600.801 349.183 606.696 363.77 627.809 365.716C639.226 366.767 646.05 358.649 646.034 358.672Z" fill="#E5E5E5"/>
<path fill-rule="evenodd" clip-rule="evenodd" d="M668.651 364.565C668.651 364.565 662.957 365.87 660.901 366.792C650.209 371.586 645.948 385.87 645.948 385.87L645.219 386.615C645.219 386.615 655.344 391.167 664.965 379.493C670.168 373.18 668.647 364.542 668.651 364.565Z" fill="#E5E5E5"/>
<path fill-rule="evenodd" clip-rule="evenodd" d="M678.637 368.166C678.637 368.166 678.457 363.642 678.087 361.943C676.165 353.112 667.029 347.824 667.029 347.824L666.617 347.163C666.617 347.163 662.288 354.225 668.994 363.223C672.623 368.088 678.653 368.165 678.637 368.166Z" fill="#E5E5E5"/>
<path fill-rule="evenodd" clip-rule="evenodd" d="M644.224 359.29C644.761 359.363 645.433 359.488 646.218 359.658C654.446 361.428 674.573 367.907 682.982 372.747C687.065 375.098 692.837 380.995 698.573 387.55C708.871 399.321 718.989 413.239 718.989 413.239C719.356 413.747 720.061 413.857 720.571 413.489C721.076 413.12 721.188 412.41 720.816 411.903C720.816 411.903 710.636 397.897 700.275 386.053C694.343 379.273 688.335 373.21 684.111 370.778C676.786 366.562 660.729 361.108 651.006 358.499C648.341 357.784 646.147 357.282 644.727 357.068C643.714 356.917 643.006 356.936 642.672 357.033C642.225 357.164 641.983 357.426 641.848 357.669C641.72 357.901 641.664 358.16 641.704 358.45C641.741 358.711 641.923 359.186 642.561 359.655C643.064 360.028 643.774 359.919 644.145 359.414C644.174 359.375 644.201 359.332 644.224 359.29Z" fill="#E5E5E5"/>
<path fill-rule="evenodd" clip-rule="evenodd" d="M766.984 178.062C766.984 178.062 769.626 169.609 770.119 166.255C772.677 148.824 761.014 133.64 761.014 133.64L760.761 132.174C760.761 132.174 749.015 142.628 754.259 163.213C757.093 174.346 767.013 178.069 766.984 178.062Z" fill="#E5E5E5"/>
<path fill-rule="evenodd" clip-rule="evenodd" d="M769.019 201.391C769.019 201.391 765.884 196.454 764.331 194.819C756.239 186.33 741.381 187.091 741.381 187.091L740.436 186.651C740.436 186.651 739.55 197.735 753.75 202.909C761.426 205.709 769.038 201.38 769.019 201.391Z" fill="#E5E5E5"/>
<path fill-rule="evenodd" clip-rule="evenodd" d="M768.978 212.024C768.978 212.024 773.169 210.341 774.644 209.422C782.301 204.649 784.215 194.253 784.215 194.253L784.699 193.642C784.699 193.642 776.61 191.919 770.394 201.264C767.034 206.32 768.982 212.038 768.978 212.024Z" fill="#E5E5E5"/>
<path fill-rule="evenodd" clip-rule="evenodd" d="M765.799 176.561C765.911 177.093 766.014 177.767 766.123 178.564C767.211 186.926 767.861 208.103 766.125 217.661C765.282 222.303 761.671 229.73 757.428 237.34C749.808 251.005 740.107 265.219 740.107 265.219C739.753 265.737 739.888 266.444 740.403 266.797C740.92 267.151 741.627 267.018 741.979 266.501C741.979 266.501 751.735 252.197 759.404 238.448C763.793 230.575 767.483 222.869 768.355 218.069C769.867 209.742 769.615 192.752 768.812 182.697C768.593 179.945 768.333 177.704 768.054 176.293C767.861 175.284 767.604 174.621 767.4 174.339C767.128 173.962 766.802 173.821 766.528 173.776C766.268 173.731 766.004 173.764 765.744 173.9C765.509 174.022 765.127 174.353 764.896 175.113C764.718 175.712 765.056 176.346 765.654 176.528C765.702 176.542 765.751 176.554 765.799 176.561Z" fill="#E5E5E5"/>
<path fill-rule="evenodd" clip-rule="evenodd" d="M701.844 427.437C701.844 427.437 697.252 431.054 695.785 432.767C688.158 441.676 690.392 456.416 690.392 456.416L690.049 457.4C690.049 457.4 701.145 457.185 704.872 442.512C706.886 434.579 701.83 427.418 701.844 427.437Z" fill="#E5E5E5"/>
<path fill-rule="evenodd" clip-rule="evenodd" d="M712.406 426.422C712.406 426.422 710.318 422.408 709.258 421.029C703.758 413.866 693.244 412.994 693.244 412.994L692.588 412.572C692.588 412.572 691.683 420.809 701.581 426.077C706.935 428.924 712.421 426.414 712.406 426.422Z" fill="#E5E5E5"/>
<path fill-rule="evenodd" clip-rule="evenodd" d="M676.681 265.725C676.681 265.725 664.108 268.538 661.531 267.574C648.599 262.732 642.532 250.808 637.176 239.179C635.255 235.01 634.331 229.357 634.006 224.794C633.845 222.527 634.006 218.386 634.006 218.789C634.006 226.127 648.557 233.286 653.667 236.24C656.992 238.163 662.235 239.569 664.901 242.431C669.56 247.433 676.681 258.486 676.681 265.725Z" fill="#E5E5E5"/>
<path fill-rule="evenodd" clip-rule="evenodd" d="M718.433 223.603C717.856 222.407 728.802 200.954 734.473 198.341C735.081 198.062 739.827 193.386 740.261 193.386C740.632 193.386 739.651 193.828 739.418 194.112C739.008 194.603 738.734 195.195 738.57 195.806C737.969 198.069 737.817 200.362 737.003 202.57C735.312 207.169 733.09 211.938 729.405 215.262C728.39 216.178 727.059 217.322 725.908 218.04C724.192 219.119 719.718 221.67 718.433 223.603C718.911 222.639 717.823 224.51 718.433 223.603Z" fill="#E5E5E5"/>
<path fill-rule="evenodd" clip-rule="evenodd" d="M720.235 208.625C720.235 208.625 719.128 203.245 719.035 202.935C718.187 200.143 716.906 197.406 715.534 194.837C713.588 191.178 710.485 185.339 708.058 182.267C706.658 180.496 703.113 178.377 703.113 175.742C703.113 175.329 703.508 176.472 703.717 176.828C704.244 177.737 704.697 178.672 705.164 179.61C706.298 181.881 707.359 184.193 708.421 186.498C710.359 190.704 710.968 195.85 713.607 199.67C713.996 200.232 720.235 208.438 720.235 208.625Z" fill="#E5E5E5"/>
<path fill-rule="evenodd" clip-rule="evenodd" d="M726.835 264.585C726.783 264.607 726.742 264.562 726.69 264.528C726.613 264.477 726.535 264.411 726.453 264.332C726.163 264.044 725.884 263.628 725.598 263.112C724.12 260.424 722.76 255.318 721.69 249.519C719.932 239.988 718.985 228.589 719.813 222.746C720.333 219.083 720.805 214.675 721.21 210.348C722.102 200.85 722.662 191.737 722.662 191.737C722.704 191.11 722.228 190.571 721.604 190.534C720.98 190.493 720.44 190.969 720.404 191.594C720.404 191.594 719.842 200.675 718.954 210.136C718.554 214.425 718.085 218.796 717.57 222.426C716.584 229.384 718.004 244.019 720.39 254.435C721.481 259.221 722.805 263.129 724.149 265.081C725.286 266.726 726.582 267.166 727.735 266.669C728.307 266.42 728.574 265.751 728.326 265.177C728.076 264.601 727.411 264.336 726.835 264.585Z" fill="#E5E5E5"/>
<path fill-rule="evenodd" clip-rule="evenodd" d="M728.164 286.031C728.164 286.031 724.404 281.362 718.716 277.341C715.346 274.957 711.299 272.808 706.966 271.948C703.404 271.244 699.073 270.254 694.813 269.232C685.573 267.011 676.669 264.629 676.669 264.629C676.065 264.467 675.444 264.828 675.283 265.433C675.121 266.038 675.48 266.662 676.084 266.823C676.084 266.823 685.015 269.211 694.285 271.439C698.577 272.47 702.94 273.467 706.527 274.176C710.545 274.972 714.286 276.986 717.411 279.195C722.82 283.022 726.402 287.457 726.402 287.457C726.797 287.945 727.509 288.02 727.997 287.628C728.483 287.233 728.557 286.518 728.164 286.031Z" fill="#E5E5E5"/>
<path fill-rule="evenodd" clip-rule="evenodd" d="M677.508 433.119C678.026 432.954 678.687 432.78 679.469 432.598C687.663 430.678 708.625 427.925 718.29 428.705C722.983 429.084 730.718 431.948 738.696 435.421C753.022 441.66 768.103 449.918 768.103 449.918C768.649 450.219 769.341 450.017 769.637 449.467C769.939 448.917 769.739 448.226 769.189 447.925C769.189 447.925 754.015 439.617 739.598 433.34C731.346 429.744 723.329 426.834 718.472 426.442C710.053 425.762 693.209 427.701 683.305 429.502C680.591 429.995 678.392 430.479 677.017 430.893C676.036 431.19 675.404 431.51 675.144 431.74C674.795 432.051 674.688 432.391 674.671 432.669C674.653 432.932 674.713 433.19 674.872 433.437C675.016 433.657 675.383 434.007 676.161 434.16C676.775 434.281 677.37 433.879 677.491 433.264C677.499 433.215 677.507 433.167 677.508 433.119Z" fill="#E5E5E5"/>
<path fill-rule="evenodd" clip-rule="evenodd" d="M813.402 423.417C813.402 423.417 830.793 387.175 857.207 352.937C868.491 338.309 881.424 324.046 895.354 313.147C909.806 301.838 927.088 288.822 944.06 276.239C981.898 248.183 1018.19 222.289 1018.19 222.289C1018.7 221.924 1018.82 221.217 1018.46 220.706C1018.09 220.196 1017.39 220.077 1016.88 220.439C1016.88 220.439 980.567 246.346 942.71 274.414C925.723 287.008 908.428 300.038 893.956 311.358C879.885 322.368 866.815 336.772 855.416 351.548C828.85 385.982 811.361 422.434 811.361 422.434C811.09 422.998 811.328 423.677 811.89 423.949C812.454 424.22 813.13 423.983 813.402 423.417Z" fill="#E5E5E5"/>
<path fill-rule="evenodd" clip-rule="evenodd" d="M1008.22 227.64C1007.82 229.493 1011.96 229.442 1013.04 229.364C1019.42 228.895 1024.35 225.684 1029.81 222.56C1045.4 213.632 1053.04 188.177 1060.02 172.141C1060.06 172.048 1059.53 173.568 1058.72 174.432C1057.39 175.861 1056.03 177.305 1054.63 178.661C1049.86 183.258 1044.66 187.086 1039.45 191.122C1031.97 196.911 1022.25 201.119 1016.4 208.878C1012.3 214.321 1009.62 221.198 1008.22 227.64Z" fill="#E5E5E5"/>
<path fill-rule="evenodd" clip-rule="evenodd" d="M977.45 251.108C977.45 251.108 987.319 240.151 988.574 237.622C991.751 231.223 993.233 224.525 994.055 217.456C994.245 215.84 994.129 208.189 994.824 207.411C994.979 207.243 994.998 207.854 994.984 208.086C994.912 209.224 994.65 210.471 994.362 211.573C993.657 214.291 992.075 216.652 990.432 218.878C985.276 225.878 979.657 233.958 977.052 242.361C976.663 243.63 976.191 250.557 977.45 251.108Z" fill="#E5E5E5"/>
<path fill-rule="evenodd" clip-rule="evenodd" d="M977.389 207.459C977.389 207.459 988.392 194.477 989.38 192.668C996.476 179.655 995.347 164.513 992.522 150.302C991.746 146.375 990.245 142.617 988.788 138.891C988.094 137.122 987.199 135.469 986.363 133.767C986.232 133.507 986.151 132.769 985.953 132.989C985.601 133.38 985.85 134.315 985.853 134.598C985.908 139.654 985.174 144.502 983.914 149.394C980.885 161.129 972.206 172.454 972.515 184.871C972.575 187.179 973.997 190.516 973.73 192.776C973.116 197.955 975.052 201.774 977.389 207.459Z" fill="#E5E5E5"/>
<path fill-rule="evenodd" clip-rule="evenodd" d="M959.255 280.085C959.255 280.085 966.817 283.49 969.506 285.144C983.495 293.736 987.962 308.764 987.962 308.764L988.879 309.741C988.879 309.741 974.82 310.132 962.893 295.497C956.443 287.584 959.267 280.065 959.255 280.085Z" fill="#E5E5E5"/>
<path fill-rule="evenodd" clip-rule="evenodd" d="M925.499 426.832C925.499 426.832 933.61 428.544 936.575 429.678C951.98 435.577 959.023 452.104 959.023 452.104L960.105 452.984C960.105 452.984 946.183 457.815 931.786 444.075C923.998 436.645 925.507 426.806 925.499 426.832Z" fill="#E5E5E5"/>
<path fill-rule="evenodd" clip-rule="evenodd" d="M981.106 376.33C981.106 376.33 989.169 374.407 992.335 374.165C1008.78 372.909 1022.19 384.84 1022.19 384.84L1023.54 385.173C1023.54 385.173 1013.01 395.498 994.136 389.234C983.926 385.847 981.098 376.303 981.106 376.33Z" fill="#E5E5E5"/>
<path fill-rule="evenodd" clip-rule="evenodd" d="M959.455 372.893C959.455 372.893 963.861 376.155 965.285 377.722C972.682 385.861 970.996 399.742 970.996 399.742L971.344 400.655C971.344 400.655 960.938 400.763 957.037 387.111C954.926 379.729 959.466 372.876 959.455 372.893Z" fill="#E5E5E5"/>
<path fill-rule="evenodd" clip-rule="evenodd" d="M949.523 372.236C949.523 372.236 951.374 368.415 952.326 367.093C957.285 360.226 967.116 359.113 967.116 359.113L967.719 358.7C967.719 358.7 968.796 366.398 959.664 371.61C954.722 374.43 949.513 372.23 949.523 372.236Z" fill="#E5E5E5"/>
<path fill-rule="evenodd" clip-rule="evenodd" d="M982.364 377.597C982.369 377.629 982.371 377.661 982.379 377.694C982.521 378.305 983.126 378.688 983.736 378.549C984.49 378.379 984.836 378.023 984.969 377.803C985.122 377.555 985.17 377.296 985.148 377.034C985.122 376.761 985.006 376.426 984.65 376.131C984.398 375.917 983.788 375.629 982.843 375.375C981.543 375.023 979.466 374.63 976.903 374.242C967.566 372.831 951.712 371.483 943.831 372.355C939.288 372.857 931.841 375.812 924.198 379.416C910.853 385.703 896.856 393.917 896.856 393.917C896.318 394.234 896.136 394.93 896.451 395.471C896.768 396.012 897.463 396.193 898.001 395.876C898.001 395.876 911.908 387.716 925.161 381.47C932.536 377.995 939.696 375.097 944.08 374.611C953.117 373.612 972.83 375.607 980.563 377.178C981.276 377.322 981.881 377.462 982.364 377.597Z" fill="#E5E5E5"/>
<path fill-rule="evenodd" clip-rule="evenodd" d="M944.739 175.615C944.739 175.615 945.635 167.358 946.468 164.289C950.791 148.344 966.501 139.676 966.501 139.676L967.27 138.511C967.27 138.511 973.448 151.91 961.24 167.633C954.633 176.136 944.713 175.611 944.739 175.615Z" fill="#E5E5E5"/>
<path fill-rule="evenodd" clip-rule="evenodd" d="M934.257 194.904C934.257 194.904 938.802 191.837 940.752 191.017C950.881 186.759 963.369 192.998 963.369 192.998L964.345 192.976C964.345 192.976 960.961 202.838 946.816 201.949C939.17 201.468 934.247 194.885 934.257 194.904Z" fill="#E5E5E5"/>
<path fill-rule="evenodd" clip-rule="evenodd" d="M930.315 204.06C930.315 204.06 927.339 201.036 926.418 199.692C921.617 192.711 923.865 183.054 923.865 183.054L923.679 182.346C923.679 182.346 931.277 183.907 933.12 194.279C934.12 199.886 930.305 204.071 930.315 204.06Z" fill="#E5E5E5"/>
<path fill-rule="evenodd" clip-rule="evenodd" d="M946.351 174.848C946.384 174.856 946.418 174.864 946.451 174.864C947.072 174.938 947.632 174.494 947.708 173.873C947.801 173.103 947.582 172.659 947.421 172.458C947.235 172.231 947.013 172.098 946.756 172.034C946.489 171.967 946.139 171.962 945.738 172.198C945.455 172.365 944.981 172.845 944.426 173.649C943.657 174.763 942.59 176.59 941.373 178.881C936.914 187.224 930.338 201.744 928.521 209.473C927.469 213.933 927.755 221.954 928.583 230.377C930.026 245.082 933.061 261.05 933.061 261.05C933.18 261.665 933.775 262.069 934.387 261.951C935 261.835 935.405 261.24 935.29 260.624C935.29 260.624 932.27 244.762 930.839 230.155C930.041 222.028 929.713 214.298 930.724 209.995C932.813 201.129 941.29 183.184 945.355 176.408C945.731 175.783 946.065 175.258 946.351 174.848Z" fill="#E5E5E5"/>
<path fill-rule="evenodd" clip-rule="evenodd" d="M907.386 414.461C907.386 414.461 909.98 419.296 910.601 421.321C913.821 431.846 906.383 443.677 906.383 443.677L906.309 444.651C906.309 444.651 896.854 440.296 899.142 426.283C900.379 418.706 907.405 414.451 907.386 414.461Z" fill="#E5E5E5"/>
<path fill-rule="evenodd" clip-rule="evenodd" d="M898.689 409.618C898.689 409.618 901.989 406.954 903.411 406.167C910.821 402.078 920.188 405.279 920.188 405.279L920.907 405.162C920.907 405.162 918.604 412.585 908.123 413.391C902.454 413.827 898.679 409.607 898.689 409.618Z" fill="#E5E5E5"/>
<path fill-rule="evenodd" clip-rule="evenodd" d="M989.55 284.913C989.55 284.913 999.307 292.056 1001.88 292.196C1014.81 292.896 1024.49 284.924 1033.44 276.941C1036.66 274.079 1039.57 269.568 1041.56 265.768C1042.54 263.88 1043.95 260.262 1043.8 260.608C1041.06 266.914 1025.87 267.599 1020.37 268.217C1016.79 268.62 1011.76 267.858 1008.4 269.316C1002.52 271.864 992.263 278.69 989.55 284.913Z" fill="#E5E5E5"/>
<path fill-rule="evenodd" clip-rule="evenodd" d="M969.431 233.01C970.367 232.2 968.988 209.644 965.094 205.27C964.675 204.797 962.35 198.997 961.974 198.833C961.655 198.695 962.331 199.439 962.427 199.775C962.594 200.344 962.61 200.962 962.52 201.547C962.189 203.721 961.465 205.747 961.335 207.95C961.067 212.541 961.193 217.475 963.118 221.715C963.646 222.885 964.363 224.37 965.084 225.42C966.158 226.99 969.048 230.865 969.431 233.01C969.61 234.019 969.374 232.001 969.431 233.01Z" fill="#E5E5E5"/>
<path fill-rule="evenodd" clip-rule="evenodd" d="M973.486 219.455C973.486 219.455 976.451 215.248 976.647 215.017C978.421 212.935 980.548 211.067 982.685 209.372C985.728 206.96 990.58 203.107 993.817 201.379C995.686 200.382 999.528 199.89 1000.51 197.626C1000.67 197.272 999.899 198.107 999.587 198.337C998.796 198.914 998.053 199.551 997.301 200.181C995.477 201.706 993.698 203.296 991.923 204.878C988.686 207.764 986.233 211.96 982.532 214.253C981.991 214.589 973.556 219.298 973.486 219.455Z" fill="#E5E5E5"/>
<path fill-rule="evenodd" clip-rule="evenodd" d="M945.262 266.582C946.083 267.465 947.395 267.588 949.025 266.576C950.916 265.402 953.526 262.533 956.263 258.821C962.215 250.757 968.922 238.699 970.679 232.342C971.594 229.028 972.827 225.1 974.087 221.26C976.865 212.794 979.782 204.782 979.782 204.782C979.999 204.193 979.694 203.539 979.106 203.327C978.52 203.11 977.869 203.415 977.653 204.004C977.653 204.004 974.726 212.05 971.935 220.549C970.665 224.425 969.42 228.391 968.495 231.736C967.247 236.254 963.401 243.727 959.169 250.482C955.639 256.118 951.845 261.257 949.037 263.727C948.368 264.315 947.777 264.742 947.26 264.941C947.172 264.976 947.082 265.004 947.001 265.017C946.967 265.023 946.938 265.055 946.915 265.032C946.488 264.575 945.771 264.55 945.314 264.978C944.857 265.407 944.835 266.125 945.262 266.582Z" fill="#E5E5E5"/>
<path fill-rule="evenodd" clip-rule="evenodd" d="M938.708 284.967C938.708 284.967 943.438 282.504 949.509 281.252C953.017 280.527 956.973 280.203 960.715 281.028C964.066 281.765 968.191 282.549 972.266 283.276C981.069 284.845 989.643 286.148 989.643 286.148C990.26 286.243 990.836 285.817 990.933 285.197C991.026 284.578 990.598 283.999 989.981 283.904C989.981 283.904 981.436 282.606 972.664 281.041C968.617 280.319 964.527 279.543 961.201 278.81C957.144 277.915 952.853 278.244 949.052 279.028C942.647 280.348 937.66 282.953 937.66 282.953C937.107 283.243 936.891 283.929 937.181 284.485C937.467 285.04 938.151 285.257 938.708 284.967Z" fill="#E5E5E5"/>
<path fill-rule="evenodd" clip-rule="evenodd" d="M926.099 428.516C926.09 428.547 926.08 428.579 926.076 428.611C925.939 429.223 926.326 429.829 926.935 429.965C927.688 430.132 928.153 429.959 928.369 429.816C928.61 429.656 928.767 429.445 928.855 429.198C928.948 428.939 928.989 428.589 928.793 428.169C928.655 427.867 928.227 427.345 927.481 426.713C926.455 425.837 924.742 424.592 922.596 423.147C914.748 417.875 900.986 409.873 893.492 407.291C889.167 405.801 881.175 405.289 872.726 405.276C857.983 405.252 841.825 406.692 841.825 406.692C841.204 406.749 840.744 407.3 840.799 407.924C840.851 408.548 841.404 409.01 842.025 408.954C842.025 408.954 858.076 407.524 872.723 407.546C880.874 407.559 888.583 408.001 892.756 409.438C901.349 412.399 918.33 422.639 924.649 427.366C925.233 427.802 925.723 428.189 926.099 428.516Z" fill="#E5E5E5"/>
<path fill-rule="evenodd" clip-rule="evenodd" d="M802.807 12.1806C806.408 7.36673 813.263 1.433 825.357 0.937071C839.588 0.356787 852.089 6.79081 861.712 14.304C868.731 17.4264 875.006 21.6382 880.074 26.791C890.109 36.999 899.417 51.1207 899.168 65.8576C898.726 92.0678 895.041 112.549 885.15 123.213C884.738 126.54 883.233 129.654 880.844 132.048C878.172 134.728 874.601 136.299 870.841 136.466C870.526 138.291 870.114 140.079 869.607 141.831V198.055C901.007 206.375 937.017 220.974 937.397 221.126L937.433 221.026C937.433 221.026 961.841 242.123 961.446 292.695C961.057 343.267 960.488 343.895 960.488 343.895L998.111 300.241L1002.22 304.636C1002.91 304.065 1017.74 291.774 1021.99 289.581C1026.35 287.337 1030.94 284.793 1038.12 287.617C1043.38 289.686 1047.57 290.173 1052.06 290.103C1056.54 290.035 1074.39 288.534 1078.86 292.308C1080.89 294.017 1080.49 299.547 1080.49 299.547L1056.67 300.349C1056.67 300.349 1061.47 309.478 1067.23 308.394C1072.99 307.311 1088.32 307.737 1088.32 307.737C1088.32 307.737 1097.66 293.359 1105.47 297.961L1102.17 304.657C1103.19 303.576 1105.58 300.34 1109.36 303.176C1109.36 303.176 1093.95 318.147 1090.14 321.011C1086.33 323.873 1024.02 321.011 1024.02 321.011L1020.78 324.46L1031.56 335.982C1031.56 335.982 972.34 431.809 944.872 419.982C940.684 418.178 937.04 416.029 933.867 413.683C933.882 413.714 933.892 413.746 933.908 413.776L933.856 413.676L933.818 413.647C934.747 441.225 934.044 466.729 936.316 476.306H746.042C743.062 463.265 744.791 440.017 747.763 406.24C743.181 411.416 736.984 416.385 728.632 419.982C701.166 431.809 641.945 335.982 641.945 335.982L652.704 324.485L649.439 321.011C649.439 321.011 587.131 323.873 583.321 321.011C579.51 318.147 564.099 303.176 564.099 303.176C567.881 300.34 570.272 303.576 571.296 304.657L567.987 297.961C575.801 293.359 585.144 307.737 585.144 307.737C585.144 307.737 600.47 307.311 606.229 308.394C611.986 309.478 616.793 300.349 616.793 300.349L592.975 299.547C592.975 299.547 592.569 294.017 594.598 292.308C599.075 288.534 616.92 290.035 621.406 290.103C625.89 290.173 630.08 289.686 635.339 287.617C642.516 284.793 647.109 287.337 651.468 289.581C655.826 291.826 671.261 304.657 671.261 304.657L675.395 300.241L713.017 343.895C713.017 343.895 712.451 343.267 712.057 292.695C711.667 242.123 736.07 221.026 736.07 221.026L736.103 221.112L736.112 221.107C737.832 220.412 739.556 219.734 741.283 219.064C743.717 218.114 746.158 217.176 748.602 216.253C754.663 213.964 760.756 211.749 766.872 209.608C772.946 207.485 779.047 205.441 785.185 203.508C791.342 201.565 797.532 199.733 803.767 198.076L803.855 198.055V175.983C783.856 169.055 769.492 150.019 769.492 127.624V99.5969C766.958 93.1105 764.746 85.7123 763.688 77.9126C761.749 76.7521 759.756 74.6476 758.791 70.846C756.564 62.1083 763.531 57.1228 763.531 57.1228C763.531 57.1228 741.729 44.755 755.19 22.8773C765.055 6.84171 793.645 10.5285 802.807 12.1806Z" fill="white"/>
<path fill-rule="evenodd" clip-rule="evenodd" d="M866.908 131.31C890.88 130.458 898.523 104.328 899.17 65.8573C899.418 51.1205 890.111 36.9988 880.076 26.7907C857.538 3.86299 811.083 -0.406964 781.386 26.7907C739.605 65.0531 782.203 123.654 782.203 123.654L866.908 131.31Z" fill="#FFB202"/>
<path fill-rule="evenodd" clip-rule="evenodd" d="M917.407 331.72H753.882C748.699 407.487 741.23 455.228 746.042 476.306H936.315C931.452 455.798 940.224 362.269 917.407 331.72Z" fill="#13B3FD"/>
<path fill-rule="evenodd" clip-rule="evenodd" d="M671.261 304.657C671.261 304.657 655.826 291.826 651.468 289.581C647.109 287.337 642.516 284.793 635.339 287.618C630.081 289.686 625.89 290.173 621.406 290.103C616.92 290.035 599.075 288.534 594.598 292.308C592.569 294.017 592.975 299.548 592.975 299.548L616.793 300.349C616.793 300.349 611.986 309.478 606.229 308.394C600.47 307.311 585.144 307.737 585.144 307.737C585.144 307.737 575.801 293.359 567.987 297.961L571.296 304.657C570.272 303.576 567.881 300.34 564.099 303.176C564.099 303.176 579.51 318.147 583.321 321.011C587.131 323.873 649.439 321.011 649.439 321.011L652.704 324.485C668.579 327.215 676.367 322.152 671.261 304.657Z" fill="#FFC5A5"/>
<path fill-rule="evenodd" clip-rule="evenodd" d="M1002.2 304.657C1002.2 304.657 1017.63 291.826 1021.99 289.581C1026.35 287.337 1030.94 284.793 1038.12 287.618C1043.38 289.686 1047.57 290.173 1052.06 290.103C1056.54 290.035 1074.39 288.534 1078.86 292.308C1080.89 294.017 1080.49 299.548 1080.49 299.548L1056.67 300.349C1056.67 300.349 1061.47 309.478 1067.23 308.394C1072.99 307.311 1088.32 307.737 1088.32 307.737C1088.32 307.737 1097.66 293.359 1105.47 297.961L1102.17 304.657C1103.19 303.576 1105.58 300.34 1109.36 303.176C1109.36 303.176 1093.95 318.147 1090.14 321.011C1086.33 323.873 1024.02 321.011 1024.02 321.011L1020.76 324.485C1004.69 329.638 997.519 324.199 1002.2 304.657Z" fill="#FFC5A5"/>
<path fill-rule="evenodd" clip-rule="evenodd" d="M736.071 221.026C736.071 221.026 711.668 242.123 712.059 292.695C712.452 343.266 713.018 343.895 713.018 343.895L675.396 300.241L641.947 335.982C641.947 335.982 701.168 431.808 728.633 419.982C756.099 408.153 760.279 381.476 760.279 381.476C761.252 328.614 755.656 275.302 736.071 221.026Z" fill="#13B3FD"/>
<path fill-rule="evenodd" clip-rule="evenodd" d="M937.433 221.026C937.433 221.026 961.84 242.123 961.445 292.695C961.056 343.266 960.488 343.895 960.488 343.895L998.111 300.241L1031.56 335.982C1031.56 335.982 972.339 431.808 944.871 419.982C917.407 408.153 913.227 381.476 913.227 381.476C912.258 328.614 917.853 275.302 937.433 221.026Z" fill="#13B3FD"/>
<path fill-rule="evenodd" clip-rule="evenodd" d="M937.401 221.131C937.401 221.131 866.641 192.399 836.731 192.399C806.825 192.399 736.061 221.131 736.061 221.131C736.061 221.131 753.617 356.209 753.617 395.241C753.617 407.347 763.243 417.161 775.121 417.161C813.822 417.161 861.453 417.161 900.154 417.161C912.029 417.161 921.658 407.347 921.658 395.241C921.658 356.209 937.401 221.131 937.401 221.131Z" fill="#13B3FD"/>
<path fill-rule="evenodd" clip-rule="evenodd" d="M747.326 406.728C749.21 403.033 750.035 396.506 750.161 388.978C750.206 386.48 750.168 383.872 750.061 381.224C749.908 377.374 749.606 373.441 749.251 369.63C747.961 355.703 745.847 343.396 745.743 342.785C745.676 342.22 744.338 330.687 742.649 316.895C741.611 308.444 740.437 299.148 739.393 290.999C739.16 289.158 738.936 287.375 738.702 285.675C738.531 284.447 738.357 283.265 738.181 282.133C736.974 274.249 736.061 268.871 736.061 268.871C736.061 268.871 736.443 274.316 737.123 282.264C737.219 283.406 737.324 284.597 737.45 285.83C737.621 287.538 737.826 289.324 738.03 291.169C738.933 299.334 739.977 308.647 740.958 317.104C742.599 331.261 744.042 343.021 744.042 343.021C744.042 343.037 744.045 343.054 744.049 343.07C744.049 343.07 746.286 355.579 747.784 369.781C748.155 373.313 748.477 376.951 748.73 380.525C748.901 382.964 749.035 385.374 749.125 387.703C749.425 395.702 749.087 402.746 747.326 406.728Z" fill="#1C9CD8"/>
<path fill-rule="evenodd" clip-rule="evenodd" d="M933.909 413.776C931.885 409.202 930.187 403.428 928.774 397.055C927.96 393.392 927.248 389.532 926.641 385.582C925.148 375.892 924.326 365.665 924.55 356.534C924.687 349.945 925.033 343.118 925.483 336.335C925.779 331.805 926.129 327.293 926.497 322.884C927.436 311.704 928.565 301.182 929.565 292.679C929.696 291.572 929.83 290.498 929.941 289.462C930.13 287.744 930.29 286.128 930.442 284.626C931.2 277.129 931.702 272.529 931.702 272.529C931.702 272.529 930.792 276.927 929.547 284.158C929.28 285.702 928.994 287.372 928.727 289.16C927.682 296.13 926.619 304.834 925.624 314.318C924.918 321.05 924.275 328.179 923.788 335.371C923.309 342.461 923.001 349.612 922.885 356.502C922.766 365.723 923.606 376.059 925.326 385.807C926.028 389.772 926.876 393.638 927.856 397.29C929.551 403.622 931.631 409.3 933.909 413.776Z" fill="#1C9CD8"/>
<path fill-rule="evenodd" clip-rule="evenodd" d="M960.719 344.244C959.462 344.436 958.054 344.742 956.542 345.228C955.67 345.51 954.77 345.848 953.856 346.246C952.288 346.928 950.683 347.784 949.075 348.745C947.558 349.649 946.046 350.665 944.593 351.779C943.256 352.805 941.959 353.914 940.759 355.102C938.913 356.93 937.271 358.934 935.962 361.062C935.773 361.374 935.58 361.689 935.413 362.013C935.245 362.343 935.093 362.677 934.956 363.019C934.535 364.059 934.23 365.102 933.997 366.172C934.48 365.215 935.056 364.324 935.676 363.419C935.873 363.127 936.078 362.842 936.278 362.548C936.476 362.259 936.664 361.962 936.865 361.671C938.233 359.693 939.889 357.842 941.711 356.121C942.895 354.996 944.148 353.922 945.441 352.916C946.849 351.818 948.294 350.798 949.743 349.869C951.285 348.88 952.834 348.012 954.31 347.225C955.175 346.765 956.011 346.334 956.818 345.937C958.229 345.241 959.526 344.652 960.719 344.244Z" fill="#1C9CD8"/>
<path fill-rule="evenodd" clip-rule="evenodd" d="M712.954 344.085C714.135 344.087 715.357 344.22 716.64 344.41C717.427 344.526 718.227 344.67 719.044 344.833C720.497 345.122 721.983 345.486 723.45 345.976C724.881 346.451 726.292 347.032 727.652 347.709C728.923 348.342 730.145 349.063 731.297 349.866C733.062 351.095 734.649 352.52 735.937 354.171C736.123 354.411 736.302 354.658 736.485 354.9C736.67 355.144 736.859 355.381 737.045 355.627C737.614 356.38 738.133 357.134 738.583 357.98C738.386 357.014 738.126 356.101 737.752 355.205C737.624 354.906 737.488 354.615 737.328 354.33C737.171 354.046 736.99 353.778 736.807 353.511C735.547 351.675 733.932 350.068 732.088 348.714C730.895 347.839 729.607 347.078 728.261 346.425C726.832 345.73 725.338 345.16 723.829 344.718C722.288 344.266 720.73 343.93 719.199 343.761C718.565 343.69 717.936 343.647 717.317 343.643C715.774 343.631 714.314 343.809 712.954 344.085Z" fill="#1C9CD8"/>
<path fill-rule="evenodd" clip-rule="evenodd" d="M869.608 104.566H803.856V198.226H869.608V104.566Z" fill="#FFCBAE"/>
<path fill-rule="evenodd" clip-rule="evenodd" d="M869.608 198.227L836.731 175.798L803.856 198.227C803.856 198.227 803.856 198.606 803.856 199.287C803.856 207.385 807.066 215.155 812.78 220.881C818.494 226.609 826.249 229.827 834.334 229.827C835.928 229.827 837.533 229.827 839.131 229.827C847.212 229.827 854.965 226.609 860.681 220.881C866.399 215.155 869.608 207.385 869.608 199.287C869.608 198.606 869.608 198.227 869.608 198.227Z" fill="#FFCBAE"/>
<path fill-rule="evenodd" clip-rule="evenodd" d="M885.268 115.33C885.268 106.972 878.502 100.192 870.157 100.192C861.812 100.192 855.05 106.972 855.05 115.33C855.05 117.318 855.05 119.356 855.05 121.344C855.05 129.705 861.812 136.485 870.157 136.485C878.502 136.485 885.268 129.705 885.268 121.344C885.268 119.356 885.268 117.318 885.268 115.33Z" fill="#FFCBAE"/>
<path fill-rule="evenodd" clip-rule="evenodd" d="M871.605 69.4731C871.605 59.316 867.577 49.5806 860.413 42.3976C853.246 35.216 843.527 31.1846 833.395 31.1846C824.997 31.1846 816.099 31.1846 807.703 31.1846C797.571 31.1846 787.851 35.216 780.683 42.3976C773.521 49.5806 769.493 59.316 769.493 69.4731C769.493 91.3275 769.493 118.637 769.493 140.495C769.493 150.647 773.521 160.387 780.683 167.566C787.851 174.747 797.571 178.78 807.703 178.78C816.099 178.78 824.997 178.78 833.395 178.78C843.527 178.78 853.246 174.747 860.413 167.566C867.577 160.387 871.605 150.647 871.605 140.495C871.605 118.637 871.605 91.3275 871.605 69.4731Z" fill="#FFCBAE"/>
<path fill-rule="evenodd" clip-rule="evenodd" d="M768.941 90.7575C772.133 92.0795 773.652 46.6981 787.638 50.6452C790.606 51.4829 793.44 60.1493 820.548 66.2256C844.046 71.4903 859.167 62.8864 859.167 62.8864C867.077 61.6139 853.163 89.3017 866.389 93.2153C870.264 94.3614 866.051 112.392 871.603 102.836C877.15 93.275 882.07 68.2064 882.07 68.2064C882.07 68.2064 860.175 17.6432 836.73 20.7744C829.02 21.8012 806.241 21.4405 799.43 23.1305C785.527 26.586 779.797 41.24 776.134 42.8005C770.263 45.2947 767.726 71.1587 768.941 90.7575Z" fill="#FFB202"/>
<path fill-rule="evenodd" clip-rule="evenodd" d="M873.458 109.556C877.596 109.321 879.725 113.554 879.829 117.821C879.851 118.629 879.799 119.444 879.681 120.237C879.182 123.502 877.414 126.433 874.018 126.988C873.761 127.025 873.584 127.263 873.617 127.523C873.654 127.781 873.887 127.963 874.141 127.929C878.102 127.487 880.413 124.247 881.104 120.487C881.268 119.602 881.33 118.685 881.304 117.776C881.151 112.731 878.272 107.941 873.375 108.316C873.041 108.339 872.784 108.636 872.808 108.975C872.829 109.318 873.12 109.578 873.458 109.556Z" fill="#FF816E"/>
<path fill-rule="evenodd" clip-rule="evenodd" d="M803.856 176.845C823.076 177.764 838.336 173.255 847.487 164.762C847.487 164.762 838.481 185.425 803.856 183.42V176.845Z" fill="#FF816E"/>
<path fill-rule="evenodd" clip-rule="evenodd" d="M786.465 96.908C788.237 96.908 789.675 99.3803 789.675 102.418C789.675 105.461 788.237 107.929 786.465 107.929C784.693 107.929 783.254 105.461 783.254 102.418C783.254 99.3803 784.693 96.908 786.465 96.908Z" fill="#38312E"/>
<path fill-rule="evenodd" clip-rule="evenodd" d="M829.116 96.908C830.885 96.908 832.326 99.3803 832.326 102.418C832.326 105.461 830.885 107.929 829.116 107.929C827.344 107.929 825.907 105.461 825.907 102.418C825.907 99.3803 827.344 96.908 829.116 96.908Z" fill="#38312E"/>
<path fill-rule="evenodd" clip-rule="evenodd" d="M789.563 82.4113C783.685 81.7481 778.505 82.2804 773.872 83.7435C774.366 77.9173 788.172 76.3946 789.563 82.4113Z" fill="#38312E"/>
<path fill-rule="evenodd" clip-rule="evenodd" d="M831.137 75.173C825.221 75.0319 820.108 76.0223 815.616 77.8868C815.616 72.0389 829.237 69.3018 831.137 75.173Z" fill="#38312E"/>
<path fill-rule="evenodd" clip-rule="evenodd" d="M802.67 98.0072C802.67 98.0072 802.37 100.051 801.767 102.824C801.455 104.268 801.069 105.914 800.586 107.568C800.248 108.74 799.866 109.917 799.435 111.034C798.985 112.215 798.476 113.32 797.916 114.277C796.792 116.201 795.381 118.234 794.296 120.11C793.312 121.812 792.583 123.402 792.469 124.652C792.293 126.582 793.229 128.026 796.518 128.003C798.778 127.91 800.474 127.807 801.753 127.683C804.439 127.423 805.211 127.158 805.211 127.158C805.211 127.158 804.592 127.237 802.608 127.151C801.701 127.11 800.519 127.032 798.971 126.909C798.242 126.853 797.442 126.793 796.551 126.716C796.042 126.678 795.615 126.597 795.255 126.496C794.267 126.217 793.95 125.64 794.051 124.831C794.184 123.752 794.842 122.408 795.678 120.929C796.741 119.043 798.082 116.962 799.159 115.014C799.621 114.169 800.04 113.223 800.419 112.222C800.931 110.848 801.374 109.366 801.746 107.891C802.165 106.189 802.5 104.504 802.746 103.017C803.217 100.181 803.384 98.0916 803.384 98.0916C803.41 97.8909 803.27 97.7091 803.072 97.6858C802.872 97.664 802.693 97.8051 802.67 98.0072Z" fill="#FF816E"/>
<path fill-rule="evenodd" clip-rule="evenodd" d="M802.749 143.28C805.271 141.817 807.929 140.916 810.696 140.435C811.249 140.339 811.807 140.256 812.373 140.186C814.564 139.903 816.831 139.84 819.187 140.074C819.439 140.112 819.673 139.929 819.711 139.668C819.744 139.411 819.566 139.17 819.313 139.136C816.882 138.704 814.516 138.53 812.223 138.719C811.625 138.767 811.03 138.85 810.444 138.953C807.519 139.482 804.752 140.58 802.129 142.208C801.839 142.382 801.742 142.762 801.913 143.06C802.084 143.354 802.459 143.454 802.749 143.28Z" fill="#FF816E"/>
<path fill-rule="evenodd" clip-rule="evenodd" d="M799.359 18.3878C799.359 18.3878 804.769 1.77918 825.357 0.937114C858.357 -0.409609 882.07 35.9795 882.07 35.9795C882.07 35.9795 793.626 38.5639 799.359 18.3878Z" fill="#FFB202"/>
<path fill-rule="evenodd" clip-rule="evenodd" d="M805.672 12.7551C805.672 12.7551 767.005 3.67415 755.19 22.8773C741.728 44.755 763.531 57.1228 763.531 57.1228C763.531 57.1228 756.564 62.1083 758.79 70.846C761.012 79.5851 768.644 79.3495 768.644 79.3495C768.644 79.3495 774.414 50.6975 778.204 45.901C781.993 41.1061 795.93 30.3207 801.328 31.1845C806.73 32.0484 817.283 16.724 805.672 12.7551Z" fill="#FFB202"/>
<path d="M97 278V248H12V218L92.25 103H134.5V215.5H156.25V248H134.5V278H97ZM51.75 215.5H99.5V144.25L51.75 215.5ZM254.521 281C238.355 281 224.521 277.167 213.021 269.5C201.521 261.833 192.605 251.25 186.271 237.75C180.105 224.083 177.021 208.333 177.021 190.5C177.021 172.667 180.105 157 186.271 143.5C192.605 129.833 201.521 119.167 213.021 111.5C224.521 103.833 238.355 100 254.521 100C270.688 100 284.521 103.833 296.021 111.5C307.521 119.167 316.355 129.833 322.521 143.5C328.855 157 332.021 172.667 332.021 190.5C332.021 208.333 328.855 224.083 322.521 237.75C316.355 251.25 307.521 261.833 296.021 269.5C284.521 277.167 270.688 281 254.521 281ZM254.521 247.25C262.355 247.25 269.188 244.917 275.021 240.25C281.021 235.583 285.605 229.083 288.771 220.75C292.105 212.25 293.771 202.167 293.771 190.5C293.771 178.833 292.105 168.833 288.771 160.5C285.605 152 281.021 145.5 275.021 141C269.188 136.333 262.355 134 254.521 134C246.688 134 239.771 136.333 233.771 141C227.938 145.5 223.355 152 220.021 160.5C216.855 168.833 215.271 178.833 215.271 190.5C215.271 202.167 216.855 212.25 220.021 220.75C223.355 229.083 227.938 235.583 233.771 240.25C239.771 244.917 246.688 247.25 254.521 247.25ZM440.262 278V248H355.262V218L435.512 103H477.762V215.5H499.512V248H477.762V278H440.262ZM395.012 215.5H442.762V144.25L395.012 215.5Z" fill="#13B3FD"/>
<path d="M25.416 364V319.2H42.184C45.8107 319.2 48.8187 319.819 51.208 321.056C53.5973 322.293 55.368 323.957 56.52 326.048C57.672 328.139 58.248 330.528 58.248 333.216C58.248 335.691 57.6933 337.973 56.584 340.064C55.4747 342.155 53.7253 343.861 51.336 345.184C48.9467 346.464 45.896 347.104 42.184 347.104H34.056V364H25.416ZM34.056 340.128H41.672C44.4453 340.128 46.4293 339.509 47.624 338.272C48.8613 336.992 49.48 335.307 49.48 333.216C49.48 330.997 48.8613 329.291 47.624 328.096C46.4293 326.859 44.4453 326.24 41.672 326.24H34.056V340.128ZM73.2915 364.768C70.6035 364.768 68.3848 364.341 66.6355 363.488C64.8862 362.592 63.5848 361.419 62.7315 359.968C61.9208 358.475 61.5155 356.832 61.5155 355.04C61.5155 353.077 62.0062 351.349 62.9875 349.856C64.0115 348.363 65.5262 347.189 67.5315 346.336C69.5795 345.483 72.1395 345.056 75.2115 345.056H83.2115C83.2115 343.477 82.9982 342.176 82.5715 341.152C82.1448 340.085 81.4835 339.296 80.5875 338.784C79.6915 338.272 78.4968 338.016 77.0035 338.016C75.3822 338.016 73.9955 338.379 72.8435 339.104C71.7342 339.787 71.0515 340.853 70.7955 342.304H62.4115C62.6248 340 63.3715 338.016 64.6515 336.352C65.9742 334.645 67.7022 333.323 69.8355 332.384C72.0115 331.445 74.4222 330.976 77.0675 330.976C80.0968 330.976 82.7208 331.488 84.9395 332.512C87.1582 333.536 88.8648 335.008 90.0595 336.928C91.2542 338.848 91.8515 341.216 91.8515 344.032V364H84.5555L83.5955 359.072C83.1262 359.925 82.5715 360.693 81.9315 361.376C81.2915 362.059 80.5448 362.656 79.6915 363.168C78.8382 363.68 77.8782 364.064 76.8115 364.32C75.7448 364.619 74.5715 364.768 73.2915 364.768ZM75.3395 358.112C76.4488 358.112 77.4302 357.92 78.2835 357.536C79.1795 357.109 79.9475 356.555 80.5875 355.872C81.2275 355.147 81.7182 354.336 82.0595 353.44C82.4435 352.501 82.6995 351.499 82.8275 350.432V350.368H76.2355C74.9128 350.368 73.8248 350.539 72.9715 350.88C72.1608 351.179 71.5635 351.627 71.1795 352.224C70.7955 352.821 70.6035 353.504 70.6035 354.272C70.6035 355.125 70.7955 355.829 71.1795 356.384C71.5635 356.939 72.1182 357.365 72.8435 357.664C73.5688 357.963 74.4008 358.112 75.3395 358.112ZM113.8 378.848C110.728 378.848 108.04 378.464 105.736 377.696C103.432 376.971 101.64 375.84 100.36 374.304C99.1222 372.811 98.5035 370.955 98.5035 368.736C98.5035 367.243 98.8875 365.835 99.6555 364.512C100.424 363.189 101.533 361.995 102.984 360.928C104.477 359.819 106.333 358.88 108.552 358.112L111.816 362.336C109.853 362.976 108.424 363.765 107.528 364.704C106.674 365.685 106.248 366.731 106.248 367.84C106.248 368.821 106.568 369.653 107.208 370.336C107.89 371.019 108.786 371.509 109.896 371.808C111.048 372.149 112.328 372.32 113.736 372.32C115.101 372.32 116.274 372.149 117.256 371.808C118.28 371.467 119.069 370.955 119.624 370.272C120.221 369.632 120.52 368.864 120.52 367.968C120.52 366.816 120.114 365.877 119.304 365.152C118.493 364.427 116.872 363.979 114.44 363.808C112.264 363.637 110.322 363.403 108.616 363.104C106.952 362.763 105.48 362.379 104.2 361.952C102.92 361.483 101.832 360.971 100.936 360.416C100.082 359.861 99.3782 359.307 98.8235 358.752V357.28L105.672 349.92L111.88 351.904L103.816 359.84L106.248 355.616C106.717 355.872 107.165 356.128 107.592 356.384C108.061 356.597 108.637 356.811 109.32 357.024C110.002 357.195 110.898 357.365 112.008 357.536C113.117 357.707 114.525 357.856 116.232 357.984C119.048 358.24 121.352 358.773 123.144 359.584C124.978 360.395 126.322 361.483 127.176 362.848C128.029 364.171 128.456 365.813 128.456 367.776C128.456 369.696 127.922 371.488 126.856 373.152C125.832 374.859 124.232 376.224 122.056 377.248C119.88 378.315 117.128 378.848 113.8 378.848ZM113.8 354.464C111.112 354.464 108.786 353.952 106.824 352.928C104.904 351.861 103.41 350.453 102.344 348.704C101.32 346.912 100.808 344.928 100.808 342.752C100.808 340.576 101.32 338.613 102.344 336.864C103.41 335.072 104.904 333.643 106.824 332.576C108.786 331.509 111.112 330.976 113.8 330.976C116.53 330.976 118.856 331.509 120.776 332.576C122.738 333.643 124.232 335.072 125.256 336.864C126.28 338.613 126.792 340.576 126.792 342.752C126.792 344.928 126.28 346.912 125.256 348.704C124.232 350.453 122.738 351.861 120.776 352.928C118.856 353.952 116.53 354.464 113.8 354.464ZM113.8 347.872C115.464 347.872 116.808 347.445 117.832 346.592C118.856 345.739 119.368 344.48 119.368 342.816C119.368 341.152 118.856 339.893 117.832 339.04C116.808 338.144 115.464 337.696 113.8 337.696C112.178 337.696 110.834 338.144 109.768 339.04C108.744 339.893 108.232 341.152 108.232 342.816C108.232 344.48 108.744 345.739 109.768 346.592C110.834 347.445 112.178 347.872 113.8 347.872ZM119.176 337.888L117.768 331.744H131.016V336.864L119.176 337.888ZM152.275 364.768C149.032 364.768 146.152 364.085 143.635 362.72C141.16 361.312 139.219 359.371 137.811 356.896C136.445 354.379 135.763 351.477 135.763 348.192C135.763 344.821 136.445 341.856 137.811 339.296C139.219 336.693 141.16 334.667 143.635 333.216C146.109 331.723 148.989 330.976 152.275 330.976C155.475 330.976 158.269 331.68 160.659 333.088C163.048 334.496 164.904 336.395 166.227 338.784C167.549 341.173 168.211 343.883 168.211 346.912C168.211 347.339 168.211 347.829 168.211 348.384C168.211 348.896 168.168 349.429 168.083 349.984H141.907V344.736H159.507C159.379 342.645 158.632 341.003 157.267 339.808C155.944 338.613 154.28 338.016 152.275 338.016C150.824 338.016 149.48 338.357 148.243 339.04C147.005 339.68 146.024 340.683 145.299 342.048C144.616 343.413 144.275 345.141 144.275 347.232V349.088C144.275 350.837 144.595 352.373 145.235 353.696C145.917 354.976 146.856 355.979 148.051 356.704C149.245 357.387 150.632 357.728 152.211 357.728C153.789 357.728 155.091 357.387 156.115 356.704C157.181 356.021 157.971 355.147 158.483 354.08H167.315C166.717 356.085 165.715 357.899 164.307 359.52C162.899 361.141 161.171 362.421 159.123 363.36C157.075 364.299 154.792 364.768 152.275 364.768ZM190.349 364V331.744H197.965L198.605 336.992C199.586 335.2 200.973 333.749 202.765 332.64C204.6 331.531 206.776 330.976 209.293 330.976C211.981 330.976 214.242 331.531 216.077 332.64C217.912 333.749 219.298 335.371 220.237 337.504C221.218 339.637 221.709 342.261 221.709 345.376V364H213.133V346.208C213.133 343.648 212.578 341.685 211.469 340.32C210.402 338.955 208.738 338.272 206.477 338.272C205.026 338.272 203.725 338.613 202.573 339.296C201.464 339.979 200.589 340.96 199.949 342.24C199.309 343.477 198.989 344.992 198.989 346.784V364H190.349ZM245.081 364.768C242.009 364.768 239.236 364.064 236.761 362.656C234.329 361.205 232.388 359.221 230.937 356.704C229.529 354.144 228.825 351.221 228.825 347.936C228.825 344.565 229.529 341.621 230.937 339.104C232.388 336.544 234.35 334.56 236.825 333.152C239.3 331.701 242.073 330.976 245.145 330.976C248.26 330.976 251.033 331.701 253.465 333.152C255.94 334.56 257.881 336.544 259.289 339.104C260.74 341.621 261.465 344.544 261.465 347.872C261.465 351.2 260.74 354.144 259.289 356.704C257.881 359.221 255.94 361.205 253.465 362.656C250.99 364.064 248.196 364.768 245.081 364.768ZM245.081 357.28C246.532 357.28 247.812 356.939 248.921 356.256C250.073 355.573 250.969 354.528 251.609 353.12C252.292 351.712 252.633 349.963 252.633 347.872C252.633 345.781 252.292 344.053 251.609 342.688C250.969 341.28 250.073 340.235 248.921 339.552C247.812 338.827 246.553 338.464 245.145 338.464C243.78 338.464 242.521 338.827 241.369 339.552C240.217 340.235 239.3 341.28 238.617 342.688C237.977 344.053 237.657 345.781 237.657 347.872C237.657 349.963 237.977 351.712 238.617 353.12C239.3 354.528 240.196 355.573 241.305 356.256C242.457 356.939 243.716 357.28 245.081 357.28ZM282.19 364C279.928 364 277.944 363.659 276.238 362.976C274.574 362.251 273.272 361.077 272.334 359.456C271.395 357.792 270.926 355.531 270.926 352.672V338.976H265.422V331.744H270.926L271.885 322.976H279.566V331.744H288.078V338.976H279.566V352.8C279.566 354.251 279.886 355.253 280.526 355.808C281.166 356.363 282.254 356.64 283.79 356.64H288.014V364H282.19ZM311.884 364V328.864C311.884 326.176 312.332 324.043 313.228 322.464C314.124 320.885 315.404 319.733 317.068 319.008C318.774 318.283 320.758 317.92 323.02 317.92H326.988V325.28H324.3C322.934 325.28 321.953 325.557 321.356 326.112C320.801 326.624 320.524 327.541 320.524 328.864V364H311.884ZM307.468 338.976V331.744H327.5V338.976H307.468ZM348.144 364.768C345.072 364.768 342.298 364.064 339.824 362.656C337.392 361.205 335.45 359.221 334 356.704C332.592 354.144 331.888 351.221 331.888 347.936C331.888 344.565 332.592 341.621 334 339.104C335.45 336.544 337.413 334.56 339.888 333.152C342.362 331.701 345.136 330.976 348.208 330.976C351.322 330.976 354.096 331.701 356.528 333.152C359.002 334.56 360.944 336.544 362.352 339.104C363.802 341.621 364.528 344.544 364.528 347.872C364.528 351.2 363.802 354.144 362.352 356.704C360.944 359.221 359.002 361.205 356.528 362.656C354.053 364.064 351.258 364.768 348.144 364.768ZM348.144 357.28C349.594 357.28 350.874 356.939 351.984 356.256C353.136 355.573 354.032 354.528 354.672 353.12C355.354 351.712 355.696 349.963 355.696 347.872C355.696 345.781 355.354 344.053 354.672 342.688C354.032 341.28 353.136 340.235 351.984 339.552C350.874 338.827 349.616 338.464 348.208 338.464C346.842 338.464 345.584 338.827 344.432 339.552C343.28 340.235 342.362 341.28 341.68 342.688C341.04 344.053 340.72 345.781 340.72 347.872C340.72 349.963 341.04 351.712 341.68 353.12C342.362 354.528 343.258 355.573 344.368 356.256C345.52 356.939 346.778 357.28 348.144 357.28ZM384.006 364.768C381.403 364.768 379.163 364.235 377.286 363.168C375.451 362.059 374.043 360.459 373.062 358.368C372.081 356.235 371.59 353.611 371.59 350.496V331.744H380.23V349.6C380.23 352.203 380.763 354.165 381.83 355.488C382.939 356.811 384.625 357.472 386.886 357.472C388.337 357.472 389.617 357.152 390.726 356.512C391.835 355.829 392.71 354.869 393.35 353.632C394.033 352.352 394.374 350.795 394.374 348.96V331.744H402.95V364H395.398L394.694 358.752C393.755 360.587 392.369 362.059 390.534 363.168C388.699 364.235 386.523 364.768 384.006 364.768ZM411.411 364V331.744H419.028L419.668 336.992C420.649 335.2 422.036 333.749 423.828 332.64C425.662 331.531 427.838 330.976 430.356 330.976C433.044 330.976 435.305 331.531 437.14 332.64C438.974 333.749 440.361 335.371 441.3 337.504C442.281 339.637 442.772 342.261 442.772 345.376V364H434.196V346.208C434.196 343.648 433.641 341.685 432.532 340.32C431.465 338.955 429.801 338.272 427.54 338.272C426.089 338.272 424.788 338.613 423.635 339.296C422.526 339.979 421.652 340.96 421.012 342.24C420.372 343.477 420.052 344.992 420.052 346.784V364H411.411ZM465.248 364.768C462.304 364.768 459.658 364.043 457.312 362.592C455.008 361.141 453.194 359.136 451.872 356.576C450.549 354.016 449.888 351.136 449.888 347.936C449.888 344.651 450.549 341.749 451.872 339.232C453.237 336.672 455.093 334.667 457.44 333.216C459.829 331.723 462.496 330.976 465.44 330.976C467.744 330.976 469.77 331.403 471.52 332.256C473.269 333.109 474.677 334.325 475.744 335.904V317.92H484.384V364H476.704L475.744 359.584C475.104 360.48 474.293 361.333 473.312 362.144C472.373 362.955 471.242 363.595 469.92 364.064C468.597 364.533 467.04 364.768 465.248 364.768ZM467.296 357.216C469.002 357.216 470.496 356.832 471.776 356.064C473.098 355.253 474.122 354.144 474.848 352.736C475.573 351.328 475.936 349.707 475.936 347.872C475.936 346.037 475.573 344.416 474.848 343.008C474.122 341.6 473.098 340.512 471.776 339.744C470.496 338.933 469.002 338.528 467.296 338.528C465.674 338.528 464.202 338.933 462.88 339.744C461.557 340.512 460.512 341.6 459.744 343.008C459.018 344.416 458.656 346.016 458.656 347.808C458.656 349.685 459.018 351.328 459.744 352.736C460.512 354.144 461.536 355.253 462.816 356.064C464.138 356.832 465.632 357.216 467.296 357.216Z" fill="#888893"/>
</svg>
