<svg width="501" height="189" viewBox="0 0 501 189" fill="none" xmlns="http://www.w3.org/2000/svg">
<path fill-rule="evenodd" clip-rule="evenodd" d="M375.797 187.257C375.797 187.257 375.177 170.316 370.722 152.625C368.81 145.034 366.195 137.307 362.622 130.714C358.95 123.934 354.475 116.021 350.046 108.329C340.176 91.1837 330.539 75.1293 330.539 75.1293C330.413 74.9183 330.138 74.8497 329.927 74.9772C329.716 75.103 329.647 75.3769 329.774 75.5891C329.774 75.5891 339.407 91.6366 349.272 108.774C353.698 116.46 358.168 124.365 361.838 131.139C365.375 137.669 367.963 145.325 369.855 152.843C374.286 170.44 374.906 187.29 374.906 187.29C374.914 187.536 375.122 187.729 375.368 187.72C375.614 187.711 375.807 187.504 375.797 187.257Z" fill="#E5E5E5"/>
<path fill-rule="evenodd" clip-rule="evenodd" d="M332.69 79.335C332.535 80.1138 330.948 79.3996 330.548 79.1886C328.168 77.9357 326.807 75.8715 325.231 73.7563C320.726 67.7059 322.052 56.6435 322.052 49.3082C322.052 49.2642 322.002 49.9378 322.168 50.4061C322.44 51.1792 322.721 51.962 323.035 52.7191C324.1 55.2866 325.46 57.6305 326.791 60.059C328.7 63.5385 331.736 66.7881 332.687 70.7508C333.355 73.5322 333.232 76.624 332.69 79.335Z" fill="#E5E5E5"/>
<path fill-rule="evenodd" clip-rule="evenodd" d="M340.604 93.5222C340.604 93.5222 338.641 87.6536 338.581 86.4711C338.432 83.4787 338.984 80.6568 339.853 77.8023C340.051 77.1493 341.379 74.229 341.24 73.8133C341.21 73.7224 341.1 73.9534 341.067 74.0443C340.903 74.4938 340.794 75.0175 340.72 75.4893C340.536 76.6512 340.75 77.8257 341.009 78.9568C341.822 82.5129 342.63 86.562 342.223 90.2273C342.161 90.7809 341.182 93.5222 340.604 93.5222Z" fill="#E5E5E5"/>
<path fill-rule="evenodd" clip-rule="evenodd" d="M347.945 76.7611C347.945 76.7611 345.885 69.9238 345.809 69.0627C345.258 62.8693 348.232 57.242 351.701 52.2564C352.66 50.8771 353.866 49.686 355.053 48.4984C355.617 47.9351 356.239 47.4508 356.845 46.9384C356.939 46.859 357.096 46.5896 357.133 46.7069C357.204 46.9161 356.952 47.2352 356.902 47.3439C356.033 49.276 355.504 51.2608 355.169 53.3542C354.367 58.3708 355.81 64.1811 353.609 68.9003C353.2 69.7774 352.093 70.821 351.817 71.7331C351.184 73.8265 349.8 74.9678 347.945 76.7611Z" fill="#E5E5E5"/>
<path fill-rule="evenodd" clip-rule="evenodd" d="M342.751 107.712C342.751 107.712 339.269 107.751 337.955 107.934C331.129 108.885 326.889 113.909 326.889 113.909L326.373 114.131C326.373 114.131 331.721 116.643 338.767 113.024C342.577 111.067 342.751 107.704 342.751 107.712Z" fill="#E5E5E5"/>
<path fill-rule="evenodd" clip-rule="evenodd" d="M331.143 169.769C331.143 169.769 327.733 169.064 326.402 169.002C319.482 168.68 313.998 173.847 313.998 173.847L313.435 174.004C313.435 174.004 317.984 178.199 325.832 175.339C330.076 173.792 331.145 169.758 331.143 169.769Z" fill="#E5E5E5"/>
<path fill-rule="evenodd" clip-rule="evenodd" d="M318.202 141.023C318.202 141.023 315.419 138.929 314.241 138.305C308.121 135.059 300.957 137.39 300.957 137.39L300.381 137.292C300.381 137.292 302.703 143.027 311.022 143.792C315.52 144.205 318.208 141.014 318.202 141.023Z" fill="#E5E5E5"/>
<path fill-rule="evenodd" clip-rule="evenodd" d="M327.113 143.34C327.113 143.34 324.87 143.853 324.059 144.215C319.847 146.1 318.168 151.716 318.168 151.716L317.881 152.009C317.881 152.009 321.87 153.799 325.66 149.209C327.71 146.727 327.111 143.331 327.113 143.34Z" fill="#E5E5E5"/>
<path fill-rule="evenodd" clip-rule="evenodd" d="M331.047 144.755C331.047 144.755 330.976 142.976 330.831 142.308C330.073 138.836 326.474 136.757 326.474 136.757L326.311 136.497C326.311 136.497 324.606 139.274 327.248 142.812C328.678 144.724 331.054 144.755 331.047 144.755Z" fill="#E5E5E5"/>
<path fill-rule="evenodd" clip-rule="evenodd" d="M317.489 141.265C317.7 141.294 317.965 141.343 318.275 141.41C321.516 142.106 329.446 144.653 332.759 146.556C334.368 147.481 336.642 149.799 338.902 152.376C342.959 157.005 346.946 162.477 346.946 162.477C347.09 162.677 347.368 162.72 347.569 162.575C347.768 162.43 347.812 162.151 347.665 161.952C347.665 161.952 343.655 156.445 339.573 151.788C337.235 149.122 334.868 146.738 333.204 145.782C330.318 144.125 323.992 141.98 320.161 140.954C319.111 140.673 318.247 140.476 317.687 140.392C317.288 140.332 317.009 140.34 316.878 140.378C316.701 140.429 316.606 140.532 316.553 140.628C316.502 140.719 316.48 140.821 316.496 140.935C316.511 141.038 316.583 141.224 316.834 141.409C317.032 141.555 317.312 141.512 317.458 141.314C317.469 141.299 317.48 141.282 317.489 141.265Z" fill="#E5E5E5"/>
<path fill-rule="evenodd" clip-rule="evenodd" d="M365.855 70.0103C365.855 70.0103 366.896 66.6869 367.09 65.3683C368.098 58.5144 363.503 52.5447 363.503 52.5447L363.403 51.9683C363.403 51.9683 358.776 56.0785 360.842 64.172C361.958 68.5493 365.867 70.0131 365.855 70.0103Z" fill="#E5E5E5"/>
<path fill-rule="evenodd" clip-rule="evenodd" d="M366.657 79.1831C366.657 79.1831 365.422 77.2418 364.81 76.599C361.622 73.2613 355.768 73.5604 355.768 73.5604L355.396 73.3877C355.396 73.3877 355.046 77.7455 360.641 79.7801C363.665 80.8808 366.664 79.1785 366.657 79.1831Z" fill="#E5E5E5"/>
<path fill-rule="evenodd" clip-rule="evenodd" d="M366.641 83.3633C366.641 83.3633 368.292 82.7017 368.873 82.3403C371.89 80.4636 372.644 76.3763 372.644 76.3763L372.835 76.1361C372.835 76.1361 369.648 75.4585 367.199 79.133C365.875 81.1207 366.642 83.369 366.641 83.3633Z" fill="#E5E5E5"/>
<path fill-rule="evenodd" clip-rule="evenodd" d="M365.388 69.4203C365.432 69.6296 365.473 69.8944 365.516 70.2077C365.945 73.4957 366.201 81.8219 365.517 85.5799C365.185 87.4052 363.762 90.3254 362.09 93.3172C359.088 98.69 355.266 104.279 355.266 104.279C355.126 104.483 355.18 104.76 355.383 104.899C355.586 105.038 355.865 104.986 356.004 104.783C356.004 104.783 359.847 99.1589 362.869 93.7529C364.598 90.6577 366.052 87.6276 366.395 85.7406C366.991 82.4664 366.892 75.7864 366.575 71.8328C366.489 70.751 366.387 69.8698 366.277 69.3151C366.201 68.9183 366.1 68.6575 366.019 68.5466C365.912 68.3985 365.783 68.343 365.675 68.3253C365.573 68.3076 365.469 68.3207 365.367 68.3739C365.274 68.4219 365.124 68.5523 365.033 68.8508C364.962 69.0864 365.095 69.3357 365.331 69.4072C365.35 69.4129 365.369 69.4175 365.388 69.4203Z" fill="#E5E5E5"/>
<path fill-rule="evenodd" clip-rule="evenodd" d="M340.191 168.06C340.191 168.06 338.382 169.482 337.803 170.155C334.798 173.658 335.679 179.454 335.679 179.454L335.544 179.841C335.544 179.841 339.915 179.756 341.384 173.987C342.177 170.868 340.185 168.052 340.191 168.06Z" fill="#E5E5E5"/>
<path fill-rule="evenodd" clip-rule="evenodd" d="M344.352 167.66C344.352 167.66 343.529 166.082 343.112 165.54C340.945 162.724 336.802 162.381 336.802 162.381L336.544 162.215C336.544 162.215 336.187 165.454 340.087 167.525C342.196 168.644 344.358 167.657 344.352 167.66Z" fill="#E5E5E5"/>
<path fill-rule="evenodd" clip-rule="evenodd" d="M330.277 104.478C330.277 104.478 325.323 105.584 324.308 105.205C319.213 103.301 316.822 98.6126 314.712 94.0404C313.955 92.401 313.591 90.1783 313.463 88.3845C313.4 87.493 313.463 85.8651 313.463 86.0235C313.463 88.9083 319.196 91.7233 321.209 92.8847C322.519 93.6407 324.585 94.1936 325.635 95.3189C327.471 97.2854 330.277 101.631 330.277 104.478Z" fill="#E5E5E5"/>
<path fill-rule="evenodd" clip-rule="evenodd" d="M346.726 87.9163C346.499 87.4463 350.812 79.0114 353.046 77.9838C353.286 77.874 355.155 76.0356 355.326 76.0356C355.473 76.0356 355.086 76.2095 354.994 76.321C354.833 76.5143 354.725 76.747 354.66 76.9872C354.424 77.8769 354.364 78.7787 354.043 79.6467C353.377 81.4548 352.501 83.3298 351.049 84.6369C350.65 84.9972 350.125 85.4466 349.672 85.7291C348.995 86.1534 347.233 87.1564 346.726 87.9163C346.915 87.5372 346.486 88.2731 346.726 87.9163Z" fill="#E5E5E5"/>
<path fill-rule="evenodd" clip-rule="evenodd" d="M347.437 82.0272C347.437 82.0272 347 79.912 346.964 79.7902C346.63 78.6923 346.125 77.6162 345.584 76.6063C344.818 75.1676 343.595 72.8718 342.639 71.6641C342.087 70.9676 340.691 70.1345 340.691 69.0984C340.691 68.936 340.846 69.3854 340.929 69.5255C341.136 69.8829 341.315 70.2506 341.499 70.6194C341.945 71.512 342.363 72.4212 342.782 73.3275C343.545 74.9812 343.785 77.0043 344.825 78.5065C344.978 78.7272 347.437 81.954 347.437 82.0272Z" fill="#E5E5E5"/>
<path fill-rule="evenodd" clip-rule="evenodd" d="M350.037 104.029C350.016 104.038 350 104.02 349.98 104.007C349.949 103.987 349.919 103.961 349.887 103.93C349.772 103.817 349.662 103.653 349.55 103.45C348.967 102.393 348.431 100.386 348.01 98.1059C347.317 94.3582 346.944 89.8762 347.27 87.5793C347.475 86.1388 347.661 84.4057 347.821 82.7045C348.172 78.97 348.393 75.3869 348.393 75.3869C348.41 75.1405 348.222 74.9283 347.976 74.914C347.73 74.898 347.517 75.085 347.503 75.3309C347.503 75.3309 347.282 78.9013 346.932 82.621C346.774 84.3073 346.589 86.0262 346.386 87.4535C345.998 90.189 346.557 95.9432 347.497 100.039C347.927 101.92 348.449 103.457 348.978 104.224C349.427 104.871 349.937 105.044 350.391 104.849C350.617 104.751 350.722 104.488 350.624 104.262C350.526 104.036 350.264 103.932 350.037 104.029Z" fill="#E5E5E5"/>
<path fill-rule="evenodd" clip-rule="evenodd" d="M350.56 112.461C350.56 112.461 349.079 110.626 346.838 109.045C345.51 108.107 343.916 107.262 342.208 106.924C340.805 106.648 339.099 106.258 337.421 105.856C333.78 104.983 330.272 104.046 330.272 104.046C330.034 103.983 329.789 104.125 329.726 104.363C329.662 104.6 329.803 104.846 330.041 104.909C330.041 104.909 333.56 105.848 337.212 106.724C338.903 107.13 340.622 107.521 342.036 107.8C343.619 108.113 345.093 108.905 346.324 109.774C348.455 111.278 349.866 113.022 349.866 113.022C350.022 113.214 350.303 113.244 350.495 113.089C350.686 112.934 350.715 112.653 350.56 112.461Z" fill="#E5E5E5"/>
<path fill-rule="evenodd" clip-rule="evenodd" d="M330.602 170.294C330.807 170.229 331.067 170.16 331.375 170.089C334.603 169.334 342.862 168.252 346.67 168.558C348.519 168.707 351.566 169.833 354.71 171.199C360.354 173.652 366.296 176.899 366.296 176.899C366.511 177.017 366.784 176.938 366.9 176.721C367.019 176.505 366.94 176.234 366.724 176.115C366.724 176.115 360.745 172.848 355.065 170.381C351.814 168.967 348.655 167.823 346.742 167.668C343.425 167.401 336.788 168.164 332.886 168.871C331.817 169.065 330.951 169.256 330.409 169.419C330.023 169.535 329.773 169.661 329.671 169.752C329.534 169.874 329.491 170.008 329.485 170.117C329.478 170.22 329.501 170.322 329.564 170.419C329.621 170.505 329.765 170.643 330.072 170.703C330.314 170.75 330.548 170.593 330.596 170.351C330.599 170.331 330.602 170.312 330.602 170.294Z" fill="#E5E5E5"/>
<path fill-rule="evenodd" clip-rule="evenodd" d="M384.143 166.479C384.143 166.479 390.995 152.229 401.402 138.768C405.848 133.016 410.943 127.409 416.432 123.123C422.126 118.677 428.934 113.559 435.621 108.612C450.529 97.5808 464.829 87.3995 464.829 87.3995C465.03 87.256 465.077 86.9781 464.933 86.7774C464.79 86.5767 464.512 86.5298 464.311 86.6722C464.311 86.6722 450.005 96.8585 435.09 107.894C428.397 112.846 421.583 117.969 415.881 122.42C410.337 126.749 405.187 132.412 400.696 138.222C390.23 151.761 383.339 166.093 383.339 166.093C383.232 166.315 383.326 166.582 383.548 166.688C383.77 166.795 384.036 166.702 384.143 166.479Z" fill="#E5E5E5"/>
<path fill-rule="evenodd" clip-rule="evenodd" d="M460.901 89.5034C460.742 90.2319 462.374 90.2119 462.797 90.181C465.312 89.9969 467.256 88.7343 469.405 87.5061C475.547 83.9957 478.557 73.9871 481.307 67.6823C481.323 67.6457 481.114 68.2432 480.797 68.5829C480.272 69.145 479.737 69.7128 479.185 70.2457C477.305 72.0533 475.258 73.5583 473.202 75.1451C470.255 77.4215 466.427 79.0758 464.123 82.1264C462.506 84.2667 461.452 86.9703 460.901 89.5034Z" fill="#E5E5E5"/>
<path fill-rule="evenodd" clip-rule="evenodd" d="M448.777 98.7307C448.777 98.7307 452.665 94.4226 453.16 93.4282C454.411 90.9122 454.995 88.279 455.319 85.4994C455.394 84.8641 455.348 81.8557 455.622 81.5498C455.683 81.4841 455.691 81.7242 455.685 81.8151C455.657 82.2629 455.553 82.7529 455.44 83.1864C455.162 84.2551 454.539 85.1832 453.892 86.0586C451.86 88.8108 449.646 91.9878 448.62 95.2918C448.467 95.7904 448.281 98.514 448.777 98.7307Z" fill="#E5E5E5"/>
<path fill-rule="evenodd" clip-rule="evenodd" d="M448.753 81.5683C448.753 81.5683 453.088 76.4642 453.477 75.7529C456.273 70.6363 455.828 64.683 454.715 59.0952C454.409 57.5513 453.818 56.0737 453.244 54.6087C452.97 53.9134 452.618 53.2633 452.288 52.5942C452.237 52.4919 452.205 52.202 452.127 52.2883C451.988 52.4421 452.086 52.8098 452.088 52.9207C452.109 54.909 451.82 56.8148 451.324 58.7384C450.13 63.3524 446.711 67.8052 446.833 72.6874C446.856 73.5948 447.416 74.9066 447.311 75.7952C447.069 77.8314 447.832 79.333 448.753 81.5683Z" fill="#E5E5E5"/>
<path fill-rule="evenodd" clip-rule="evenodd" d="M441.608 110.124C441.608 110.124 444.587 111.463 445.647 112.113C451.158 115.491 452.918 121.4 452.918 121.4L453.28 121.784C453.28 121.784 447.74 121.938 443.041 116.184C440.5 113.072 441.613 110.116 441.608 110.124Z" fill="#E5E5E5"/>
<path fill-rule="evenodd" clip-rule="evenodd" d="M428.308 167.822C428.308 167.822 431.504 168.495 432.673 168.941C438.742 171.26 441.517 177.758 441.517 177.758L441.943 178.104C441.943 178.104 436.458 180.004 430.786 174.601C427.717 171.68 428.312 167.812 428.308 167.822Z" fill="#E5E5E5"/>
<path fill-rule="evenodd" clip-rule="evenodd" d="M450.217 147.965C450.217 147.965 453.394 147.209 454.641 147.114C461.119 146.62 466.403 151.311 466.403 151.311L466.936 151.442C466.936 151.442 462.787 155.502 455.351 153.039C451.328 151.707 450.214 147.955 450.217 147.965Z" fill="#E5E5E5"/>
<path fill-rule="evenodd" clip-rule="evenodd" d="M441.687 146.614C441.687 146.614 443.423 147.896 443.984 148.512C446.898 151.713 446.234 157.17 446.234 157.17L446.371 157.529C446.371 157.529 442.271 157.572 440.734 152.204C439.903 149.301 441.691 146.607 441.687 146.614Z" fill="#E5E5E5"/>
<path fill-rule="evenodd" clip-rule="evenodd" d="M437.774 146.356C437.774 146.356 438.503 144.853 438.878 144.334C440.832 141.634 444.705 141.196 444.705 141.196L444.943 141.034C444.943 141.034 445.367 144.06 441.769 146.11C439.822 147.218 437.77 146.353 437.774 146.356Z" fill="#E5E5E5"/>
<path fill-rule="evenodd" clip-rule="evenodd" d="M450.713 148.463C450.715 148.476 450.716 148.489 450.719 148.502C450.775 148.742 451.013 148.892 451.253 148.838C451.551 148.771 451.687 148.631 451.739 148.545C451.799 148.447 451.818 148.345 451.81 148.242C451.799 148.135 451.754 148.003 451.613 147.887C451.514 147.803 451.274 147.69 450.902 147.59C450.389 147.451 449.571 147.297 448.561 147.144C444.883 146.59 438.636 146.06 435.531 146.403C433.741 146.6 430.807 147.762 427.796 149.179C422.538 151.651 417.024 154.88 417.024 154.88C416.811 155.005 416.74 155.278 416.864 155.491C416.989 155.704 417.263 155.775 417.475 155.651C417.475 155.651 422.954 152.442 428.175 149.986C431.081 148.62 433.902 147.481 435.629 147.29C439.19 146.897 446.957 147.681 450.003 148.299C450.284 148.355 450.522 148.41 450.713 148.463Z" fill="#E5E5E5"/>
<path fill-rule="evenodd" clip-rule="evenodd" d="M435.889 69.0483C435.889 69.0483 436.242 65.8015 436.57 64.595C438.273 58.3255 444.463 54.9175 444.463 54.9175L444.766 54.4595C444.766 54.4595 447.2 59.7276 442.39 65.9096C439.787 69.253 435.879 69.0466 435.889 69.0483Z" fill="#E5E5E5"/>
<path fill-rule="evenodd" clip-rule="evenodd" d="M431.759 76.6323C431.759 76.6323 433.55 75.4263 434.318 75.1038C438.309 73.4296 443.229 75.8827 443.229 75.8827L443.614 75.8741C443.614 75.8741 442.28 79.7516 436.707 79.4022C433.695 79.2129 431.755 76.6249 431.759 76.6323Z" fill="#E5E5E5"/>
<path fill-rule="evenodd" clip-rule="evenodd" d="M430.206 80.2321C430.206 80.2321 429.034 79.0433 428.671 78.5149C426.779 75.7702 427.665 71.9733 427.665 71.9733L427.591 71.6948C427.591 71.6948 430.585 72.3084 431.311 76.3866C431.705 78.591 430.202 80.2367 430.206 80.2321Z" fill="#E5E5E5"/>
<path fill-rule="evenodd" clip-rule="evenodd" d="M436.524 68.7466C436.537 68.75 436.55 68.7529 436.563 68.7529C436.808 68.782 437.029 68.6076 437.059 68.3635C437.095 68.0604 437.009 67.886 436.945 67.8071C436.872 67.7179 436.785 67.6653 436.683 67.6401C436.578 67.6138 436.44 67.6121 436.283 67.7047C436.171 67.7705 435.984 67.9592 435.766 68.2754C435.463 68.7134 435.042 69.4316 434.563 70.3322C432.806 73.6128 430.215 79.3218 429.499 82.3604C429.085 84.1142 429.197 87.2678 429.524 90.5798C430.092 96.3614 431.288 102.639 431.288 102.639C431.335 102.881 431.569 103.04 431.81 102.994C432.052 102.948 432.211 102.714 432.166 102.472C432.166 102.472 430.976 96.2356 430.412 90.4923C430.098 87.2969 429.969 84.2577 430.367 82.5657C431.19 79.0799 434.53 72.0242 436.132 69.3601C436.28 69.1143 436.411 68.9078 436.524 68.7466Z" fill="#E5E5E5"/>
<path fill-rule="evenodd" clip-rule="evenodd" d="M421.172 162.958C421.172 162.958 422.194 164.859 422.439 165.655C423.708 169.793 420.777 174.445 420.777 174.445L420.748 174.828C420.748 174.828 417.023 173.115 417.924 167.606C418.412 164.627 421.18 162.954 421.172 162.958Z" fill="#E5E5E5"/>
<path fill-rule="evenodd" clip-rule="evenodd" d="M417.746 161.053C417.746 161.053 419.046 160.006 419.606 159.696C422.525 158.088 426.216 159.347 426.216 159.347L426.5 159.301C426.5 159.301 425.592 162.22 421.462 162.537C419.229 162.708 417.742 161.049 417.746 161.053Z" fill="#E5E5E5"/>
<path fill-rule="evenodd" clip-rule="evenodd" d="M453.544 112.022C453.544 112.022 457.388 114.831 458.403 114.886C463.497 115.161 467.311 112.026 470.838 108.888C472.105 107.762 473.251 105.989 474.034 104.494C474.423 103.752 474.978 102.33 474.919 102.466C473.838 104.945 467.853 105.214 465.687 105.457C464.277 105.616 462.295 105.316 460.969 105.89C458.654 106.892 454.613 109.575 453.544 112.022Z" fill="#E5E5E5"/>
<path fill-rule="evenodd" clip-rule="evenodd" d="M445.617 91.6148C445.986 91.2963 445.443 82.428 443.909 80.7079C443.744 80.5221 442.827 78.2417 442.679 78.1771C442.554 78.1227 442.82 78.4155 442.858 78.5476C442.924 78.7712 442.93 79.0142 442.894 79.2441C442.764 80.0989 442.479 80.8955 442.428 81.7618C442.322 83.567 442.372 85.5066 443.13 87.174C443.338 87.6338 443.621 88.2176 443.905 88.6305C444.328 89.248 445.466 90.7714 445.617 91.6148C445.688 92.0116 445.595 91.2179 445.617 91.6148Z" fill="#E5E5E5"/>
<path fill-rule="evenodd" clip-rule="evenodd" d="M447.215 86.2853C447.215 86.2853 448.383 84.631 448.46 84.5401C449.159 83.7218 449.997 82.987 450.839 82.3209C452.038 81.3722 453.95 79.8575 455.225 79.1781C455.962 78.7859 457.475 78.5926 457.863 77.7023C457.925 77.5633 457.621 77.8916 457.499 77.9819C457.187 78.2089 456.894 78.4594 456.598 78.707C455.879 79.3068 455.178 79.9318 454.479 80.5539C453.204 81.6884 452.237 83.3381 450.779 84.2399C450.566 84.372 447.242 86.2235 447.215 86.2853Z" fill="#E5E5E5"/>
<path fill-rule="evenodd" clip-rule="evenodd" d="M436.095 104.815C436.419 105.162 436.936 105.21 437.578 104.812C438.323 104.351 439.351 103.223 440.429 101.763C442.774 98.5926 445.417 93.8517 446.109 91.3523C446.47 90.0491 446.956 88.5046 447.452 86.995C448.546 83.6665 449.696 80.5163 449.696 80.5163C449.781 80.2847 449.661 80.0274 449.429 79.9439C449.198 79.8587 448.942 79.9788 448.857 80.2104C448.857 80.2104 447.704 83.3737 446.604 86.7154C446.104 88.2393 445.613 89.7987 445.249 91.1138C444.757 92.8905 443.242 95.8285 441.574 98.4846C440.184 100.7 438.689 102.721 437.582 103.692C437.319 103.923 437.086 104.091 436.882 104.17C436.848 104.183 436.812 104.194 436.78 104.199C436.767 104.202 436.755 104.214 436.746 104.205C436.578 104.025 436.296 104.016 436.116 104.184C435.935 104.353 435.927 104.635 436.095 104.815Z" fill="#E5E5E5"/>
<path fill-rule="evenodd" clip-rule="evenodd" d="M433.513 112.043C433.513 112.043 435.376 111.075 437.768 110.582C439.15 110.297 440.709 110.17 442.183 110.494C443.503 110.784 445.129 111.092 446.734 111.378C450.202 111.995 453.581 112.508 453.581 112.508C453.824 112.545 454.051 112.377 454.089 112.134C454.126 111.89 453.957 111.662 453.714 111.625C453.714 111.625 450.347 111.115 446.891 110.499C445.297 110.216 443.685 109.91 442.375 109.622C440.776 109.27 439.086 109.4 437.588 109.708C435.065 110.227 433.1 111.251 433.1 111.251C432.882 111.365 432.797 111.635 432.911 111.853C433.024 112.072 433.293 112.157 433.513 112.043Z" fill="#E5E5E5"/>
<path fill-rule="evenodd" clip-rule="evenodd" d="M428.545 168.484C428.542 168.496 428.538 168.509 428.536 168.521C428.482 168.762 428.634 169 428.874 169.053C429.171 169.119 429.354 169.051 429.439 168.995C429.534 168.932 429.596 168.849 429.631 168.752C429.667 168.65 429.683 168.513 429.606 168.347C429.552 168.229 429.383 168.024 429.089 167.775C428.685 167.431 428.01 166.941 427.165 166.373C424.073 164.3 418.651 161.154 415.698 160.139C413.994 159.553 410.845 159.351 407.516 159.346C401.708 159.337 395.342 159.903 395.342 159.903C395.097 159.926 394.916 160.142 394.937 160.388C394.958 160.633 395.176 160.815 395.421 160.792C395.421 160.792 401.744 160.23 407.515 160.239C410.726 160.244 413.764 160.418 415.408 160.983C418.794 162.147 425.484 166.173 427.974 168.032C428.204 168.203 428.397 168.355 428.545 168.484Z" fill="#E5E5E5"/>
<path fill-rule="evenodd" clip-rule="evenodd" d="M379.969 4.78906C381.388 2.89634 384.089 0.56332 388.854 0.36833C394.46 0.140174 399.386 2.6699 403.177 5.62391C405.942 6.85161 408.415 8.5076 410.412 10.5336C414.365 14.5471 418.032 20.0995 417.935 25.8937C417.76 36.1991 416.308 44.252 412.411 48.4446C412.249 49.7529 411.656 50.9771 410.715 51.9184C409.662 52.9722 408.255 53.5898 406.774 53.6555C406.65 54.3732 406.487 55.0759 406.288 55.765V77.8709C418.659 81.1423 432.846 86.8822 432.996 86.9422L433.011 86.9028C433.011 86.9028 442.627 95.1976 442.471 115.081C442.318 134.965 442.094 135.212 442.094 135.212L456.917 118.049L458.537 119.777C458.808 119.552 464.649 114.719 466.326 113.857C468.044 112.975 469.853 111.975 472.681 113.085C474.753 113.898 476.404 114.09 478.171 114.062C479.937 114.036 486.969 113.445 488.733 114.929C489.531 115.601 489.372 117.776 489.372 117.776L479.987 118.091C479.987 118.091 481.882 121.68 484.151 121.254C486.418 120.828 492.458 120.996 492.458 120.996C492.458 120.996 496.138 115.343 499.216 117.152L497.914 119.785C498.316 119.36 499.259 118.087 500.749 119.203C500.749 119.203 494.677 125.089 493.175 126.215C491.675 127.34 467.126 126.215 467.126 126.215L465.848 127.571L470.096 132.101C470.096 132.101 446.763 169.778 435.941 165.128C434.291 164.419 432.856 163.574 431.606 162.652C431.611 162.664 431.615 162.676 431.622 162.688L431.601 162.649L431.586 162.637C431.952 173.481 431.675 183.508 432.57 187.274H357.604C356.43 182.146 357.111 173.006 358.282 159.725C356.477 161.76 354.036 163.714 350.745 165.128C339.924 169.778 316.591 132.101 316.591 132.101L320.83 127.581L319.543 126.215C319.543 126.215 294.995 127.34 293.494 126.215C291.992 125.089 285.921 119.203 285.921 119.203C287.411 118.087 288.352 119.36 288.756 119.785L287.452 117.152C290.531 115.343 294.212 120.996 294.212 120.996C294.212 120.996 300.25 120.828 302.519 121.254C304.788 121.68 306.682 118.091 306.682 118.091L297.297 117.776C297.297 117.776 297.137 115.601 297.937 114.929C299.701 113.445 306.731 114.036 308.499 114.062C310.266 114.09 311.917 113.898 313.988 113.085C316.816 111.975 318.626 112.975 320.343 113.857C322.06 114.74 328.141 119.785 328.141 119.785L329.77 118.049L344.593 135.212C344.593 135.212 344.37 134.965 344.215 115.081C344.061 95.1976 353.675 86.9028 353.675 86.9028L353.688 86.9365L353.692 86.9348C354.37 86.6615 355.049 86.395 355.729 86.1314C356.688 85.758 357.65 85.3892 358.613 85.0261C361.001 84.126 363.401 83.2552 365.811 82.4134C368.204 81.5786 370.608 80.7752 373.026 80.0152C375.452 79.2513 377.891 78.5308 380.347 77.8795L380.382 77.8709V69.193C372.502 66.4689 366.843 58.9843 366.843 50.1789V39.1594C365.845 36.6091 364.973 33.7002 364.556 30.6335C363.793 30.1772 363.007 29.3498 362.627 27.8551C361.75 24.4196 364.495 22.4594 364.495 22.4594C364.495 22.4594 355.905 17.5967 361.208 8.99479C365.095 2.68991 376.359 4.13947 379.969 4.78906Z" fill="white"/>
<path fill-rule="evenodd" clip-rule="evenodd" d="M405.224 51.6283C414.669 51.2932 417.68 41.0193 417.935 25.8936C418.033 20.0993 414.366 14.547 410.412 10.5334C401.533 1.51865 383.23 -0.160214 371.529 10.5334C355.068 25.5773 371.851 48.6182 371.851 48.6182L405.224 51.6283Z" fill="#FFB202"/>
<path fill-rule="evenodd" clip-rule="evenodd" d="M425.12 130.426H360.693C358.651 160.216 355.709 178.986 357.604 187.274H432.57C430.654 179.21 434.11 142.437 425.12 130.426Z" fill="#13B3FD"/>
<path fill-rule="evenodd" clip-rule="evenodd" d="M328.141 119.785C328.141 119.785 322.06 114.74 320.343 113.857C318.626 112.975 316.816 111.975 313.988 113.086C311.917 113.899 310.266 114.09 308.499 114.063C306.731 114.036 299.701 113.446 297.937 114.93C297.137 115.602 297.297 117.776 297.297 117.776L306.682 118.091C306.682 118.091 304.788 121.681 302.519 121.255C300.25 120.829 294.212 120.996 294.212 120.996C294.212 120.996 290.531 115.343 287.452 117.152L288.756 119.785C288.352 119.36 287.411 118.088 285.921 119.203C285.921 119.203 291.992 125.089 293.494 126.215C294.995 127.34 319.543 126.215 319.543 126.215L320.83 127.581C327.085 128.654 330.153 126.664 328.141 119.785Z" fill="#FFC5A5"/>
<path fill-rule="evenodd" clip-rule="evenodd" d="M458.527 119.785C458.527 119.785 464.609 114.74 466.326 113.857C468.044 112.975 469.853 111.975 472.681 113.086C474.753 113.899 476.403 114.09 478.17 114.063C479.937 114.036 486.968 113.446 488.732 114.93C489.531 115.602 489.372 117.776 489.372 117.776L479.987 118.091C479.987 118.091 481.882 121.681 484.15 121.255C486.418 120.829 492.458 120.996 492.458 120.996C492.458 120.996 496.138 115.343 499.216 117.152L497.914 119.785C498.316 119.36 499.259 118.088 500.749 119.203C500.749 119.203 494.677 125.089 493.175 126.215C491.674 127.34 467.126 126.215 467.126 126.215L465.839 127.581C459.509 129.607 456.684 127.468 458.527 119.785Z" fill="#FFC5A5"/>
<path fill-rule="evenodd" clip-rule="evenodd" d="M353.676 86.9028C353.676 86.9028 344.061 95.1976 344.215 115.081C344.37 134.965 344.593 135.212 344.593 135.212L329.771 118.049L316.592 132.101C316.592 132.101 339.924 169.778 350.745 165.128C361.566 160.478 363.213 149.989 363.213 149.989C363.597 129.204 361.392 108.243 353.676 86.9028Z" fill="#13B3FD"/>
<path fill-rule="evenodd" clip-rule="evenodd" d="M433.01 86.9028C433.01 86.9028 442.627 95.1976 442.471 115.081C442.318 134.965 442.094 135.212 442.094 135.212L456.917 118.049L470.096 132.101C470.096 132.101 446.763 169.778 435.941 165.128C425.12 160.478 423.474 149.989 423.474 149.989C423.092 129.204 425.296 108.243 433.01 86.9028Z" fill="#13B3FD"/>
<path fill-rule="evenodd" clip-rule="evenodd" d="M432.998 86.9443C432.998 86.9443 405.119 75.6475 393.335 75.6475C381.552 75.6475 353.672 86.9443 353.672 86.9443C353.672 86.9443 360.588 140.054 360.588 155.401C360.588 160.161 364.381 164.019 369.061 164.019C384.309 164.019 403.075 164.019 418.323 164.019C423.001 164.019 426.795 160.161 426.795 155.401C426.795 140.054 432.998 86.9443 432.998 86.9443Z" fill="#13B3FD"/>
<path fill-rule="evenodd" clip-rule="evenodd" d="M358.11 159.918C358.852 158.465 359.177 155.898 359.227 152.938C359.245 151.956 359.23 150.931 359.188 149.89C359.127 148.376 359.009 146.83 358.868 145.331C358.36 139.855 357.528 135.017 357.486 134.776C357.46 134.554 356.933 130.019 356.267 124.597C355.858 121.274 355.396 117.619 354.985 114.415C354.893 113.691 354.805 112.99 354.712 112.322C354.645 111.839 354.576 111.374 354.507 110.929C354.031 107.829 353.672 105.715 353.672 105.715C353.672 105.715 353.822 107.856 354.09 110.981C354.128 111.43 354.169 111.898 354.219 112.383C354.286 113.054 354.367 113.756 354.448 114.482C354.803 117.692 355.215 121.354 355.601 124.679C356.248 130.245 356.816 134.869 356.816 134.869C356.816 134.875 356.817 134.882 356.819 134.888C356.819 134.888 357.7 139.807 358.29 145.39C358.437 146.779 358.564 148.21 358.663 149.615C358.731 150.574 358.783 151.522 358.819 152.437C358.937 155.582 358.804 158.352 358.11 159.918Z" fill="#1C9CD8"/>
<path fill-rule="evenodd" clip-rule="evenodd" d="M431.622 162.688C430.824 160.89 430.155 158.62 429.599 156.114C429.278 154.674 428.997 153.156 428.758 151.603C428.17 147.793 427.846 143.772 427.934 140.182C427.989 137.591 428.125 134.907 428.302 132.24C428.419 130.459 428.557 128.685 428.702 126.951C429.072 122.556 429.517 118.419 429.911 115.075C429.962 114.64 430.015 114.218 430.059 113.811C430.133 113.135 430.196 112.5 430.256 111.909C430.554 108.961 430.752 107.153 430.752 107.153C430.752 107.153 430.394 108.882 429.903 111.725C429.798 112.332 429.685 112.989 429.58 113.692C429.168 116.432 428.75 119.855 428.358 123.583C428.08 126.23 427.826 129.033 427.634 131.861C427.446 134.649 427.324 137.46 427.279 140.17C427.232 143.795 427.563 147.859 428.24 151.692C428.517 153.251 428.851 154.77 429.237 156.206C429.905 158.696 430.724 160.928 431.622 162.688Z" fill="#1C9CD8"/>
<path fill-rule="evenodd" clip-rule="evenodd" d="M442.185 135.35C441.69 135.425 441.135 135.546 440.539 135.737C440.196 135.848 439.841 135.98 439.481 136.137C438.863 136.405 438.231 136.741 437.597 137.119C437 137.475 436.404 137.874 435.831 138.312C435.305 138.716 434.794 139.152 434.321 139.619C433.593 140.338 432.947 141.126 432.431 141.962C432.357 142.085 432.28 142.209 432.215 142.336C432.148 142.466 432.088 142.597 432.035 142.732C431.869 143.141 431.749 143.551 431.657 143.971C431.847 143.595 432.074 143.245 432.318 142.889C432.396 142.774 432.477 142.662 432.556 142.547C432.633 142.433 432.708 142.316 432.787 142.202C433.326 141.424 433.978 140.696 434.696 140.02C435.162 139.577 435.656 139.155 436.165 138.759C436.72 138.328 437.29 137.927 437.86 137.561C438.468 137.173 439.078 136.831 439.66 136.522C440.001 136.341 440.33 136.171 440.648 136.015C441.204 135.742 441.715 135.51 442.185 135.35Z" fill="#1C9CD8"/>
<path fill-rule="evenodd" clip-rule="evenodd" d="M344.568 135.287C345.033 135.288 345.515 135.341 346.02 135.415C346.33 135.461 346.645 135.517 346.967 135.581C347.539 135.695 348.125 135.838 348.703 136.031C349.267 136.218 349.823 136.446 350.359 136.712C350.859 136.961 351.341 137.245 351.795 137.56C352.49 138.043 353.115 138.604 353.623 139.253C353.696 139.347 353.767 139.444 353.839 139.539C353.912 139.635 353.986 139.729 354.059 139.825C354.284 140.121 354.488 140.418 354.665 140.75C354.588 140.371 354.485 140.012 354.338 139.659C354.288 139.542 354.234 139.427 354.171 139.315C354.109 139.204 354.038 139.098 353.966 138.993C353.469 138.272 352.833 137.64 352.107 137.107C351.637 136.763 351.129 136.464 350.599 136.207C350.035 135.934 349.447 135.71 348.852 135.536C348.245 135.358 347.632 135.226 347.028 135.16C346.778 135.132 346.531 135.115 346.287 135.113C345.679 135.109 345.104 135.179 344.568 135.287Z" fill="#1C9CD8"/>
<path fill-rule="evenodd" clip-rule="evenodd" d="M406.288 41.1133H380.382V77.9384H406.288V41.1133Z" fill="#FFCBAE"/>
<path fill-rule="evenodd" clip-rule="evenodd" d="M406.288 77.9387L393.335 69.1201L380.382 77.9387C380.382 77.9387 380.382 78.0879 380.382 78.3556C380.382 81.5394 381.647 84.5947 383.899 86.8459C386.15 89.0983 389.205 90.3632 392.391 90.3632C393.018 90.3632 393.651 90.3632 394.28 90.3632C397.464 90.3632 400.519 89.0983 402.771 86.8459C405.024 84.5947 406.288 81.5394 406.288 78.3556C406.288 78.0879 406.288 77.9387 406.288 77.9387Z" fill="#FFCBAE"/>
<path fill-rule="evenodd" clip-rule="evenodd" d="M412.458 45.3456C412.458 42.0594 409.792 39.3936 406.504 39.3936C403.216 39.3936 400.552 42.0594 400.552 45.3456C400.552 46.1273 400.552 46.9284 400.552 47.7101C400.552 50.9975 403.216 53.6633 406.504 53.6633C409.792 53.6633 412.458 50.9975 412.458 47.7101C412.458 46.9284 412.458 46.1273 412.458 45.3456Z" fill="#FFCBAE"/>
<path fill-rule="evenodd" clip-rule="evenodd" d="M407.075 27.3155C407.075 23.3219 405.488 19.4942 402.665 16.67C399.842 13.8463 396.012 12.2612 392.02 12.2612C388.712 12.2612 385.206 12.2612 381.898 12.2612C377.906 12.2612 374.077 13.8463 371.252 16.67C368.431 19.4942 366.844 23.3219 366.844 27.3155C366.844 35.9082 366.844 46.6458 366.844 55.2397C366.844 59.2316 368.431 63.061 371.252 65.8835C374.077 68.7072 377.906 70.2928 381.898 70.2928C385.206 70.2928 388.712 70.2928 392.02 70.2928C396.012 70.2928 399.842 68.7072 402.665 65.8835C405.488 63.061 407.075 59.2316 407.075 55.2397C407.075 46.6458 407.075 35.9082 407.075 27.3155Z" fill="#FFCBAE"/>
<path fill-rule="evenodd" clip-rule="evenodd" d="M366.626 35.6841C367.884 36.2039 368.482 18.3609 373.992 19.9128C375.162 20.2421 376.279 23.6496 386.959 26.0387C396.217 28.1087 402.174 24.7258 402.174 24.7258C405.291 24.2254 399.809 35.1117 405.02 36.6505C406.547 37.1011 404.887 44.1905 407.074 40.4331C409.259 36.6739 411.198 26.8175 411.198 26.8175C411.198 26.8175 402.571 6.93706 393.334 8.16819C390.297 8.57189 381.322 8.43008 378.638 9.09453C373.161 10.4532 370.903 16.2148 369.46 16.8284C367.147 17.8091 366.148 27.9783 366.626 35.6841Z" fill="#FFB202"/>
<path fill-rule="evenodd" clip-rule="evenodd" d="M407.805 43.0755C409.435 42.9828 410.274 44.6474 410.315 46.3251C410.324 46.6425 410.303 46.9633 410.257 47.2749C410.06 48.5587 409.364 49.7109 408.026 49.9293C407.924 49.9436 407.855 50.0374 407.868 50.1397C407.882 50.2409 407.974 50.3124 408.074 50.2993C409.635 50.1254 410.545 48.8514 410.817 47.3733C410.882 47.025 410.906 46.6648 410.896 46.3074C410.836 44.3238 409.702 42.4402 407.772 42.5877C407.641 42.5969 407.54 42.7135 407.549 42.8468C407.557 42.9817 407.672 43.0841 407.805 43.0755Z" fill="#FF816E"/>
<path fill-rule="evenodd" clip-rule="evenodd" d="M380.382 69.5319C387.955 69.8933 393.967 68.1207 397.572 64.7812C397.572 64.7812 394.024 72.9056 380.382 72.1171V69.5319Z" fill="#FF816E"/>
<path fill-rule="evenodd" clip-rule="evenodd" d="M373.53 38.1021C374.229 38.1021 374.795 39.0741 374.795 40.2687C374.795 41.4649 374.229 42.4353 373.53 42.4353C372.832 42.4353 372.266 41.4649 372.266 40.2687C372.266 39.0741 372.832 38.1021 373.53 38.1021Z" fill="#38312E"/>
<path fill-rule="evenodd" clip-rule="evenodd" d="M390.335 38.1021C391.032 38.1021 391.599 39.0741 391.599 40.2687C391.599 41.4649 391.032 42.4353 390.335 42.4353C389.636 42.4353 389.07 41.4649 389.07 40.2687C389.07 39.0741 389.636 38.1021 390.335 38.1021Z" fill="#38312E"/>
<path fill-rule="evenodd" clip-rule="evenodd" d="M374.751 32.4024C372.435 32.1416 370.394 32.3509 368.569 32.9262C368.763 30.6355 374.203 30.0368 374.751 32.4024Z" fill="#38312E"/>
<path fill-rule="evenodd" clip-rule="evenodd" d="M391.131 29.5567C388.8 29.5012 386.785 29.8906 385.016 30.6237C385.016 28.3244 390.382 27.2482 391.131 29.5567Z" fill="#38312E"/>
<path fill-rule="evenodd" clip-rule="evenodd" d="M379.915 38.5345C379.915 38.5345 379.797 39.3379 379.56 40.4283C379.437 40.9962 379.285 41.6435 379.094 42.2936C378.961 42.7545 378.81 43.2171 378.641 43.6563C378.463 44.1206 378.263 44.5552 378.042 44.9314C377.599 45.6879 377.044 46.4873 376.616 47.225C376.228 47.894 375.941 48.519 375.896 49.0108C375.827 49.7696 376.196 50.3374 377.491 50.3282C378.382 50.2916 379.05 50.251 379.554 50.2024C380.612 50.1001 380.916 49.996 380.916 49.996C380.916 49.996 380.672 50.0269 379.891 49.9931C379.533 49.9771 379.068 49.9463 378.458 49.8982C378.171 49.8759 377.856 49.8525 377.504 49.8222C377.304 49.8073 377.136 49.7753 376.994 49.7358C376.604 49.626 376.48 49.399 376.519 49.0811C376.572 48.6568 376.831 48.1284 377.16 47.5469C377.579 46.8053 378.108 45.987 378.532 45.2213C378.714 44.8891 378.879 44.5168 379.028 44.1234C379.23 43.5831 379.405 43.0004 379.551 42.4206C379.716 41.7515 379.848 41.0888 379.945 40.5044C380.131 39.3893 380.197 38.5676 380.197 38.5676C380.207 38.4887 380.151 38.4172 380.074 38.4081C379.995 38.3995 379.924 38.455 379.915 38.5345Z" fill="#FF816E"/>
<path fill-rule="evenodd" clip-rule="evenodd" d="M379.946 56.3347C380.94 55.7595 381.987 55.4055 383.077 55.2162C383.295 55.1785 383.515 55.1459 383.738 55.1185C384.601 55.0069 385.495 54.9824 386.423 55.0744C386.522 55.0893 386.614 55.0172 386.629 54.9149C386.642 54.8137 386.572 54.7188 386.472 54.7056C385.515 54.5358 384.582 54.4672 383.679 54.5415C383.443 54.5604 383.209 54.593 382.978 54.6336C381.826 54.8417 380.735 55.2734 379.702 55.9133C379.588 55.9819 379.549 56.1311 379.617 56.2484C379.684 56.3639 379.832 56.4033 379.946 56.3347Z" fill="#FF816E"/>
<path fill-rule="evenodd" clip-rule="evenodd" d="M378.61 7.2296C378.61 7.2296 380.742 0.69943 388.853 0.368347C401.855 -0.161157 411.198 14.1463 411.198 14.1463C411.198 14.1463 376.352 15.1624 378.61 7.2296Z" fill="#FFB202"/>
<path fill-rule="evenodd" clip-rule="evenodd" d="M381.098 5.01494C381.098 5.01494 365.863 1.4445 361.208 8.9948C355.905 17.5967 364.495 22.4594 364.495 22.4594C364.495 22.4594 361.75 24.4196 362.627 27.8551C363.502 31.2911 366.509 31.1985 366.509 31.1985C366.509 31.1985 368.783 19.9331 370.276 18.0473C371.769 16.162 377.26 11.9214 379.386 12.261C381.515 12.6007 385.672 6.57543 381.098 5.01494Z" fill="#FFB202"/>
<path fill-rule="evenodd" clip-rule="evenodd" d="M265.138 188.716H485.575C485.974 188.716 486.298 188.393 486.298 187.995C486.298 187.597 485.974 187.273 485.575 187.273H265.138C264.74 187.273 264.416 187.597 264.416 187.995C264.416 188.393 264.74 188.716 265.138 188.716Z" fill="#38312E"/>
<path d="M2.412 65V39.8H7.812L18.864 56.36V39.8H24.264V65H18.864L7.812 48.512V65H2.412ZM37.7356 65.432C35.9836 65.432 34.4116 65.024 33.0196 64.208C31.6276 63.392 30.5236 62.276 29.7076 60.86C28.8916 59.42 28.4836 57.788 28.4836 55.964C28.4836 54.092 28.8916 52.448 29.7076 51.032C30.5236 49.592 31.6276 48.464 33.0196 47.648C34.4356 46.832 36.0076 46.424 37.7356 46.424C39.5116 46.424 41.0956 46.832 42.4876 47.648C43.8796 48.464 44.9836 49.592 45.7996 51.032C46.6156 52.448 47.0236 54.08 47.0236 55.928C47.0236 57.776 46.6156 59.42 45.7996 60.86C44.9836 62.276 43.8796 63.392 42.4876 64.208C41.0956 65.024 39.5116 65.432 37.7356 65.432ZM37.7356 60.752C38.4556 60.752 39.0916 60.572 39.6436 60.212C40.2196 59.852 40.6756 59.312 41.0116 58.592C41.3476 57.872 41.5156 56.984 41.5156 55.928C41.5156 54.872 41.3476 53.984 41.0116 53.264C40.6756 52.544 40.2316 52.004 39.6796 51.644C39.1276 51.284 38.4916 51.104 37.7716 51.104C37.0516 51.104 36.4036 51.284 35.8276 51.644C35.2756 52.004 34.8316 52.544 34.4956 53.264C34.1596 53.984 33.9916 54.872 33.9916 55.928C33.9916 56.984 34.1596 57.872 34.4956 58.592C34.8316 59.312 35.2756 59.852 35.8276 60.212C36.4036 60.572 37.0396 60.752 37.7356 60.752ZM58.9649 65C57.6449 65 56.4809 64.796 55.4729 64.388C54.4649 63.956 53.6849 63.26 53.1329 62.3C52.5809 61.34 52.3049 60.032 52.3049 58.376V51.356H49.2089V46.856H52.3049L52.8809 41.744H57.7049V46.856H62.3489V51.356H57.7049V58.448C57.7049 59.168 57.8609 59.684 58.1729 59.996C58.5089 60.284 59.0729 60.428 59.8649 60.428H62.3489V65H58.9649ZM66.5002 65V39.08H71.9002V49.448C72.4762 48.536 73.2562 47.804 74.2402 47.252C75.2242 46.7 76.3762 46.424 77.6962 46.424C79.2322 46.424 80.5162 46.748 81.5482 47.396C82.5802 48.044 83.3602 48.992 83.8882 50.24C84.4162 51.464 84.6802 52.952 84.6802 54.704V65H79.3162V55.208C79.3162 53.864 79.0282 52.82 78.4522 52.076C77.9002 51.332 77.0122 50.96 75.7882 50.96C75.0682 50.96 74.4082 51.14 73.8082 51.5C73.2082 51.86 72.7402 52.376 72.4042 53.048C72.0682 53.696 71.9002 54.476 71.9002 55.388V65H66.5002ZM89.2479 65V46.856H94.6479V65H89.2479ZM91.9479 44.768C90.9879 44.768 90.2079 44.492 89.6079 43.94C89.0079 43.388 88.7079 42.692 88.7079 41.852C88.7079 40.988 89.0079 40.28 89.6079 39.728C90.2079 39.176 90.9879 38.9 91.9479 38.9C92.9319 38.9 93.7239 39.176 94.3239 39.728C94.9479 40.28 95.2599 40.988 95.2599 41.852C95.2599 42.692 94.9479 43.388 94.3239 43.94C93.7239 44.492 92.9319 44.768 91.9479 44.768ZM99.4064 65V46.856H104.122L104.554 49.772C105.106 48.764 105.886 47.96 106.894 47.36C107.902 46.736 109.126 46.424 110.566 46.424C112.078 46.424 113.35 46.748 114.382 47.396C115.414 48.044 116.194 48.98 116.722 50.204C117.274 51.404 117.55 52.88 117.55 54.632V65H112.186V55.136C112.186 53.816 111.898 52.796 111.322 52.076C110.77 51.332 109.882 50.96 108.658 50.96C107.938 50.96 107.278 51.14 106.678 51.5C106.102 51.836 105.646 52.328 105.31 52.976C104.974 53.624 104.806 54.404 104.806 55.316V65H99.4064ZM130.039 73.352C128.263 73.352 126.727 73.136 125.431 72.704C124.135 72.296 123.127 71.672 122.407 70.832C121.711 69.992 121.363 68.936 121.363 67.664C121.363 66.752 121.603 65.9 122.083 65.108C122.587 64.316 123.295 63.62 124.207 63.02C125.119 62.396 126.211 61.88 127.483 61.472L129.283 64.208C128.227 64.52 127.435 64.928 126.907 65.432C126.403 65.936 126.151 66.5 126.151 67.124C126.151 67.604 126.319 68.012 126.655 68.348C126.991 68.684 127.447 68.936 128.023 69.104C128.623 69.272 129.283 69.356 130.003 69.356C130.699 69.356 131.299 69.272 131.803 69.104C132.331 68.936 132.739 68.684 133.027 68.348C133.339 68.036 133.495 67.652 133.495 67.196C133.495 66.596 133.291 66.116 132.883 65.756C132.475 65.396 131.635 65.168 130.363 65.072C129.187 64.976 128.119 64.844 127.159 64.676C126.223 64.484 125.383 64.256 124.639 63.992C123.919 63.728 123.295 63.44 122.767 63.128C122.239 62.816 121.831 62.504 121.543 62.192V61.364L125.503 57.008L129.211 58.16L124.423 63.02L126.079 60.284C126.319 60.428 126.571 60.572 126.835 60.716C127.099 60.836 127.423 60.944 127.807 61.04C128.191 61.136 128.671 61.232 129.247 61.328C129.823 61.4 130.567 61.484 131.479 61.58C133.039 61.724 134.323 62.024 135.331 62.48C136.363 62.912 137.119 63.512 137.599 64.28C138.103 65.048 138.355 65.984 138.355 67.088C138.355 68.168 138.055 69.188 137.455 70.148C136.855 71.108 135.943 71.876 134.719 72.452C133.495 73.052 131.935 73.352 130.039 73.352ZM130.075 59.744C128.563 59.744 127.255 59.444 126.151 58.844C125.047 58.244 124.195 57.452 123.595 56.468C122.995 55.46 122.695 54.332 122.695 53.084C122.695 51.86 122.995 50.756 123.595 49.772C124.195 48.764 125.047 47.96 126.151 47.36C127.255 46.736 128.563 46.424 130.075 46.424C131.611 46.424 132.931 46.736 134.035 47.36C135.139 47.96 135.979 48.764 136.555 49.772C137.131 50.756 137.419 51.86 137.419 53.084C137.419 54.332 137.131 55.46 136.555 56.468C135.979 57.452 135.139 58.244 134.035 58.844C132.931 59.444 131.611 59.744 130.075 59.744ZM130.075 55.676C130.891 55.676 131.563 55.46 132.091 55.028C132.619 54.596 132.883 53.96 132.883 53.12C132.883 52.28 132.619 51.644 132.091 51.212C131.563 50.78 130.891 50.564 130.075 50.564C129.259 50.564 128.575 50.78 128.023 51.212C127.495 51.644 127.231 52.28 127.231 53.12C127.231 53.96 127.495 54.596 128.023 55.028C128.575 55.46 129.259 55.676 130.075 55.676ZM133.099 50.564L132.307 46.856H139.831V49.916L133.099 50.564ZM152.107 65V46.856H157.507V65H152.107ZM154.807 44.768C153.847 44.768 153.067 44.492 152.467 43.94C151.867 43.388 151.567 42.692 151.567 41.852C151.567 40.988 151.867 40.28 152.467 39.728C153.067 39.176 153.847 38.9 154.807 38.9C155.791 38.9 156.583 39.176 157.183 39.728C157.807 40.28 158.119 40.988 158.119 41.852C158.119 42.692 157.807 43.388 157.183 43.94C156.583 44.492 155.791 44.768 154.807 44.768ZM162.266 65V46.856H166.982L167.414 49.772C167.966 48.764 168.746 47.96 169.754 47.36C170.762 46.736 171.986 46.424 173.426 46.424C174.938 46.424 176.21 46.748 177.242 47.396C178.274 48.044 179.054 48.98 179.582 50.204C180.134 51.404 180.41 52.88 180.41 54.632V65H175.046V55.136C175.046 53.816 174.758 52.796 174.182 52.076C173.63 51.332 172.742 50.96 171.518 50.96C170.798 50.96 170.138 51.14 169.538 51.5C168.962 51.836 168.506 52.328 168.17 52.976C167.834 53.624 167.666 54.404 167.666 55.316V65H162.266ZM193.028 65V39.08H198.428V49.448C199.004 48.536 199.784 47.804 200.768 47.252C201.752 46.7 202.904 46.424 204.224 46.424C205.76 46.424 207.044 46.748 208.076 47.396C209.108 48.044 209.888 48.992 210.416 50.24C210.944 51.464 211.208 52.952 211.208 54.704V65H205.844V55.208C205.844 53.864 205.556 52.82 204.98 52.076C204.428 51.332 203.54 50.96 202.316 50.96C201.596 50.96 200.936 51.14 200.336 51.5C199.736 51.86 199.268 52.376 198.932 53.048C198.596 53.696 198.428 54.476 198.428 55.388V65H193.028ZM224.631 65.432C222.759 65.432 221.115 65.048 219.699 64.28C218.283 63.488 217.167 62.396 216.351 61.004C215.559 59.588 215.163 57.968 215.163 56.144C215.163 54.272 215.559 52.604 216.351 51.14C217.143 49.676 218.247 48.524 219.663 47.684C221.079 46.844 222.723 46.424 224.595 46.424C226.419 46.424 228.015 46.82 229.383 47.612C230.751 48.404 231.819 49.484 232.587 50.852C233.379 52.196 233.775 53.756 233.775 55.532C233.775 55.772 233.763 56.048 233.739 56.36C233.739 56.648 233.715 56.948 233.667 57.26H219.015V54.128H228.267C228.219 53.12 227.847 52.316 227.151 51.716C226.479 51.092 225.639 50.78 224.631 50.78C223.863 50.78 223.167 50.96 222.543 51.32C221.919 51.68 221.415 52.22 221.031 52.94C220.671 53.66 220.491 54.572 220.491 55.676V56.756C220.491 57.596 220.647 58.34 220.959 58.988C221.295 59.636 221.763 60.14 222.363 60.5C222.987 60.86 223.719 61.04 224.559 61.04C225.351 61.04 225.999 60.884 226.503 60.572C227.031 60.236 227.439 59.816 227.727 59.312H233.235C232.899 60.464 232.323 61.508 231.507 62.444C230.691 63.356 229.695 64.088 228.519 64.64C227.343 65.168 226.047 65.432 224.631 65.432ZM237.746 65V46.856H242.534L243.038 50.168C243.518 49.4 244.082 48.74 244.73 48.188C245.378 47.636 246.122 47.204 246.962 46.892C247.826 46.58 248.75 46.424 249.734 46.424V52.148H247.934C247.214 52.148 246.554 52.232 245.954 52.4C245.378 52.544 244.874 52.796 244.442 53.156C244.034 53.516 243.71 54.008 243.47 54.632C243.254 55.232 243.146 55.988 243.146 56.9V65H237.746ZM261.651 65.432C259.779 65.432 258.135 65.048 256.719 64.28C255.303 63.488 254.187 62.396 253.371 61.004C252.579 59.588 252.183 57.968 252.183 56.144C252.183 54.272 252.579 52.604 253.371 51.14C254.163 49.676 255.267 48.524 256.683 47.684C258.099 46.844 259.743 46.424 261.615 46.424C263.439 46.424 265.035 46.82 266.403 47.612C267.771 48.404 268.839 49.484 269.607 50.852C270.399 52.196 270.795 53.756 270.795 55.532C270.795 55.772 270.783 56.048 270.759 56.36C270.759 56.648 270.735 56.948 270.687 57.26H256.035V54.128H265.287C265.239 53.12 264.867 52.316 264.171 51.716C263.499 51.092 262.659 50.78 261.651 50.78C260.883 50.78 260.187 50.96 259.563 51.32C258.939 51.68 258.435 52.22 258.051 52.94C257.691 53.66 257.511 54.572 257.511 55.676V56.756C257.511 57.596 257.667 58.34 257.979 58.988C258.315 59.636 258.783 60.14 259.383 60.5C260.007 60.86 260.739 61.04 261.579 61.04C262.371 61.04 263.019 60.884 263.523 60.572C264.051 60.236 264.459 59.816 264.747 59.312H270.255C269.919 60.464 269.343 61.508 268.527 62.444C267.711 63.356 266.715 64.088 265.539 64.64C264.363 65.168 263.067 65.432 261.651 65.432Z" fill="white"/>
<path d="M1.5 95V81H3.18V95H1.5ZM8.2875 81L6.4875 85.6H5.2875L6.4075 81H8.2875ZM10.2867 95V84.92H11.8067L11.9067 86.36C12.2267 85.84 12.6534 85.4333 13.1867 85.14C13.7334 84.8333 14.3267 84.68 14.9667 84.68C15.4867 84.68 15.9534 84.7533 16.3667 84.9C16.7934 85.0333 17.1667 85.2467 17.4867 85.54C17.8067 85.82 18.0667 86.18 18.2667 86.62C18.6134 86.0067 19.0867 85.5333 19.6867 85.2C20.3001 84.8533 20.9534 84.68 21.6467 84.68C22.4201 84.68 23.0934 84.84 23.6667 85.16C24.2534 85.4667 24.7001 85.94 25.0067 86.58C25.3267 87.2067 25.4867 88.0067 25.4867 88.98V95H23.8267V89.16C23.8267 88.1467 23.6201 87.3867 23.2067 86.88C22.7934 86.3733 22.2134 86.12 21.4667 86.12C20.9467 86.12 20.4801 86.26 20.0667 86.54C19.6534 86.8067 19.3267 87.2 19.0867 87.72C18.8467 88.24 18.7267 88.88 18.7267 89.64V95H17.0467V89.16C17.0467 88.1467 16.8401 87.3867 16.4267 86.88C16.0134 86.3733 15.4267 86.12 14.6667 86.12C14.1601 86.12 13.7001 86.26 13.2867 86.54C12.8867 86.8067 12.5667 87.2 12.3267 87.72C12.0867 88.24 11.9667 88.88 11.9667 89.64V95H10.2867ZM37.3917 99.64C36.4851 99.64 35.6784 99.52 34.9717 99.28C34.2784 99.0533 33.7384 98.7 33.3517 98.22C32.9651 97.74 32.7717 97.1467 32.7717 96.44C32.7717 96.1333 32.8317 95.8067 32.9517 95.46C33.0851 95.1133 33.3051 94.7733 33.6117 94.44C33.9317 94.1067 34.3784 93.8067 34.9517 93.54L36.1117 94.22C35.4051 94.5133 34.9451 94.8467 34.7317 95.22C34.5184 95.6067 34.4117 95.96 34.4117 96.28C34.4117 96.72 34.5384 97.0867 34.7917 97.38C35.0451 97.6733 35.3984 97.8933 35.8517 98.04C36.3051 98.1867 36.8184 98.26 37.3917 98.26C37.9651 98.26 38.4584 98.18 38.8717 98.02C39.2851 97.86 39.6051 97.6333 39.8317 97.34C40.0584 97.0467 40.1717 96.7 40.1717 96.3C40.1717 95.8333 39.9984 95.44 39.6517 95.12C39.3051 94.8133 38.6451 94.6333 37.6717 94.58C36.8851 94.5267 36.2251 94.4533 35.6917 94.36C35.1584 94.2667 34.7184 94.16 34.3717 94.04C34.0251 93.9067 33.7317 93.76 33.4917 93.6C33.2651 93.44 33.0584 93.2733 32.8717 93.1V92.64L34.8117 90.72L36.2717 91.24L34.2717 93.04L34.5317 92.34C34.6784 92.4467 34.8184 92.5467 34.9517 92.64C35.0851 92.7333 35.2651 92.8133 35.4917 92.88C35.7184 92.9467 36.0317 93.0067 36.4317 93.06C36.8451 93.1133 37.3851 93.1667 38.0517 93.22C38.9717 93.2867 39.7051 93.4467 40.2517 93.7C40.8117 93.9533 41.2117 94.2933 41.4517 94.72C41.7051 95.1467 41.8317 95.6533 41.8317 96.24C41.8317 96.8133 41.6717 97.3533 41.3517 97.86C41.0451 98.38 40.5651 98.8067 39.9117 99.14C39.2584 99.4733 38.4184 99.64 37.3917 99.64ZM37.3717 91.84C36.5317 91.84 35.8117 91.68 35.2117 91.36C34.6251 91.04 34.1784 90.6133 33.8717 90.08C33.5651 89.5333 33.4117 88.9267 33.4117 88.26C33.4117 87.5933 33.5651 86.9933 33.8717 86.46C34.1917 85.9267 34.6451 85.5 35.2317 85.18C35.8184 84.8467 36.5317 84.68 37.3717 84.68C38.2117 84.68 38.9251 84.8467 39.5117 85.18C40.0984 85.5 40.5451 85.9267 40.8517 86.46C41.1584 86.9933 41.3117 87.5933 41.3117 88.26C41.3117 88.9267 41.1584 89.5333 40.8517 90.08C40.5451 90.6133 40.0984 91.04 39.5117 91.36C38.9251 91.68 38.2117 91.84 37.3717 91.84ZM37.3717 90.46C38.0917 90.46 38.6584 90.2733 39.0717 89.9C39.4851 89.5267 39.6917 88.98 39.6917 88.26C39.6917 87.5533 39.4851 87.0133 39.0717 86.64C38.6584 86.2667 38.0917 86.08 37.3717 86.08C36.6651 86.08 36.0917 86.2667 35.6517 86.64C35.2251 87.0133 35.0117 87.5533 35.0117 88.26C35.0117 88.98 35.2251 89.5267 35.6517 89.9C36.0784 90.2733 36.6517 90.46 37.3717 90.46ZM39.0117 86.34L38.5117 84.92H42.6317V86.18L39.0117 86.34ZM48.6734 95.24C47.7401 95.24 46.9001 95.0267 46.1534 94.6C45.4068 94.16 44.8201 93.5467 44.3934 92.76C43.9668 91.96 43.7534 91.0333 43.7534 89.98C43.7534 88.9 43.9668 87.9667 44.3934 87.18C44.8334 86.38 45.4268 85.7667 46.1734 85.34C46.9334 84.9 47.7801 84.68 48.7134 84.68C49.6734 84.68 50.5201 84.9 51.2534 85.34C52.0001 85.7667 52.5868 86.38 53.0134 87.18C53.4534 87.9667 53.6734 88.8933 53.6734 89.96C53.6734 91.0267 53.4534 91.96 53.0134 92.76C52.5734 93.5467 51.9801 94.16 51.2334 94.6C50.4868 95.0267 49.6334 95.24 48.6734 95.24ZM48.6934 93.8C49.2668 93.8 49.8001 93.66 50.2934 93.38C50.7868 93.0867 51.1868 92.6533 51.4934 92.08C51.8001 91.5067 51.9534 90.8 51.9534 89.96C51.9534 89.1067 51.8001 88.4 51.4934 87.84C51.2001 87.2667 50.8068 86.84 50.3134 86.56C49.8334 86.2667 49.3001 86.12 48.7134 86.12C48.1534 86.12 47.6201 86.2667 47.1134 86.56C46.6201 86.84 46.2201 87.2667 45.9134 87.84C45.6201 88.4 45.4734 89.1067 45.4734 89.96C45.4734 90.8 45.6201 91.5067 45.9134 92.08C46.2201 92.6533 46.6134 93.0867 47.0934 93.38C47.5868 93.66 48.1201 93.8 48.6934 93.8ZM56.1889 95V84.92H57.8689V95H56.1889ZM57.0289 82.78C56.6956 82.78 56.4156 82.6733 56.1889 82.46C55.9756 82.2333 55.8689 81.9533 55.8689 81.62C55.8689 81.2867 55.9756 81.02 56.1889 80.82C56.4156 80.6067 56.6956 80.5 57.0289 80.5C57.3489 80.5 57.6222 80.6067 57.8489 80.82C58.0756 81.02 58.1889 81.2867 58.1889 81.62C58.1889 81.9533 58.0756 82.2333 57.8489 82.46C57.6222 82.6733 57.3489 82.78 57.0289 82.78ZM60.8336 95V84.92H62.3536L62.4336 86.68C62.7536 86.0533 63.2069 85.5667 63.7936 85.22C64.3936 84.86 65.0736 84.68 65.8336 84.68C66.6203 84.68 67.3003 84.84 67.8736 85.16C68.4469 85.4667 68.8936 85.94 69.2136 86.58C69.5336 87.2067 69.6936 88.0067 69.6936 88.98V95H68.0136V89.16C68.0136 88.1467 67.7869 87.3867 67.3336 86.88C66.8936 86.3733 66.2669 86.12 65.4536 86.12C64.8936 86.12 64.3936 86.26 63.9536 86.54C63.5136 86.8067 63.1603 87.2 62.8936 87.72C62.6403 88.2267 62.5136 88.86 62.5136 89.62V95H60.8336ZM76.298 99.64C75.3913 99.64 74.5846 99.52 73.878 99.28C73.1846 99.0533 72.6446 98.7 72.258 98.22C71.8713 97.74 71.678 97.1467 71.678 96.44C71.678 96.1333 71.738 95.8067 71.858 95.46C71.9913 95.1133 72.2113 94.7733 72.518 94.44C72.838 94.1067 73.2846 93.8067 73.858 93.54L75.018 94.22C74.3113 94.5133 73.8513 94.8467 73.638 95.22C73.4246 95.6067 73.318 95.96 73.318 96.28C73.318 96.72 73.4446 97.0867 73.698 97.38C73.9513 97.6733 74.3046 97.8933 74.758 98.04C75.2113 98.1867 75.7246 98.26 76.298 98.26C76.8713 98.26 77.3646 98.18 77.778 98.02C78.1913 97.86 78.5113 97.6333 78.738 97.34C78.9646 97.0467 79.078 96.7 79.078 96.3C79.078 95.8333 78.9046 95.44 78.558 95.12C78.2113 94.8133 77.5513 94.6333 76.578 94.58C75.7913 94.5267 75.1313 94.4533 74.598 94.36C74.0646 94.2667 73.6246 94.16 73.278 94.04C72.9313 93.9067 72.638 93.76 72.398 93.6C72.1713 93.44 71.9646 93.2733 71.778 93.1V92.64L73.718 90.72L75.178 91.24L73.178 93.04L73.438 92.34C73.5846 92.4467 73.7246 92.5467 73.858 92.64C73.9913 92.7333 74.1713 92.8133 74.398 92.88C74.6246 92.9467 74.938 93.0067 75.338 93.06C75.7513 93.1133 76.2913 93.1667 76.958 93.22C77.878 93.2867 78.6113 93.4467 79.158 93.7C79.718 93.9533 80.118 94.2933 80.358 94.72C80.6113 95.1467 80.738 95.6533 80.738 96.24C80.738 96.8133 80.578 97.3533 80.258 97.86C79.9513 98.38 79.4713 98.8067 78.818 99.14C78.1646 99.4733 77.3246 99.64 76.298 99.64ZM76.278 91.84C75.438 91.84 74.718 91.68 74.118 91.36C73.5313 91.04 73.0846 90.6133 72.778 90.08C72.4713 89.5333 72.318 88.9267 72.318 88.26C72.318 87.5933 72.4713 86.9933 72.778 86.46C73.098 85.9267 73.5513 85.5 74.138 85.18C74.7246 84.8467 75.438 84.68 76.278 84.68C77.118 84.68 77.8313 84.8467 78.418 85.18C79.0046 85.5 79.4513 85.9267 79.758 86.46C80.0646 86.9933 80.218 87.5933 80.218 88.26C80.218 88.9267 80.0646 89.5333 79.758 90.08C79.4513 90.6133 79.0046 91.04 78.418 91.36C77.8313 91.68 77.118 91.84 76.278 91.84ZM76.278 90.46C76.998 90.46 77.5646 90.2733 77.978 89.9C78.3913 89.5267 78.598 88.98 78.598 88.26C78.598 87.5533 78.3913 87.0133 77.978 86.64C77.5646 86.2667 76.998 86.08 76.278 86.08C75.5713 86.08 74.998 86.2667 74.558 86.64C74.1313 87.0133 73.918 87.5533 73.918 88.26C73.918 88.98 74.1313 89.5267 74.558 89.9C74.9846 90.2733 75.558 90.46 76.278 90.46ZM77.918 86.34L77.418 84.92H81.538V86.18L77.918 86.34ZM92.7428 95C92.1428 95 91.6228 94.9067 91.1828 94.72C90.7428 94.5333 90.4028 94.22 90.1628 93.78C89.9361 93.3267 89.8228 92.72 89.8228 91.96V86.34H88.0628V84.92H89.8228L90.0428 82.48H91.5028V84.92H94.4228V86.34H91.5028V91.96C91.5028 92.5867 91.6295 93.0133 91.8828 93.24C92.1361 93.4533 92.5828 93.56 93.2228 93.56H94.3028V95H92.7428ZM100.841 95.24C99.9081 95.24 99.0681 95.0267 98.3214 94.6C97.5747 94.16 96.9881 93.5467 96.5614 92.76C96.1347 91.96 95.9214 91.0333 95.9214 89.98C95.9214 88.9 96.1347 87.9667 96.5614 87.18C97.0014 86.38 97.5947 85.7667 98.3414 85.34C99.1014 84.9 99.9481 84.68 100.881 84.68C101.841 84.68 102.688 84.9 103.421 85.34C104.168 85.7667 104.755 86.38 105.181 87.18C105.621 87.9667 105.841 88.8933 105.841 89.96C105.841 91.0267 105.621 91.96 105.181 92.76C104.741 93.5467 104.148 94.16 103.401 94.6C102.655 95.0267 101.801 95.24 100.841 95.24ZM100.861 93.8C101.435 93.8 101.968 93.66 102.461 93.38C102.955 93.0867 103.355 92.6533 103.661 92.08C103.968 91.5067 104.121 90.8 104.121 89.96C104.121 89.1067 103.968 88.4 103.661 87.84C103.368 87.2667 102.975 86.84 102.481 86.56C102.001 86.2667 101.468 86.12 100.881 86.12C100.321 86.12 99.7881 86.2667 99.2814 86.56C98.7881 86.84 98.3881 87.2667 98.0814 87.84C97.7881 88.4 97.6414 89.1067 97.6414 89.96C97.6414 90.8 97.7881 91.5067 98.0814 92.08C98.3881 92.6533 98.7814 93.0867 99.2614 93.38C99.7547 93.66 100.288 93.8 100.861 93.8ZM116.789 95.24C115.976 95.24 115.296 95.1 114.749 94.82C114.203 94.5267 113.796 94.1467 113.529 93.68C113.263 93.2 113.129 92.68 113.129 92.12C113.129 91.44 113.303 90.8667 113.649 90.4C114.009 89.92 114.509 89.56 115.149 89.32C115.803 89.0667 116.569 88.94 117.449 88.94H120.109C120.109 88.3133 120.009 87.7933 119.809 87.38C119.623 86.9533 119.343 86.6333 118.969 86.42C118.609 86.2067 118.156 86.1 117.609 86.1C116.969 86.1 116.416 86.26 115.949 86.58C115.483 86.9 115.196 87.3733 115.089 88H113.369C113.449 87.28 113.689 86.68 114.089 86.2C114.503 85.7067 115.023 85.3333 115.649 85.08C116.276 84.8133 116.929 84.68 117.609 84.68C118.543 84.68 119.316 84.8533 119.929 85.2C120.556 85.5333 121.023 86.0067 121.329 86.62C121.636 87.22 121.789 87.9333 121.789 88.76V95H120.289L120.189 93.22C120.056 93.5 119.883 93.7667 119.669 94.02C119.469 94.26 119.229 94.4733 118.949 94.66C118.669 94.8333 118.349 94.9733 117.989 95.08C117.643 95.1867 117.243 95.24 116.789 95.24ZM117.049 93.82C117.516 93.82 117.936 93.7267 118.309 93.54C118.696 93.34 119.023 93.0733 119.289 92.74C119.556 92.3933 119.756 92.0133 119.889 91.6C120.036 91.1867 120.109 90.7533 120.109 90.3V90.24H117.589C116.936 90.24 116.409 90.32 116.009 90.48C115.609 90.6267 115.323 90.84 115.149 91.12C114.976 91.3867 114.889 91.6933 114.889 92.04C114.889 92.4 114.969 92.7133 115.129 92.98C115.303 93.2467 115.549 93.4533 115.869 93.6C116.203 93.7467 116.596 93.82 117.049 93.82ZM128.828 95.24C127.855 95.24 127.002 95.0133 126.268 94.56C125.535 94.0933 124.968 93.46 124.568 92.66C124.168 91.86 123.968 90.9533 123.968 89.94C123.968 88.9267 124.168 88.0267 124.568 87.24C124.968 86.44 125.535 85.8133 126.268 85.36C127.015 84.9067 127.875 84.68 128.848 84.68C129.675 84.68 130.395 84.8467 131.008 85.18C131.635 85.5133 132.115 85.98 132.448 86.58V80.6H134.128V95H132.608L132.468 93.34C132.255 93.6733 131.982 93.9867 131.648 94.28C131.315 94.56 130.915 94.7933 130.448 94.98C129.982 95.1533 129.442 95.24 128.828 95.24ZM129.028 93.78C129.695 93.78 130.282 93.62 130.788 93.3C131.295 92.98 131.688 92.54 131.968 91.98C132.248 91.4067 132.388 90.7333 132.388 89.96C132.388 89.2 132.248 88.5333 131.968 87.96C131.688 87.3867 131.295 86.94 130.788 86.62C130.282 86.3 129.695 86.14 129.028 86.14C128.375 86.14 127.795 86.3 127.288 86.62C126.782 86.94 126.388 87.3867 126.108 87.96C125.828 88.5333 125.688 89.2 125.688 89.96C125.688 90.7333 125.828 91.4067 126.108 91.98C126.388 92.54 126.782 92.98 127.288 93.3C127.795 93.62 128.375 93.78 129.028 93.78ZM141.367 95.24C140.394 95.24 139.541 95.0133 138.807 94.56C138.074 94.0933 137.507 93.46 137.107 92.66C136.707 91.86 136.507 90.9533 136.507 89.94C136.507 88.9267 136.707 88.0267 137.107 87.24C137.507 86.44 138.074 85.8133 138.807 85.36C139.554 84.9067 140.414 84.68 141.387 84.68C142.214 84.68 142.934 84.8467 143.547 85.18C144.174 85.5133 144.654 85.98 144.987 86.58V80.6H146.667V95H145.147L145.007 93.34C144.794 93.6733 144.521 93.9867 144.187 94.28C143.854 94.56 143.454 94.7933 142.987 94.98C142.521 95.1533 141.981 95.24 141.367 95.24ZM141.567 93.78C142.234 93.78 142.821 93.62 143.327 93.3C143.834 92.98 144.227 92.54 144.507 91.98C144.787 91.4067 144.927 90.7333 144.927 89.96C144.927 89.2 144.787 88.5333 144.507 87.96C144.227 87.3867 143.834 86.94 143.327 86.62C142.821 86.3 142.234 86.14 141.567 86.14C140.914 86.14 140.334 86.3 139.827 86.62C139.321 86.94 138.927 87.3867 138.647 87.96C138.367 88.5333 138.227 89.2 138.227 89.96C138.227 90.7333 138.367 91.4067 138.647 91.98C138.927 92.54 139.321 92.98 139.827 93.3C140.334 93.62 140.914 93.78 141.567 93.78ZM154.779 95V84.92H156.299L156.399 86.36C156.719 85.84 157.146 85.4333 157.679 85.14C158.226 84.8333 158.819 84.68 159.459 84.68C159.979 84.68 160.446 84.7533 160.859 84.9C161.286 85.0333 161.659 85.2467 161.979 85.54C162.299 85.82 162.559 86.18 162.759 86.62C163.106 86.0067 163.579 85.5333 164.179 85.2C164.792 84.8533 165.446 84.68 166.139 84.68C166.912 84.68 167.586 84.84 168.159 85.16C168.746 85.4667 169.192 85.94 169.499 86.58C169.819 87.2067 169.979 88.0067 169.979 88.98V95H168.319V89.16C168.319 88.1467 168.112 87.3867 167.699 86.88C167.286 86.3733 166.706 86.12 165.959 86.12C165.439 86.12 164.972 86.26 164.559 86.54C164.146 86.8067 163.819 87.2 163.579 87.72C163.339 88.24 163.219 88.88 163.219 89.64V95H161.539V89.16C161.539 88.1467 161.332 87.3867 160.919 86.88C160.506 86.3733 159.919 86.12 159.159 86.12C158.652 86.12 158.192 86.26 157.779 86.54C157.379 86.8067 157.059 87.2 156.819 87.72C156.579 88.24 156.459 88.88 156.459 89.64V95H154.779ZM177.091 95.24C176.158 95.24 175.318 95.0267 174.571 94.6C173.825 94.16 173.238 93.5467 172.811 92.76C172.385 91.96 172.171 91.0333 172.171 89.98C172.171 88.9 172.385 87.9667 172.811 87.18C173.251 86.38 173.845 85.7667 174.591 85.34C175.351 84.9 176.198 84.68 177.131 84.68C178.091 84.68 178.938 84.9 179.671 85.34C180.418 85.7667 181.005 86.38 181.431 87.18C181.871 87.9667 182.091 88.8933 182.091 89.96C182.091 91.0267 181.871 91.96 181.431 92.76C180.991 93.5467 180.398 94.16 179.651 94.6C178.905 95.0267 178.051 95.24 177.091 95.24ZM177.111 93.8C177.685 93.8 178.218 93.66 178.711 93.38C179.205 93.0867 179.605 92.6533 179.911 92.08C180.218 91.5067 180.371 90.8 180.371 89.96C180.371 89.1067 180.218 88.4 179.911 87.84C179.618 87.2667 179.225 86.84 178.731 86.56C178.251 86.2667 177.718 86.12 177.131 86.12C176.571 86.12 176.038 86.2667 175.531 86.56C175.038 86.84 174.638 87.2667 174.331 87.84C174.038 88.4 173.891 89.1067 173.891 89.96C173.891 90.8 174.038 91.5067 174.331 92.08C174.638 92.6533 175.031 93.0867 175.511 93.38C176.005 93.66 176.538 93.8 177.111 93.8ZM184.447 95V84.92H185.967L186.087 86.84C186.314 86.3867 186.6 86 186.947 85.68C187.307 85.36 187.734 85.1133 188.227 84.94C188.734 84.7667 189.307 84.68 189.947 84.68V86.44H189.327C188.9 86.44 188.494 86.5 188.107 86.62C187.72 86.7267 187.374 86.9067 187.067 87.16C186.774 87.4133 186.54 87.76 186.367 88.2C186.207 88.6267 186.127 89.16 186.127 89.8V95H184.447ZM195.898 95.24C194.951 95.24 194.111 95.02 193.378 94.58C192.658 94.14 192.091 93.5267 191.678 92.74C191.265 91.94 191.058 91.0133 191.058 89.96C191.058 88.8933 191.258 87.9667 191.658 87.18C192.071 86.3933 192.645 85.78 193.378 85.34C194.125 84.9 194.978 84.68 195.938 84.68C196.925 84.68 197.758 84.9 198.438 85.34C199.131 85.78 199.658 86.36 200.018 87.08C200.391 87.7867 200.578 88.5667 200.578 89.42C200.578 89.5533 200.578 89.6933 200.578 89.84C200.578 89.9867 200.571 90.1533 200.558 90.34H192.318V89.04H198.938C198.898 88.12 198.591 87.4 198.018 86.88C197.458 86.36 196.751 86.1 195.898 86.1C195.325 86.1 194.791 86.2333 194.298 86.5C193.818 86.7533 193.431 87.1333 193.138 87.64C192.845 88.1333 192.698 88.7533 192.698 89.5V90.06C192.698 90.8867 192.845 91.58 193.138 92.14C193.445 92.7 193.838 93.12 194.318 93.4C194.811 93.68 195.338 93.82 195.898 93.82C196.605 93.82 197.185 93.6667 197.638 93.36C198.105 93.04 198.438 92.6133 198.638 92.08H200.298C200.138 92.68 199.858 93.22 199.458 93.7C199.058 94.18 198.558 94.56 197.958 94.84C197.371 95.1067 196.685 95.24 195.898 95.24ZM212.698 95.24C211.751 95.24 210.898 95.02 210.138 94.58C209.391 94.14 208.804 93.5267 208.378 92.74C207.951 91.94 207.738 91.02 207.738 89.98C207.738 88.9133 207.951 87.9867 208.378 87.2C208.804 86.4133 209.391 85.8 210.138 85.36C210.898 84.9067 211.751 84.68 212.698 84.68C213.898 84.68 214.898 84.9933 215.698 85.62C216.498 86.2333 217.004 87.06 217.218 88.1H215.498C215.364 87.4733 215.038 86.9867 214.518 86.64C213.998 86.2933 213.384 86.12 212.678 86.12C212.104 86.12 211.571 86.2667 211.078 86.56C210.584 86.84 210.191 87.2667 209.898 87.84C209.604 88.4133 209.458 89.12 209.458 89.96C209.458 90.5867 209.544 91.1467 209.718 91.64C209.891 92.12 210.124 92.52 210.418 92.84C210.711 93.16 211.051 93.4067 211.438 93.58C211.838 93.74 212.251 93.82 212.678 93.82C213.158 93.82 213.591 93.7467 213.978 93.6C214.364 93.44 214.691 93.2067 214.958 92.9C215.224 92.5933 215.404 92.2333 215.498 91.82H217.218C217.004 92.8333 216.491 93.66 215.678 94.3C214.878 94.9267 213.884 95.24 212.698 95.24ZM222.883 95.24C222.07 95.24 221.39 95.1 220.843 94.82C220.296 94.5267 219.89 94.1467 219.623 93.68C219.356 93.2 219.223 92.68 219.223 92.12C219.223 91.44 219.396 90.8667 219.743 90.4C220.103 89.92 220.603 89.56 221.243 89.32C221.896 89.0667 222.663 88.94 223.543 88.94H226.203C226.203 88.3133 226.103 87.7933 225.903 87.38C225.716 86.9533 225.436 86.6333 225.063 86.42C224.703 86.2067 224.25 86.1 223.703 86.1C223.063 86.1 222.51 86.26 222.043 86.58C221.576 86.9 221.29 87.3733 221.183 88H219.463C219.543 87.28 219.783 86.68 220.183 86.2C220.596 85.7067 221.116 85.3333 221.743 85.08C222.37 84.8133 223.023 84.68 223.703 84.68C224.636 84.68 225.41 84.8533 226.023 85.2C226.65 85.5333 227.116 86.0067 227.423 86.62C227.73 87.22 227.883 87.9333 227.883 88.76V95H226.383L226.283 93.22C226.15 93.5 225.976 93.7667 225.763 94.02C225.563 94.26 225.323 94.4733 225.043 94.66C224.763 94.8333 224.443 94.9733 224.083 95.08C223.736 95.1867 223.336 95.24 222.883 95.24ZM223.143 93.82C223.61 93.82 224.03 93.7267 224.403 93.54C224.79 93.34 225.116 93.0733 225.383 92.74C225.65 92.3933 225.85 92.0133 225.983 91.6C226.13 91.1867 226.203 90.7533 226.203 90.3V90.24H223.683C223.03 90.24 222.503 90.32 222.103 90.48C221.703 90.6267 221.416 90.84 221.243 91.12C221.07 91.3867 220.983 91.6933 220.983 92.04C220.983 92.4 221.063 92.7133 221.223 92.98C221.396 93.2467 221.643 93.4533 221.963 93.6C222.296 93.7467 222.69 93.82 223.143 93.82ZM234.282 95.24C233.442 95.24 232.709 95.1 232.082 94.82C231.469 94.54 230.975 94.1533 230.602 93.66C230.242 93.1533 230.022 92.56 229.942 91.88H231.662C231.729 92.2267 231.869 92.5467 232.082 92.84C232.295 93.1333 232.582 93.3733 232.942 93.56C233.315 93.7333 233.769 93.82 234.302 93.82C234.769 93.82 235.155 93.7533 235.462 93.62C235.769 93.4733 235.995 93.28 236.142 93.04C236.302 92.8 236.382 92.54 236.382 92.26C236.382 91.8467 236.282 91.5333 236.082 91.32C235.895 91.1067 235.615 90.94 235.242 90.82C234.869 90.6867 234.415 90.5733 233.882 90.48C233.442 90.4 233.009 90.2933 232.582 90.16C232.155 90.0267 231.775 89.8533 231.442 89.64C231.109 89.4133 230.842 89.14 230.642 88.82C230.455 88.5 230.362 88.1067 230.362 87.64C230.362 87.0667 230.509 86.56 230.802 86.12C231.095 85.6667 231.515 85.3133 232.062 85.06C232.622 84.8067 233.269 84.68 234.002 84.68C235.082 84.68 235.955 84.94 236.622 85.46C237.289 85.98 237.682 86.7333 237.802 87.72H236.142C236.075 87.2133 235.855 86.82 235.482 86.54C235.122 86.2467 234.622 86.1 233.982 86.1C233.355 86.1 232.875 86.2267 232.542 86.48C232.222 86.7333 232.062 87.0667 232.062 87.48C232.062 87.7467 232.149 87.9867 232.322 88.2C232.509 88.4 232.775 88.5733 233.122 88.72C233.482 88.8667 233.922 88.9867 234.442 89.08C235.109 89.2 235.715 89.36 236.262 89.56C236.809 89.76 237.249 90.06 237.582 90.46C237.929 90.8467 238.102 91.4 238.102 92.12C238.102 92.7467 237.942 93.2933 237.622 93.76C237.315 94.2267 236.875 94.5933 236.302 94.86C235.729 95.1133 235.055 95.24 234.282 95.24ZM244.941 95.24C243.994 95.24 243.154 95.02 242.421 94.58C241.701 94.14 241.134 93.5267 240.721 92.74C240.308 91.94 240.101 91.0133 240.101 89.96C240.101 88.8933 240.301 87.9667 240.701 87.18C241.114 86.3933 241.688 85.78 242.421 85.34C243.168 84.9 244.021 84.68 244.981 84.68C245.968 84.68 246.801 84.9 247.481 85.34C248.174 85.78 248.701 86.36 249.061 87.08C249.434 87.7867 249.621 88.5667 249.621 89.42C249.621 89.5533 249.621 89.6933 249.621 89.84C249.621 89.9867 249.614 90.1533 249.601 90.34H241.361V89.04H247.981C247.941 88.12 247.634 87.4 247.061 86.88C246.501 86.36 245.794 86.1 244.941 86.1C244.368 86.1 243.834 86.2333 243.341 86.5C242.861 86.7533 242.474 87.1333 242.181 87.64C241.888 88.1333 241.741 88.7533 241.741 89.5V90.06C241.741 90.8867 241.888 91.58 242.181 92.14C242.488 92.7 242.881 93.12 243.361 93.4C243.854 93.68 244.381 93.82 244.941 93.82C245.648 93.82 246.228 93.6667 246.681 93.36C247.148 93.04 247.481 92.6133 247.681 92.08H249.341C249.181 92.68 248.901 93.22 248.501 93.7C248.101 94.18 247.601 94.56 247.001 94.84C246.414 95.1067 245.728 95.24 244.941 95.24ZM255.688 95.24C254.848 95.24 254.115 95.1 253.488 94.82C252.875 94.54 252.382 94.1533 252.008 93.66C251.648 93.1533 251.428 92.56 251.348 91.88H253.068C253.135 92.2267 253.275 92.5467 253.488 92.84C253.702 93.1333 253.988 93.3733 254.348 93.56C254.722 93.7333 255.175 93.82 255.708 93.82C256.175 93.82 256.562 93.7533 256.868 93.62C257.175 93.4733 257.402 93.28 257.548 93.04C257.708 92.8 257.788 92.54 257.788 92.26C257.788 91.8467 257.688 91.5333 257.488 91.32C257.302 91.1067 257.022 90.94 256.648 90.82C256.275 90.6867 255.822 90.5733 255.288 90.48C254.848 90.4 254.415 90.2933 253.988 90.16C253.562 90.0267 253.182 89.8533 252.848 89.64C252.515 89.4133 252.248 89.14 252.048 88.82C251.862 88.5 251.768 88.1067 251.768 87.64C251.768 87.0667 251.915 86.56 252.208 86.12C252.502 85.6667 252.922 85.3133 253.468 85.06C254.028 84.8067 254.675 84.68 255.408 84.68C256.488 84.68 257.362 84.94 258.028 85.46C258.695 85.98 259.088 86.7333 259.208 87.72H257.548C257.482 87.2133 257.262 86.82 256.888 86.54C256.528 86.2467 256.028 86.1 255.388 86.1C254.762 86.1 254.282 86.2267 253.948 86.48C253.628 86.7333 253.468 87.0667 253.468 87.48C253.468 87.7467 253.555 87.9867 253.728 88.2C253.915 88.4 254.182 88.5733 254.528 88.72C254.888 88.8667 255.328 88.9867 255.848 89.08C256.515 89.2 257.122 89.36 257.668 89.56C258.215 89.76 258.655 90.06 258.988 90.46C259.335 90.8467 259.508 91.4 259.508 92.12C259.508 92.7467 259.348 93.2933 259.028 93.76C258.722 94.2267 258.282 94.5933 257.708 94.86C257.135 95.1133 256.462 95.24 255.688 95.24ZM271.04 95.24C270.2 95.24 269.467 95.1 268.84 94.82C268.227 94.54 267.733 94.1533 267.36 93.66C267 93.1533 266.78 92.56 266.7 91.88H268.42C268.487 92.2267 268.627 92.5467 268.84 92.84C269.053 93.1333 269.34 93.3733 269.7 93.56C270.073 93.7333 270.527 93.82 271.06 93.82C271.527 93.82 271.913 93.7533 272.22 93.62C272.527 93.4733 272.753 93.28 272.9 93.04C273.06 92.8 273.14 92.54 273.14 92.26C273.14 91.8467 273.04 91.5333 272.84 91.32C272.653 91.1067 272.373 90.94 272 90.82C271.627 90.6867 271.173 90.5733 270.64 90.48C270.2 90.4 269.767 90.2933 269.34 90.16C268.913 90.0267 268.533 89.8533 268.2 89.64C267.867 89.4133 267.6 89.14 267.4 88.82C267.213 88.5 267.12 88.1067 267.12 87.64C267.12 87.0667 267.267 86.56 267.56 86.12C267.853 85.6667 268.273 85.3133 268.82 85.06C269.38 84.8067 270.027 84.68 270.76 84.68C271.84 84.68 272.713 84.94 273.38 85.46C274.047 85.98 274.44 86.7333 274.56 87.72H272.9C272.833 87.2133 272.613 86.82 272.24 86.54C271.88 86.2467 271.38 86.1 270.74 86.1C270.113 86.1 269.633 86.2267 269.3 86.48C268.98 86.7333 268.82 87.0667 268.82 87.48C268.82 87.7467 268.907 87.9867 269.08 88.2C269.267 88.4 269.533 88.5733 269.88 88.72C270.24 88.8667 270.68 88.9867 271.2 89.08C271.867 89.2 272.473 89.36 273.02 89.56C273.567 89.76 274.007 90.06 274.34 90.46C274.687 90.8467 274.86 91.4 274.86 92.12C274.86 92.7467 274.7 93.2933 274.38 93.76C274.073 94.2267 273.633 94.5933 273.06 94.86C272.487 95.1133 271.813 95.24 271.04 95.24ZM281.779 95.24C280.846 95.24 280.006 95.0267 279.259 94.6C278.512 94.16 277.926 93.5467 277.499 92.76C277.072 91.96 276.859 91.0333 276.859 89.98C276.859 88.9 277.072 87.9667 277.499 87.18C277.939 86.38 278.532 85.7667 279.279 85.34C280.039 84.9 280.886 84.68 281.819 84.68C282.779 84.68 283.626 84.9 284.359 85.34C285.106 85.7667 285.692 86.38 286.119 87.18C286.559 87.9667 286.779 88.8933 286.779 89.96C286.779 91.0267 286.559 91.96 286.119 92.76C285.679 93.5467 285.086 94.16 284.339 94.6C283.592 95.0267 282.739 95.24 281.779 95.24ZM281.799 93.8C282.372 93.8 282.906 93.66 283.399 93.38C283.892 93.0867 284.292 92.6533 284.599 92.08C284.906 91.5067 285.059 90.8 285.059 89.96C285.059 89.1067 284.906 88.4 284.599 87.84C284.306 87.2667 283.912 86.84 283.419 86.56C282.939 86.2667 282.406 86.12 281.819 86.12C281.259 86.12 280.726 86.2667 280.219 86.56C279.726 86.84 279.326 87.2667 279.019 87.84C278.726 88.4 278.579 89.1067 278.579 89.96C278.579 90.8 278.726 91.5067 279.019 92.08C279.326 92.6533 279.719 93.0867 280.199 93.38C280.692 93.66 281.226 93.8 281.799 93.8ZM293.634 95.24C292.701 95.24 291.861 95.0267 291.114 94.6C290.368 94.16 289.781 93.5467 289.354 92.76C288.928 91.96 288.714 91.0333 288.714 89.98C288.714 88.9 288.928 87.9667 289.354 87.18C289.794 86.38 290.388 85.7667 291.134 85.34C291.894 84.9 292.741 84.68 293.674 84.68C294.634 84.68 295.481 84.9 296.214 85.34C296.961 85.7667 297.548 86.38 297.974 87.18C298.414 87.9667 298.634 88.8933 298.634 89.96C298.634 91.0267 298.414 91.96 297.974 92.76C297.534 93.5467 296.941 94.16 296.194 94.6C295.448 95.0267 294.594 95.24 293.634 95.24ZM293.654 93.8C294.228 93.8 294.761 93.66 295.254 93.38C295.748 93.0867 296.148 92.6533 296.454 92.08C296.761 91.5067 296.914 90.8 296.914 89.96C296.914 89.1067 296.761 88.4 296.454 87.84C296.161 87.2667 295.768 86.84 295.274 86.56C294.794 86.2667 294.261 86.12 293.674 86.12C293.114 86.12 292.581 86.2667 292.074 86.56C291.581 86.84 291.181 87.2667 290.874 87.84C290.581 88.4 290.434 89.1067 290.434 89.96C290.434 90.8 290.581 91.5067 290.874 92.08C291.181 92.6533 291.574 93.0867 292.054 93.38C292.548 93.66 293.081 93.8 293.654 93.8ZM300.99 95V84.92H302.51L302.59 86.68C302.91 86.0533 303.363 85.5667 303.95 85.22C304.55 84.86 305.23 84.68 305.99 84.68C306.777 84.68 307.457 84.84 308.03 85.16C308.603 85.4667 309.05 85.94 309.37 86.58C309.69 87.2067 309.85 88.0067 309.85 88.98V95H308.17V89.16C308.17 88.1467 307.943 87.3867 307.49 86.88C307.05 86.3733 306.423 86.12 305.61 86.12C305.05 86.12 304.55 86.26 304.11 86.54C303.67 86.8067 303.317 87.2 303.05 87.72C302.797 88.2267 302.67 88.86 302.67 89.62V95H300.99Z" fill="white"/>
</svg>
