<svg width="40" height="40" viewBox="0 0 40 40" fill="none" xmlns="http://www.w3.org/2000/svg">
<g clip-path="url(#clip0_293_448)">
<path d="M20.0092 0.303223C11.7846 0.303223 9.37926 0.311707 8.9117 0.350494C7.22387 0.490793 6.1736 0.756542 5.02939 1.32622C4.1476 1.76409 3.45217 2.27165 2.76582 2.98314C1.51586 4.28068 0.75831 5.87699 0.484076 7.77451C0.350746 8.6957 0.31196 8.88357 0.304081 13.5889C0.301051 15.1573 0.304081 17.2215 0.304081 19.9902C0.304081 28.2081 0.313172 30.6111 0.352565 31.0777C0.488924 32.7201 0.746492 33.7534 1.29193 34.8837C2.33432 37.0473 4.32517 38.6715 6.67056 39.2775C7.48265 39.4866 8.37959 39.6017 9.53107 39.6563C10.0189 39.6775 14.9915 39.6926 19.9671 39.6926C24.9427 39.6926 29.9183 39.6866 30.3941 39.6623C31.7274 39.5996 32.5016 39.4957 33.3576 39.2745C35.7182 38.6654 37.6726 37.0654 38.7363 34.8716C39.2711 33.7686 39.5423 32.6959 39.665 31.1393C39.6917 30.7999 39.7029 25.3888 39.7029 19.9851C39.7029 14.5804 39.6908 9.17932 39.6641 8.83993C39.5399 7.25816 39.2687 6.19456 38.7166 5.07035C38.2635 4.15008 37.7605 3.46282 37.0302 2.76012C35.7269 1.51531 34.1331 0.757754 32.2337 0.483823C31.3134 0.350797 31.1301 0.311404 26.4212 0.303223H20.0092Z" fill="url(#paint0_radial_293_448)"/>
<path d="M20.0092 0.303223C11.7846 0.303223 9.37926 0.311707 8.9117 0.350494C7.22387 0.490793 6.1736 0.756542 5.02939 1.32622C4.1476 1.76409 3.45217 2.27165 2.76582 2.98314C1.51586 4.28068 0.75831 5.87699 0.484076 7.77451C0.350746 8.6957 0.31196 8.88357 0.304081 13.5889C0.301051 15.1573 0.304081 17.2215 0.304081 19.9902C0.304081 28.2081 0.313172 30.6111 0.352565 31.0777C0.488924 32.7201 0.746492 33.7534 1.29193 34.8837C2.33432 37.0473 4.32517 38.6715 6.67056 39.2775C7.48265 39.4866 8.37959 39.6017 9.53107 39.6563C10.0189 39.6775 14.9915 39.6926 19.9671 39.6926C24.9427 39.6926 29.9183 39.6866 30.3941 39.6623C31.7274 39.5996 32.5016 39.4957 33.3576 39.2745C35.7182 38.6654 37.6726 37.0654 38.7363 34.8716C39.2711 33.7686 39.5423 32.6959 39.665 31.1393C39.6917 30.7999 39.7029 25.3888 39.7029 19.9851C39.7029 14.5804 39.6908 9.17932 39.6641 8.83993C39.5399 7.25816 39.2687 6.19456 38.7166 5.07035C38.2635 4.15008 37.7605 3.46282 37.0302 2.76012C35.7269 1.51531 34.1331 0.757754 32.2337 0.483823C31.3134 0.350797 31.1301 0.311404 26.4212 0.303223H20.0092Z" fill="url(#paint1_radial_293_448)"/>
<path d="M20.0003 5.45459C16.0501 5.45459 15.5544 5.47186 14.0029 5.54247C12.4545 5.61337 11.3976 5.85852 10.4727 6.2182C9.5161 6.58971 8.70461 7.08666 7.89615 7.89542C7.08708 8.70389 6.59013 9.51538 6.21741 10.4717C5.85682 11.3968 5.61137 12.4541 5.54167 14.0019C5.47228 15.5534 5.4541 16.0494 5.4541 19.9996C5.4541 23.9498 5.47168 24.444 5.54198 25.9955C5.61319 27.5439 5.85833 28.6009 6.21771 29.5257C6.58952 30.4823 7.08648 31.2938 7.89524 32.1023C8.7034 32.9113 9.51489 33.4095 10.4709 33.781C11.3963 34.1407 12.4536 34.3858 14.0017 34.4567C15.5532 34.5273 16.0486 34.5446 19.9985 34.5446C23.949 34.5446 24.4432 34.5273 25.9947 34.4567C27.5431 34.3858 28.6013 34.1407 29.5267 33.781C30.483 33.4095 31.2933 32.9113 32.1015 32.1023C32.9105 31.2938 33.4075 30.4823 33.7802 29.526C34.1378 28.6009 34.3832 27.5436 34.456 25.9958C34.5256 24.4443 34.5438 23.9498 34.5438 19.9996C34.5438 16.0494 34.5256 15.5537 34.456 14.0022C34.3832 12.4538 34.1378 11.3968 33.7802 10.472C33.4075 9.51538 32.9105 8.70389 32.1015 7.89542C31.2924 7.08636 30.4833 6.5894 29.5258 6.2182C28.5986 5.85852 27.541 5.61337 25.9926 5.54247C24.4411 5.47186 23.9472 5.45459 19.9958 5.45459H20.0003ZM18.6955 8.07572C19.0828 8.07512 19.5149 8.07572 20.0003 8.07572C23.8838 8.07572 24.3441 8.08966 25.8777 8.15936C27.2959 8.2242 28.0655 8.46117 28.5782 8.66025C29.257 8.92388 29.7409 9.23902 30.2497 9.7481C30.7588 10.2572 31.0739 10.742 31.3382 11.4208C31.5373 11.9329 31.7745 12.7026 31.8391 14.1207C31.9088 15.654 31.9239 16.1146 31.9239 19.9963C31.9239 23.878 31.9088 24.3386 31.8391 25.8718C31.7742 27.29 31.5373 28.0597 31.3382 28.5718C31.0745 29.2505 30.7588 29.7339 30.2497 30.2426C29.7406 30.7517 29.2573 31.0668 28.5782 31.3305C28.0661 31.5305 27.2959 31.7668 25.8777 31.8317C24.3444 31.9014 23.8838 31.9165 20.0003 31.9165C16.1165 31.9165 15.6562 31.9014 14.1229 31.8317C12.7048 31.7662 11.9351 31.5293 11.4221 31.3302C10.7433 31.0665 10.2585 30.7514 9.74943 30.2423C9.24035 29.7332 8.92521 29.2496 8.66097 28.5706C8.46189 28.0585 8.22462 27.2888 8.16008 25.8706C8.09039 24.3373 8.07645 23.8768 8.07645 19.9926C8.07645 16.1085 8.09039 15.6503 8.16008 14.1171C8.22493 12.6989 8.46189 11.9292 8.66097 11.4165C8.9246 10.7378 9.24035 10.2529 9.74943 9.74385C10.2585 9.23478 10.7433 8.91964 11.4221 8.6554C11.9348 8.45541 12.7048 8.21905 14.1229 8.1539C15.4647 8.0933 15.9847 8.07512 18.6955 8.07209V8.07572ZM27.7643 10.4908C26.8007 10.4908 26.0189 11.2717 26.0189 12.2356C26.0189 13.1992 26.8007 13.981 27.7643 13.981C28.7279 13.981 29.5097 13.1992 29.5097 12.2356C29.5097 11.272 28.7279 10.4902 27.7643 10.4902V10.4908ZM20.0003 12.5301C15.8753 12.5301 12.5309 15.8746 12.5309 19.9996C12.5309 24.1246 15.8753 27.4676 20.0003 27.4676C24.1254 27.4676 27.4686 24.1246 27.4686 19.9996C27.4686 15.8746 24.1254 12.5301 20.0003 12.5301ZM20.0003 15.1513C22.6778 15.1513 24.8487 17.3218 24.8487 19.9996C24.8487 22.6771 22.6778 24.8479 20.0003 24.8479C17.3225 24.8479 15.152 22.6771 15.152 19.9996C15.152 17.3218 17.3225 15.1513 20.0003 15.1513Z" fill="white"/>
</g>
<defs>
<radialGradient id="paint0_radial_293_448" cx="0" cy="0" r="1" gradientUnits="userSpaceOnUse" gradientTransform="translate(10.7685 42.7264) rotate(-90) scale(39.0378 36.3181)">
<stop stop-color="#FFDD55"/>
<stop offset="0.1" stop-color="#FFDD55"/>
<stop offset="0.5" stop-color="#FF543E"/>
<stop offset="1" stop-color="#C837AB"/>
</radialGradient>
<radialGradient id="paint1_radial_293_448" cx="0" cy="0" r="1" gradientUnits="userSpaceOnUse" gradientTransform="translate(-6.297 3.14077) rotate(78.6776) scale(17.4502 71.9488)">
<stop stop-color="#3771C8"/>
<stop offset="0.128" stop-color="#3771C8"/>
<stop offset="1" stop-color="#6600FF" stop-opacity="0"/>
</radialGradient>
<clipPath id="clip0_293_448">
<rect width="40" height="39.9988" fill="white"/>
</clipPath>
</defs>
</svg>
