<svg width="80" height="80" viewBox="0 0 80 80" fill="none" xmlns="http://www.w3.org/2000/svg">
<g clip-path="url(#clip0_18_619)">
<path d="M14.1667 0H65.8333C73.6667 0 80 6.49573 80 14.5299V65.4701C80 73.5043 73.6667 80 65.8333 80H14.1667C6.33333 80 0 73.5043 0 65.4701V14.5299C0 6.49573 6.33333 0 14.1667 0Z" fill="#330000"/>
<path d="M38.6667 47.8632H26.2667L23.7333 55.8974C23.6667 56.2051 23.4 56.4103 23.1 56.3761H16.8333C16.4667 56.3761 16.3667 56.1709 16.4667 55.7607L27.2 24.0684C27.3 23.7265 27.4 23.3504 27.5333 22.9402C27.6667 22.2222 27.7333 21.4701 27.7333 20.7179C27.7 20.547 27.8333 20.3761 28 20.3419H36.6333C36.9 20.3419 37.0333 20.4444 37.0667 20.6154L49.2333 55.8291C49.3333 56.2051 49.2333 56.3761 48.9 56.3761H41.9333C41.7 56.4103 41.4667 56.2393 41.4 56L38.6667 47.8632ZM28.2 40.9231H36.6667C36.4667 40.2051 36.2 39.3504 35.9 38.4615C35.6 37.5385 35.3 36.547 35 35.5214C34.6667 34.4615 34.3667 33.4359 34.0333 32.3761C33.7 31.3162 33.4 30.3248 33.1333 29.3333C32.8667 28.3761 32.6333 27.4872 32.4 26.6667H32.3333C32.0333 28.1368 31.6667 29.6068 31.2 31.0769C30.7 32.718 30.2 34.4274 29.6667 36.1368C29.2 37.8803 28.7 39.4872 28.2 40.9231ZM56.6667 26.3248C55.5667 26.359 54.5 25.9145 53.7 25.1282C52.9333 24.2735 52.5333 23.1453 52.5667 21.9829C52.5333 20.8205 52.9667 19.7265 53.7667 18.9402C54.5667 18.1538 55.6333 17.7436 56.7333 17.7436C58.0333 17.7436 59.0333 18.1538 59.7667 18.9402C60.5 19.7607 60.9 20.8547 60.8667 21.9829C60.9 23.1453 60.5 24.2735 59.7 25.1282C58.9333 25.9487 57.8 26.3932 56.6667 26.3248ZM52.9333 56V29.6752C52.9333 29.3333 53.0667 29.1966 53.3667 29.1966H59.9667C60.2667 29.1966 60.4 29.3675 60.4 29.6752V56C60.4 56.3761 60.2667 56.547 59.9667 56.547H53.4333C53.1 56.547 52.9333 56.3419 52.9333 56Z" fill="#FF9A00"/>
</g>
<defs>
<clipPath id="clip0_18_619">
<rect width="80" height="80" fill="white"/>
</clipPath>
</defs>
</svg>
