<svg width="80" height="80" viewBox="0 0 80 80" fill="none" xmlns="http://www.w3.org/2000/svg">
<g clip-path="url(#clip0_18_556)">
<path d="M14.1667 0H65.8333C73.6667 0 80 6.49573 80 14.5299V65.4701C80 73.5043 73.6667 80 65.8333 80H14.1667C6.33333 80 0 73.5043 0 65.4701V14.5299C0 6.49573 6.33333 0 14.1667 0Z" fill="#001E36"/>
<path d="M18 56.1025V20.9231C18 20.6837 18.1 20.547 18.3333 20.547C18.9 20.547 19.4333 20.547 20.2 20.5128C21 20.4786 21.8333 20.4786 22.7333 20.4444C23.6333 20.4102 24.6 20.4102 25.6333 20.376C26.6667 20.3419 27.6667 20.3419 28.6667 20.3419C31.4 20.3419 33.6667 20.6837 35.5333 21.4017C37.2 21.9829 38.7333 22.9401 40 24.2051C41.0667 25.2991 41.9 26.6325 42.4333 28.1025C42.9333 29.5384 43.2 31.0085 43.2 32.547C43.2 35.4872 42.5333 37.9145 41.2 39.829C39.8667 41.7436 38 43.1795 35.8333 44C33.5667 44.8547 31.0667 45.1624 28.3333 45.1624C27.5333 45.1624 27 45.1624 26.6667 45.1282C26.3333 45.094 25.8667 45.094 25.2333 45.094V56.0684C25.2667 56.3077 25.1 56.5128 24.8667 56.547C24.8333 56.547 24.8 56.547 24.7333 56.547H18.4C18.1333 56.547 18 56.4102 18 56.1025ZM25.2667 27.1453V38.6325C25.7333 38.6666 26.1667 38.7008 26.5667 38.7008H28.3333C29.6333 38.7008 30.9333 38.4957 32.1667 38.0854C33.2333 37.7778 34.1667 37.1282 34.9 36.2735C35.6 35.4188 35.9333 34.2564 35.9333 32.7521C35.9667 31.6923 35.7 30.6325 35.1667 29.7094C34.6 28.8205 33.8 28.1367 32.8333 27.7607C31.6 27.2478 30.2667 27.0427 28.9 27.0769C28.0333 27.0769 27.2667 27.0769 26.6333 27.1111C25.9667 27.0769 25.5 27.1111 25.2667 27.1453Z" fill="#31A8FF"/>
<path d="M64 36.547C63 36 61.9334 35.6239 60.8 35.3846C59.5667 35.1111 58.3334 34.9402 57.0667 34.9402C56.4 34.906 55.7 35.0085 55.0667 35.1795C54.6334 35.282 54.2667 35.5213 54.0334 35.8632C53.8667 36.1367 53.7667 36.4786 53.7667 36.7863C53.7667 37.094 53.9 37.4017 54.1 37.6752C54.4 38.0513 54.8 38.359 55.2334 38.5983C56 39.0085 56.8 39.3846 57.6 39.7265C59.4 40.3419 61.1334 41.1966 62.7334 42.2222C63.8334 42.9402 64.7334 43.8974 65.3667 45.0598C65.9 46.1538 66.1667 47.3504 66.1334 48.5812C66.1667 50.188 65.7 51.7948 64.8334 53.1282C63.9 54.4957 62.6 55.5555 61.1 56.1709C59.4667 56.8889 57.4667 57.2649 55.0667 57.2649C53.5334 57.2649 52.0334 57.1282 50.5334 56.8205C49.3667 56.6154 48.2 56.2393 47.1334 55.7265C46.9 55.5897 46.7334 55.3504 46.7667 55.0769V49.1282C46.7667 49.0256 46.8 48.8889 46.9 48.8205C47 48.7521 47.1 48.7863 47.2 48.8547C48.5 49.641 49.8667 50.188 51.3334 50.5299C52.6 50.8718 53.9334 51.0427 55.2667 51.0427C56.5334 51.0427 57.4334 50.8718 58.0334 50.5641C58.5667 50.3248 58.9334 49.7436 58.9334 49.1282C58.9334 48.6496 58.6667 48.2051 58.1334 47.7607C57.6 47.3162 56.5 46.8034 54.8667 46.1538C53.1667 45.5384 51.6 44.7179 50.1334 43.6923C49.1 42.9402 48.2334 41.9487 47.6 40.7863C47.0667 39.6923 46.8 38.4957 46.8334 37.2991C46.8334 35.829 47.2334 34.4273 47.9667 33.1624C48.8 31.7949 50.0334 30.7008 51.4667 30.0171C53.0334 29.1966 55 28.8205 57.3667 28.8205C58.7334 28.8205 60.1334 28.9231 61.5 29.1282C62.5 29.2649 63.4667 29.5384 64.3667 29.9145C64.5 29.9487 64.6334 30.0855 64.7 30.2222C64.7334 30.359 64.7667 30.4957 64.7667 30.6325V36.2051C64.7667 36.3419 64.7 36.4786 64.6 36.547C64.3 36.6154 64.1334 36.6154 64 36.547Z" fill="#31A8FF"/>
</g>
<defs>
<clipPath id="clip0_18_556">
<rect width="80" height="80" fill="white"/>
</clipPath>
</defs>
</svg>
