<svg width="80" height="80" viewBox="0 0 80 80" fill="none" xmlns="http://www.w3.org/2000/svg">
<path d="M74.5071 13.4286C73.4629 7.05429 58.5443 2 40.2857 2C22.0271 2 7.10857 7.05429 6.06429 13.4286H6V14.1429V30.5714V31.2857V32V47.7143V48.4286V49.1429V66.2857H6.06429C7.10857 72.6586 22.0286 77.7143 40.2857 77.7143C58.5429 77.7143 73.4629 72.6586 74.5071 66.2857H74.5714V49.1429V48.4286V47.7143V32V31.2857V30.5714V14.1429V13.4286H74.5071Z" fill="#545E73"/>
<path d="M40.2857 60.5714C21.35 60.5714 6 55.1343 6 48.4286V66.2857H6.06429C7.10857 72.6586 22.0286 77.7143 40.2857 77.7143C58.5429 77.7143 73.4629 72.6586 74.5071 66.2857H74.5714V48.4286C74.5714 55.1343 59.2214 60.5714 40.2857 60.5714Z" fill="#38454F"/>
<path d="M6 47.7143V48.4286C6 48.1886 6.02571 47.9514 6.06429 47.7143H6Z" fill="#38454F"/>
<path d="M74.5071 47.7143C74.5457 47.9514 74.5714 48.1886 74.5714 48.4286V47.7143H74.5071Z" fill="#38454F"/>
<path d="M40.2857 43.4286C21.35 43.4286 6 37.9914 6 31.2857V49.1429H6.06429C7.10857 55.5157 22.0286 60.5714 40.2857 60.5714C58.5429 60.5714 73.4629 55.5157 74.5071 49.1429H74.5714V31.2857C74.5714 37.9914 59.2214 43.4286 40.2857 43.4286Z" fill="#556080"/>
<path d="M6 30.5714V31.2857C6 31.0457 6.02571 30.8086 6.06429 30.5714H6Z" fill="#556080"/>
<path d="M74.5071 30.5714C74.5457 30.8086 74.5714 31.0457 74.5714 31.2857V30.5714H74.5071Z" fill="#556080"/>
<path d="M40.2857 26.2857C59.2212 26.2857 74.5714 20.8492 74.5714 14.1429C74.5714 7.43654 59.2212 2 40.2857 2C21.3502 2 6 7.43654 6 14.1429C6 20.8492 21.3502 26.2857 40.2857 26.2857Z" fill="#91BAE1"/>
<path d="M40.2857 26.2857C21.35 26.2857 6 20.8486 6 14.1429V32H6.06429C7.10857 38.3729 22.0286 43.4286 40.2857 43.4286C58.5429 43.4286 73.4629 38.3729 74.5071 32H74.5714V14.1429C74.5714 20.8486 59.2214 26.2857 40.2857 26.2857Z" fill="#8697CB"/>
<path d="M6 13.4286V14.1428C6 13.9028 6.02571 13.6657 6.06429 13.4286H6Z" fill="#8697CB"/>
<path d="M74.5071 13.4286C74.5457 13.6657 74.5714 13.9028 74.5714 14.1428V13.4286H74.5071Z" fill="#8697CB"/>
</svg>
