<svg width="80" height="80" viewBox="0 0 80 80" fill="none" xmlns="http://www.w3.org/2000/svg">
<rect width="80" height="80" fill="#1E1E1E"/>
<g clip-path="url(#clip0_18_611)">
<path d="M30.002 70C35.5209 70 40 65.52 40 60V50H30.002C24.4831 50 20.004 54.48 20.004 60C20.004 65.52 24.4831 70 30.002 70Z" fill="#0ACF83"/>
<path d="M20.004 40C20.004 34.48 24.4831 30 30.002 30H40V50H30.002C24.4831 50 20.004 45.52 20.004 40Z" fill="#A259FF"/>
<path d="M20.004 20C20.004 14.48 24.4831 10 30.002 10H40V30H30.002C24.4831 30 20.004 25.52 20.004 20Z" fill="#F24E1E"/>
<path d="M40 10H49.998C55.5169 10 59.996 14.48 59.996 20C59.996 25.52 55.5169 30 49.998 30H40V10Z" fill="#FF7262"/>
<path d="M59.996 40C59.996 45.52 55.5169 50 49.998 50C44.4791 50 40 45.52 40 40C40 34.48 44.4791 30 49.998 30C55.5169 30 59.996 34.48 59.996 40Z" fill="#1ABCFE"/>
</g>
<defs>
<clipPath id="clip0_18_611">
<rect width="40" height="60" fill="white" transform="translate(20 10)"/>
</clipPath>
</defs>
</svg>
