<?xml version="1.0" encoding="UTF-8"?> <svg xmlns="http://www.w3.org/2000/svg" width="63" height="70" viewBox="0 0 63 70" fill="none"><g clip-path="url(#clip0_206_81)"><path d="M31.0035 69.8701C30.0406 69.8701 29.142 69.6134 28.3075 69.164L19.7703 64.0931C18.4865 63.387 19.1284 63.1302 19.5136 63.0019C21.2467 62.4242 21.5676 62.2958 23.3649 61.2687C23.5575 61.1404 23.8143 61.2046 24.0068 61.3329L30.5541 65.2485C30.8109 65.3769 31.1318 65.3769 31.3244 65.2485L56.936 50.4207C57.1927 50.2924 57.3211 50.0356 57.3211 49.7147V20.1234C57.3211 19.8024 57.1927 19.5457 56.936 19.4173L31.3244 4.65373C31.0677 4.52535 30.7467 4.52535 30.5541 4.65373L4.94258 19.4173C4.68582 19.5457 4.55744 19.8666 4.55744 20.1234V49.7147C4.55744 49.9714 4.68582 50.2924 4.94258 50.4207L11.9392 54.4647C15.7264 56.3904 18.1014 54.1437 18.1014 51.8971V22.6909C18.1014 22.3058 18.4223 21.9207 18.8717 21.9207H22.1453C22.5305 21.9207 22.9156 22.2416 22.9156 22.6909V51.8971C22.9156 56.9681 20.1555 59.9208 15.3413 59.9208C13.8649 59.9208 12.7095 59.9208 9.43584 58.316L2.69595 54.4647C1.02703 53.5018 0 51.7045 0 49.7788V20.1876C0 18.2619 1.02703 16.4646 2.69595 15.5017L28.3075 0.673988C29.9122 -0.224663 32.0947 -0.224663 33.6994 0.673988L59.311 15.5017C60.9799 16.4646 62.0069 18.2619 62.0069 20.1876V49.7788C62.0069 51.7045 60.9799 53.5018 59.311 54.4647L33.6994 69.2924C32.865 69.6775 31.9021 69.8701 31.0035 69.8701ZM38.8987 49.5221C27.6656 49.5221 25.3548 44.3869 25.3548 40.0221C25.3548 39.6369 25.6757 39.2518 26.1251 39.2518H29.4629C29.8481 39.2518 30.169 39.5085 30.169 39.8937C30.6825 43.2957 32.1589 44.9646 38.9629 44.9646C44.3548 44.9646 46.6657 43.745 46.6657 40.8565C46.6657 39.1876 46.0238 37.968 37.615 37.1335C30.6183 36.4275 26.2534 34.8869 26.2534 29.3024C26.2534 24.1031 30.6183 21.022 37.9359 21.022C46.1522 21.022 50.1961 23.8463 50.7096 30.0085C50.7096 30.2011 50.6454 30.3937 50.517 30.5862C50.3886 30.7146 50.1961 30.843 50.0035 30.843H46.6657C46.3447 30.843 46.0238 30.5862 45.9596 30.2653C45.1893 26.7349 43.1994 25.5795 37.9359 25.5795C32.0305 25.5795 31.3244 27.6335 31.3244 29.1741C31.3244 31.0356 32.1589 31.6133 40.1183 32.6403C48.0136 33.6673 51.7366 35.1437 51.7366 40.664C51.6724 46.3126 47.0508 49.5221 38.8987 49.5221Z" fill="#539E43"></path></g><defs><clipPath id="clip0_206_81"><rect width="62.0069" height="70" fill="white"></rect></clipPath></defs></svg> 