<svg width="80" height="80" viewBox="0 0 80 80" fill="none" xmlns="http://www.w3.org/2000/svg">
<path d="M46.6127 40C46.6127 36.062 43.4282 32.8696 39.5 32.8696C35.5718 32.8696 32.3873 36.062 32.3873 40C32.3873 43.938 35.5718 47.1304 39.5 47.1304C43.4282 47.1304 46.6127 43.938 46.6127 40Z" fill="#61DAFB"/>
<path d="M54.0723 40C54.0723 18.8691 47.5481 1.73913 39.5 1.73913C31.452 1.73913 24.9277 18.8691 24.9277 40C24.9277 61.1309 31.452 78.2609 39.5 78.2609C47.5481 78.2609 54.0723 61.1309 54.0723 40Z" stroke="#61DAFB"/>
<path d="M46.7861 52.6515C65.0404 42.0861 76.5764 27.8568 72.5523 20.8696C68.5283 13.8823 50.4681 16.7831 32.2138 27.3485C13.9595 37.914 2.42362 52.1432 6.44765 59.1304C10.4717 66.1177 28.5318 63.217 46.7861 52.6515Z" stroke="#61DAFB"/>
<path d="M32.2138 52.6515C50.4681 63.217 68.5283 66.1177 72.5523 59.1304C76.5763 52.1432 65.0404 37.914 46.7861 27.3485C28.5318 16.7831 10.4716 13.8823 6.44761 20.8696C2.42358 27.8568 13.9595 42.0861 32.2138 52.6515Z" stroke="#61DAFB"/>
</svg>
