<svg width="80" height="80" viewBox="0 0 80 80" fill="none" xmlns="http://www.w3.org/2000/svg">
<g clip-path="url(#clip0_467_488)">
<mask id="mask0_467_488" style="mask-type:luminance" maskUnits="userSpaceOnUse" x="0" y="15" width="80" height="49">
<path d="M0 15H80V63.1091H0V15Z" fill="white"/>
</mask>
<g mask="url(#mask0_467_488)">
<path fill-rule="evenodd" clip-rule="evenodd" d="M40 15C29.3333 15 22.6667 20.3455 20 31.0364C24 25.6909 28.6667 23.6864 34 25.0227C37.043 25.7845 39.2178 27.9984 41.6252 30.4469C45.5467 34.4367 50.0859 39.0545 60 39.0545C70.6667 39.0545 77.3333 33.7091 80 23.0182C76 28.3636 71.3333 30.3682 66 29.0318C62.957 28.2701 60.7822 26.0562 58.3748 23.6077C54.4533 19.6179 49.9141 15 40 15ZM20 39.0545C9.33333 39.0545 2.66667 44.4 0 55.0909C4 49.7455 8.66667 47.7409 14 49.0773C17.043 49.8405 19.2178 52.0529 21.6252 54.5014C25.5467 58.4912 30.0859 63.1091 40 63.1091C50.6667 63.1091 57.3333 57.7636 60 47.0727C56 52.4182 51.3333 54.4227 46 53.0864C42.957 52.3246 40.7822 50.1107 38.3748 47.6622C34.4533 43.6724 29.9141 39.0545 20 39.0545Z" fill="#38BDF8"/>
</g>
</g>
<defs>
<clipPath id="clip0_467_488">
<rect width="80" height="49" fill="white" transform="translate(0 15)"/>
</clipPath>
</defs>
</svg>
